<svg width="1920" height="1084" viewBox="0 0 1920 1084" fill="none" xmlns="http://www.w3.org/2000/svg">
<rect width="1920" height="1080" rx="12" fill="white"/>
<g filter="url(#filter0_d_48_4)">
<rect x="309" y="906" width="1573" height="153" rx="12" fill="url(#paint0_linear_48_4)"/>
<rect x="307.5" y="904.5" width="1576" height="156" rx="13.5" stroke="#3B82F6" stroke-width="3"/>
</g>
<g filter="url(#filter1_d_48_4)">
<rect x="309" y="492" width="1573" height="392" rx="12" fill="white"/>
</g>
<g filter="url(#filter2_d_48_4)">
<rect x="332" y="545" width="767" height="325" rx="12" fill="url(#paint1_linear_48_4)"/>
<rect x="331" y="544" width="769" height="327" rx="13" stroke="#0F766E" stroke-width="2"/>
</g>
<g filter="url(#filter3_d_48_4)">
<rect x="1119" y="545" width="743" height="325" rx="12" fill="url(#paint2_linear_48_4)"/>
<rect x="1118" y="544" width="745" height="327" rx="13" stroke="#0F766E" stroke-width="2"/>
</g>
<line x1="334.001" y1="524.5" x2="1862" y2="528.5" stroke="#E6E6E6"/>
<g filter="url(#filter4_d_48_4)">
<rect x="312" y="122" width="1570" height="350" rx="12" fill="white"/>
</g>
<rect x="330.5" y="172.5" width="578" height="287" rx="13.5" fill="url(#paint3_linear_48_4)" stroke="#F59E0B" stroke-width="3"/>
<rect x="1285.5" y="172.5" width="578" height="287" rx="13.5" fill="url(#paint4_linear_48_4)" stroke="#9CA3AF" stroke-width="3"/>
<rect x="925.5" y="172.5" width="345" height="287" rx="13.5" fill="white" stroke="#F59E0B" stroke-width="3" stroke-linejoin="bevel" stroke-dasharray="4 4"/>
<line x1="332.002" y1="156.5" x2="1862" y2="163.41" stroke="#E6E6E6"/>
<line x1="309" y1="100.75" x2="1882.01" y2="100.75" stroke="#0F766E" stroke-width="3"/>
<path d="M317 87H313.409V75.3636H317.159C318.288 75.3636 319.254 75.5966 320.057 76.0625C320.86 76.5246 321.475 77.1894 321.903 78.0568C322.331 78.9205 322.545 79.9545 322.545 81.1591C322.545 82.3712 322.33 83.4148 321.898 84.2898C321.466 85.161 320.837 85.8314 320.011 86.3011C319.186 86.767 318.182 87 317 87ZM314.818 85.75H316.909C317.871 85.75 318.669 85.5644 319.301 85.1932C319.934 84.822 320.405 84.2936 320.716 83.608C321.027 82.9223 321.182 82.1061 321.182 81.1591C321.182 80.2197 321.028 79.411 320.722 78.733C320.415 78.0511 319.956 77.5284 319.347 77.1648C318.737 76.7973 317.977 76.6136 317.068 76.6136H314.818V85.75ZM328.386 87.1818C327.545 87.1818 326.82 86.9962 326.21 86.625C325.604 86.25 325.136 85.7273 324.807 85.0568C324.481 84.3826 324.318 83.5985 324.318 82.7045C324.318 81.8106 324.481 81.0227 324.807 80.3409C325.136 79.6553 325.595 79.1212 326.182 78.7386C326.773 78.3523 327.462 78.1591 328.25 78.1591C328.705 78.1591 329.153 78.2348 329.597 78.3864C330.04 78.5379 330.443 78.7841 330.807 79.125C331.17 79.4621 331.46 79.9091 331.676 80.4659C331.892 81.0227 332 81.7083 332 82.5227V83.0909H325.273V81.9318H330.636C330.636 81.4394 330.538 81 330.341 80.6136C330.148 80.2273 329.871 79.9223 329.511 79.6989C329.155 79.4754 328.735 79.3636 328.25 79.3636C327.716 79.3636 327.254 79.4962 326.864 79.7614C326.477 80.0227 326.18 80.3636 325.972 80.7841C325.763 81.2045 325.659 81.6553 325.659 82.1364V82.9091C325.659 83.5682 325.773 84.1269 326 84.5852C326.231 85.0398 326.551 85.3864 326.96 85.625C327.369 85.8598 327.845 85.9773 328.386 85.9773C328.739 85.9773 329.057 85.928 329.341 85.8295C329.629 85.7273 329.877 85.5758 330.085 85.375C330.294 85.1705 330.455 84.9167 330.568 84.6136L331.864 84.9773C331.727 85.4167 331.498 85.803 331.176 86.1364C330.854 86.4659 330.456 86.7235 329.983 86.9091C329.509 87.0909 328.977 87.1818 328.386 87.1818ZM337.699 87.1818C336.858 87.1818 336.133 86.9962 335.523 86.625C334.917 86.25 334.449 85.7273 334.119 85.0568C333.794 84.3826 333.631 83.5985 333.631 82.7045C333.631 81.8106 333.794 81.0227 334.119 80.3409C334.449 79.6553 334.907 79.1212 335.494 78.7386C336.085 78.3523 336.775 78.1591 337.562 78.1591C338.017 78.1591 338.466 78.2348 338.909 78.3864C339.352 78.5379 339.756 78.7841 340.119 79.125C340.483 79.4621 340.773 79.9091 340.989 80.4659C341.205 81.0227 341.312 81.7083 341.312 82.5227V83.0909H334.585V81.9318H339.949C339.949 81.4394 339.85 81 339.653 80.6136C339.46 80.2273 339.184 79.9223 338.824 79.6989C338.468 79.4754 338.047 79.3636 337.562 79.3636C337.028 79.3636 336.566 79.4962 336.176 79.7614C335.79 80.0227 335.492 80.3636 335.284 80.7841C335.076 81.2045 334.972 81.6553 334.972 82.1364V82.9091C334.972 83.5682 335.085 84.1269 335.312 84.5852C335.544 85.0398 335.864 85.3864 336.273 85.625C336.682 85.8598 337.157 85.9773 337.699 85.9773C338.051 85.9773 338.369 85.928 338.653 85.8295C338.941 85.7273 339.189 85.5758 339.398 85.375C339.606 85.1705 339.767 84.9167 339.881 84.6136L341.176 84.9773C341.04 85.4167 340.811 85.803 340.489 86.1364C340.167 86.4659 339.769 86.7235 339.295 86.9091C338.822 87.0909 338.29 87.1818 337.699 87.1818ZM343.352 90.2727V78.2727H344.648V79.6591H344.807C344.905 79.5076 345.042 79.3144 345.216 79.0795C345.394 78.8409 345.648 78.6288 345.977 78.4432C346.311 78.2538 346.761 78.1591 347.33 78.1591C348.064 78.1591 348.712 78.3428 349.273 78.7102C349.833 79.0777 350.271 79.5985 350.585 80.2727C350.9 80.947 351.057 81.7424 351.057 82.6591C351.057 83.5833 350.9 84.3845 350.585 85.0625C350.271 85.7367 349.835 86.2595 349.278 86.6307C348.722 86.9981 348.08 87.1818 347.352 87.1818C346.792 87.1818 346.343 87.089 346.006 86.9034C345.669 86.714 345.409 86.5 345.227 86.2614C345.045 86.0189 344.905 85.8182 344.807 85.6591H344.693V90.2727H343.352ZM344.67 82.6364C344.67 83.2955 344.767 83.8769 344.96 84.3807C345.153 84.8807 345.436 85.2727 345.807 85.5568C346.178 85.8371 346.633 85.9773 347.17 85.9773C347.731 85.9773 348.199 85.8295 348.574 85.5341C348.953 85.2348 349.237 84.8333 349.426 84.3295C349.619 83.822 349.716 83.2576 349.716 82.6364C349.716 82.0227 349.621 81.4697 349.432 80.9773C349.246 80.4811 348.964 80.089 348.585 79.8011C348.21 79.5095 347.739 79.3636 347.17 79.3636C346.625 79.3636 346.167 79.5019 345.795 79.7784C345.424 80.0511 345.144 80.4337 344.955 80.9261C344.765 81.4148 344.67 81.9848 344.67 82.6364ZM361.375 87H357.784V75.3636H361.534C362.663 75.3636 363.629 75.5966 364.432 76.0625C365.235 76.5246 365.85 77.1894 366.278 78.0568C366.706 78.9205 366.92 79.9545 366.92 81.1591C366.92 82.3712 366.705 83.4148 366.273 84.2898C365.841 85.161 365.212 85.8314 364.386 86.3011C363.561 86.767 362.557 87 361.375 87ZM359.193 85.75H361.284C362.246 85.75 363.044 85.5644 363.676 85.1932C364.309 84.822 364.78 84.2936 365.091 83.608C365.402 82.9223 365.557 82.1061 365.557 81.1591C365.557 80.2197 365.403 79.411 365.097 78.733C364.79 78.0511 364.331 77.5284 363.722 77.1648C363.112 76.7973 362.352 76.6136 361.443 76.6136H359.193V85.75ZM369.102 87V78.2727H370.443V87H369.102ZM369.784 76.8182C369.523 76.8182 369.297 76.7292 369.108 76.5511C368.922 76.3731 368.83 76.1591 368.83 75.9091C368.83 75.6591 368.922 75.4451 369.108 75.267C369.297 75.089 369.523 75 369.784 75C370.045 75 370.269 75.089 370.455 75.267C370.644 75.4451 370.739 75.6591 370.739 75.9091C370.739 76.1591 370.644 76.3731 370.455 76.5511C370.269 76.7292 370.045 76.8182 369.784 76.8182ZM380.036 78.2727L376.808 87H375.445L372.217 78.2727H373.672L376.081 85.2273H376.172L378.581 78.2727H380.036ZM385.152 87.1818C384.311 87.1818 383.586 86.9962 382.976 86.625C382.37 86.25 381.902 85.7273 381.572 85.0568C381.247 84.3826 381.084 83.5985 381.084 82.7045C381.084 81.8106 381.247 81.0227 381.572 80.3409C381.902 79.6553 382.36 79.1212 382.947 78.7386C383.538 78.3523 384.228 78.1591 385.016 78.1591C385.47 78.1591 385.919 78.2348 386.362 78.3864C386.805 78.5379 387.209 78.7841 387.572 79.125C387.936 79.4621 388.226 79.9091 388.442 80.4659C388.658 81.0227 388.766 81.7083 388.766 82.5227V83.0909H382.038V81.9318H387.402C387.402 81.4394 387.304 81 387.107 80.6136C386.913 80.2273 386.637 79.9223 386.277 79.6989C385.921 79.4754 385.5 79.3636 385.016 79.3636C384.482 79.3636 384.019 79.4962 383.629 79.7614C383.243 80.0227 382.946 80.3636 382.737 80.7841C382.529 81.2045 382.425 81.6553 382.425 82.1364V82.9091C382.425 83.5682 382.538 84.1269 382.766 84.5852C382.997 85.0398 383.317 85.3864 383.726 85.625C384.135 85.8598 384.61 85.9773 385.152 85.9773C385.504 85.9773 385.822 85.928 386.107 85.8295C386.394 85.7273 386.643 85.5758 386.851 85.375C387.059 85.1705 387.22 84.9167 387.334 84.6136L388.629 84.9773C388.493 85.4167 388.264 85.803 387.942 86.1364C387.62 86.4659 387.222 86.7235 386.749 86.9091C386.275 87.0909 385.743 87.1818 385.152 87.1818ZM395.305 87V78.2727H396.646V87H395.305ZM395.987 76.8182C395.726 76.8182 395.5 76.7292 395.311 76.5511C395.125 76.3731 395.033 76.1591 395.033 75.9091C395.033 75.6591 395.125 75.4451 395.311 75.267C395.5 75.089 395.726 75 395.987 75C396.249 75 396.472 75.089 396.658 75.267C396.847 75.4451 396.942 75.6591 396.942 75.9091C396.942 76.1591 396.847 76.3731 396.658 76.5511C396.472 76.7292 396.249 76.8182 395.987 76.8182ZM400.443 81.75V87H399.102V78.2727H400.398V79.6364H400.511C400.716 79.1932 401.027 78.8371 401.443 78.5682C401.86 78.2955 402.398 78.1591 403.057 78.1591C403.648 78.1591 404.165 78.2803 404.608 78.5227C405.051 78.7614 405.396 79.125 405.642 79.6136C405.888 80.0985 406.011 80.7121 406.011 81.4545V87H404.67V81.5455C404.67 80.8598 404.492 80.3258 404.136 79.9432C403.78 79.5568 403.292 79.3636 402.67 79.3636C402.242 79.3636 401.86 79.4564 401.523 79.642C401.189 79.8277 400.926 80.0985 400.733 80.4545C400.54 80.8106 400.443 81.2424 400.443 81.75ZM412.257 78.2727V79.4091H407.734V78.2727H412.257ZM409.053 76.1818H410.393V84.5C410.393 84.8788 410.448 85.1629 410.558 85.3523C410.672 85.5379 410.816 85.6629 410.99 85.7273C411.168 85.7879 411.356 85.8182 411.553 85.8182C411.7 85.8182 411.821 85.8106 411.916 85.7955C412.011 85.7765 412.087 85.7614 412.143 85.75L412.416 86.9545C412.325 86.9886 412.198 87.0227 412.036 87.0568C411.873 87.0947 411.666 87.1136 411.416 87.1136C411.037 87.1136 410.666 87.0322 410.303 86.8693C409.943 86.7064 409.643 86.4583 409.405 86.125C409.17 85.7917 409.053 85.3712 409.053 84.8636V76.1818ZM417.726 87.1818C416.938 87.1818 416.247 86.9943 415.652 86.6193C415.061 86.2443 414.599 85.7197 414.266 85.0455C413.936 84.3712 413.771 83.5833 413.771 82.6818C413.771 81.7727 413.936 80.9792 414.266 80.3011C414.599 79.6231 415.061 79.0966 415.652 78.7216C416.247 78.3466 416.938 78.1591 417.726 78.1591C418.514 78.1591 419.203 78.3466 419.794 78.7216C420.389 79.0966 420.851 79.6231 421.18 80.3011C421.514 80.9792 421.68 81.7727 421.68 82.6818C421.68 83.5833 421.514 84.3712 421.18 85.0455C420.851 85.7197 420.389 86.2443 419.794 86.6193C419.203 86.9943 418.514 87.1818 417.726 87.1818ZM417.726 85.9773C418.324 85.9773 418.817 85.8239 419.203 85.517C419.589 85.2102 419.875 84.8068 420.061 84.3068C420.247 83.8068 420.339 83.2652 420.339 82.6818C420.339 82.0985 420.247 81.5549 420.061 81.0511C419.875 80.5473 419.589 80.1402 419.203 79.8295C418.817 79.5189 418.324 79.3636 417.726 79.3636C417.127 79.3636 416.635 79.5189 416.249 79.8295C415.862 80.1402 415.576 80.5473 415.391 81.0511C415.205 81.5549 415.112 82.0985 415.112 82.6818C415.112 83.2652 415.205 83.8068 415.391 84.3068C415.576 84.8068 415.862 85.2102 416.249 85.517C416.635 85.8239 417.127 85.9773 417.726 85.9773ZM432 87H428.409V75.3636H432.159C433.288 75.3636 434.254 75.5966 435.057 76.0625C435.86 76.5246 436.475 77.1894 436.903 78.0568C437.331 78.9205 437.545 79.9545 437.545 81.1591C437.545 82.3712 437.33 83.4148 436.898 84.2898C436.466 85.161 435.837 85.8314 435.011 86.3011C434.186 86.767 433.182 87 432 87ZM429.818 85.75H431.909C432.871 85.75 433.669 85.5644 434.301 85.1932C434.934 84.822 435.405 84.2936 435.716 83.608C436.027 82.9223 436.182 82.1061 436.182 81.1591C436.182 80.2197 436.028 79.411 435.722 78.733C435.415 78.0511 434.956 77.5284 434.347 77.1648C433.737 76.7973 432.977 76.6136 432.068 76.6136H429.818V85.75ZM439.727 87V78.2727H441.023V79.5909H441.114C441.273 79.1591 441.561 78.8087 441.977 78.5398C442.394 78.2708 442.864 78.1364 443.386 78.1364C443.485 78.1364 443.608 78.1383 443.756 78.142C443.903 78.1458 444.015 78.1515 444.091 78.1591V79.5227C444.045 79.5114 443.941 79.4943 443.778 79.4716C443.619 79.4451 443.451 79.4318 443.273 79.4318C442.848 79.4318 442.47 79.5208 442.136 79.6989C441.807 79.8731 441.545 80.1155 441.352 80.4261C441.163 80.733 441.068 81.0833 441.068 81.4773V87H439.727ZM445.68 87V78.2727H447.021V87H445.68ZM446.362 76.8182C446.101 76.8182 445.875 76.7292 445.686 76.5511C445.5 76.3731 445.408 76.1591 445.408 75.9091C445.408 75.6591 445.5 75.4451 445.686 75.267C445.875 75.089 446.101 75 446.362 75C446.624 75 446.847 75.089 447.033 75.267C447.222 75.4451 447.317 75.6591 447.317 75.9091C447.317 76.1591 447.222 76.3731 447.033 76.5511C446.847 76.7292 446.624 76.8182 446.362 76.8182ZM456.614 78.2727L453.386 87H452.023L448.795 78.2727H450.25L452.659 85.2273H452.75L455.159 78.2727H456.614ZM461.73 87.1818C460.889 87.1818 460.164 86.9962 459.554 86.625C458.948 86.25 458.48 85.7273 458.151 85.0568C457.825 84.3826 457.662 83.5985 457.662 82.7045C457.662 81.8106 457.825 81.0227 458.151 80.3409C458.48 79.6553 458.938 79.1212 459.526 78.7386C460.116 78.3523 460.806 78.1591 461.594 78.1591C462.048 78.1591 462.497 78.2348 462.94 78.3864C463.384 78.5379 463.787 78.7841 464.151 79.125C464.514 79.4621 464.804 79.9091 465.02 80.4659C465.236 81.0227 465.344 81.7083 465.344 82.5227V83.0909H458.616V81.9318H463.98C463.98 81.4394 463.882 81 463.685 80.6136C463.491 80.2273 463.215 79.9223 462.855 79.6989C462.499 79.4754 462.079 79.3636 461.594 79.3636C461.06 79.3636 460.598 79.4962 460.207 79.7614C459.821 80.0227 459.524 80.3636 459.315 80.7841C459.107 81.2045 459.003 81.6553 459.003 82.1364V82.9091C459.003 83.5682 459.116 84.1269 459.344 84.5852C459.575 85.0398 459.895 85.3864 460.304 85.625C460.713 85.8598 461.188 85.9773 461.73 85.9773C462.082 85.9773 462.401 85.928 462.685 85.8295C462.973 85.7273 463.221 85.5758 463.429 85.375C463.637 85.1705 463.798 84.9167 463.912 84.6136L465.207 84.9773C465.071 85.4167 464.842 85.803 464.52 86.1364C464.198 86.4659 463.8 86.7235 463.327 86.9091C462.853 87.0909 462.321 87.1818 461.73 87.1818ZM467.384 87V78.2727H468.679V79.5909H468.77C468.929 79.1591 469.217 78.8087 469.634 78.5398C470.05 78.2708 470.52 78.1364 471.043 78.1364C471.141 78.1364 471.264 78.1383 471.412 78.142C471.56 78.1458 471.671 78.1515 471.747 78.1591V79.5227C471.702 79.5114 471.598 79.4943 471.435 79.4716C471.276 79.4451 471.107 79.4318 470.929 79.4318C470.505 79.4318 470.126 79.5208 469.793 79.6989C469.463 79.8731 469.202 80.1155 469.009 80.4261C468.819 80.733 468.724 81.0833 468.724 81.4773V87H467.384ZM479.518 80.2273L478.314 80.5682C478.238 80.3674 478.126 80.1723 477.979 79.983C477.835 79.7898 477.638 79.6307 477.388 79.5057C477.138 79.3807 476.818 79.3182 476.428 79.3182C475.893 79.3182 475.448 79.4413 475.092 79.6875C474.74 79.9299 474.564 80.2386 474.564 80.6136C474.564 80.947 474.685 81.2102 474.928 81.4034C475.17 81.5966 475.549 81.7576 476.064 81.8864L477.359 82.2045C478.14 82.3939 478.721 82.6837 479.104 83.0739C479.486 83.4602 479.678 83.9583 479.678 84.5682C479.678 85.0682 479.534 85.5152 479.246 85.9091C478.962 86.303 478.564 86.6136 478.053 86.8409C477.541 87.0682 476.946 87.1818 476.268 87.1818C475.378 87.1818 474.642 86.9886 474.058 86.6023C473.475 86.2159 473.106 85.6515 472.95 84.9091L474.223 84.5909C474.344 85.0606 474.573 85.4129 474.911 85.6477C475.251 85.8826 475.696 86 476.246 86C476.871 86 477.367 85.8674 477.734 85.6023C478.106 85.3333 478.291 85.0114 478.291 84.6364C478.291 84.3333 478.185 84.0795 477.973 83.875C477.761 83.6667 477.435 83.5114 476.996 83.4091L475.541 83.0682C474.742 82.8788 474.155 82.5852 473.78 82.1875C473.409 81.786 473.223 81.2841 473.223 80.6818C473.223 80.1894 473.361 79.7538 473.638 79.375C473.918 78.9962 474.299 78.6989 474.78 78.483C475.265 78.267 475.814 78.1591 476.428 78.1591C477.291 78.1591 477.969 78.3485 478.462 78.7273C478.958 79.1061 479.31 79.6061 479.518 80.2273ZM489.741 87.1818C488.954 87.1818 488.262 86.9943 487.668 86.6193C487.077 86.2443 486.615 85.7197 486.281 85.0455C485.952 84.3712 485.787 83.5833 485.787 82.6818C485.787 81.7727 485.952 80.9792 486.281 80.3011C486.615 79.6231 487.077 79.0966 487.668 78.7216C488.262 78.3466 488.954 78.1591 489.741 78.1591C490.529 78.1591 491.219 78.3466 491.81 78.7216C492.404 79.0966 492.866 79.6231 493.196 80.3011C493.529 80.9792 493.696 81.7727 493.696 82.6818C493.696 83.5833 493.529 84.3712 493.196 85.0455C492.866 85.7197 492.404 86.2443 491.81 86.6193C491.219 86.9943 490.529 87.1818 489.741 87.1818ZM489.741 85.9773C490.34 85.9773 490.832 85.8239 491.219 85.517C491.605 85.2102 491.891 84.8068 492.077 84.3068C492.262 83.8068 492.355 83.2652 492.355 82.6818C492.355 82.0985 492.262 81.5549 492.077 81.0511C491.891 80.5473 491.605 80.1402 491.219 79.8295C490.832 79.5189 490.34 79.3636 489.741 79.3636C489.143 79.3636 488.651 79.5189 488.264 79.8295C487.878 80.1402 487.592 80.5473 487.406 81.0511C487.221 81.5549 487.128 82.0985 487.128 82.6818C487.128 83.2652 487.221 83.8068 487.406 84.3068C487.592 84.8068 487.878 85.2102 488.264 85.517C488.651 85.8239 489.143 85.9773 489.741 85.9773ZM499.629 78.2727V79.4091H494.925V78.2727H499.629ZM496.334 87V77.0682C496.334 76.5682 496.451 76.1515 496.686 75.8182C496.921 75.4848 497.226 75.2348 497.601 75.0682C497.976 74.9015 498.372 74.8182 498.788 74.8182C499.118 74.8182 499.387 74.8447 499.595 74.8977C499.804 74.9508 499.959 75 500.061 75.0455L499.675 76.2045C499.607 76.1818 499.512 76.1534 499.391 76.1193C499.273 76.0852 499.118 76.0682 498.925 76.0682C498.482 76.0682 498.161 76.1799 497.964 76.4034C497.771 76.6269 497.675 76.9545 497.675 77.3864V87H496.334ZM506.19 87V75.3636H510.122C511.035 75.3636 511.781 75.5284 512.361 75.858C512.944 76.1837 513.376 76.625 513.656 77.1818C513.937 77.7386 514.077 78.3598 514.077 79.0455C514.077 79.7311 513.937 80.3542 513.656 80.9148C513.38 81.4754 512.952 81.9223 512.372 82.2557C511.793 82.5852 511.05 82.75 510.145 82.75H507.327V81.5H510.099C510.724 81.5 511.226 81.392 511.605 81.1761C511.984 80.9602 512.259 80.6686 512.429 80.3011C512.603 79.9299 512.69 79.5114 512.69 79.0455C512.69 78.5795 512.603 78.1629 512.429 77.7955C512.259 77.428 511.982 77.1402 511.599 76.9318C511.217 76.7197 510.709 76.6136 510.077 76.6136H507.599V87H506.19ZM516.165 87V78.2727H517.46V79.5909H517.551C517.71 79.1591 517.998 78.8087 518.415 78.5398C518.831 78.2708 519.301 78.1364 519.824 78.1364C519.922 78.1364 520.045 78.1383 520.193 78.142C520.341 78.1458 520.453 78.1515 520.528 78.1591V79.5227C520.483 79.5114 520.379 79.4943 520.216 79.4716C520.057 79.4451 519.888 79.4318 519.71 79.4318C519.286 79.4318 518.907 79.5208 518.574 79.6989C518.244 79.8731 517.983 80.1155 517.79 80.4261C517.6 80.733 517.506 81.0833 517.506 81.4773V87H516.165ZM525.398 87.1818C524.61 87.1818 523.919 86.9943 523.324 86.6193C522.733 86.2443 522.271 85.7197 521.938 85.0455C521.608 84.3712 521.443 83.5833 521.443 82.6818C521.443 81.7727 521.608 80.9792 521.938 80.3011C522.271 79.6231 522.733 79.0966 523.324 78.7216C523.919 78.3466 524.61 78.1591 525.398 78.1591C526.186 78.1591 526.875 78.3466 527.466 78.7216C528.061 79.0966 528.523 79.6231 528.852 80.3011C529.186 80.9792 529.352 81.7727 529.352 82.6818C529.352 83.5833 529.186 84.3712 528.852 85.0455C528.523 85.7197 528.061 86.2443 527.466 86.6193C526.875 86.9943 526.186 87.1818 525.398 87.1818ZM525.398 85.9773C525.996 85.9773 526.489 85.8239 526.875 85.517C527.261 85.2102 527.547 84.8068 527.733 84.3068C527.919 83.8068 528.011 83.2652 528.011 82.6818C528.011 82.0985 527.919 81.5549 527.733 81.0511C527.547 80.5473 527.261 80.1402 526.875 79.8295C526.489 79.5189 525.996 79.3636 525.398 79.3636C524.799 79.3636 524.307 79.5189 523.92 79.8295C523.534 80.1402 523.248 80.5473 523.062 81.0511C522.877 81.5549 522.784 82.0985 522.784 82.6818C522.784 83.2652 522.877 83.8068 523.062 84.3068C523.248 84.8068 523.534 85.2102 523.92 85.517C524.307 85.8239 524.799 85.9773 525.398 85.9773ZM535.286 78.2727V79.4091H530.581V78.2727H535.286ZM531.99 87V77.0682C531.99 76.5682 532.107 76.1515 532.342 75.8182C532.577 75.4848 532.882 75.2348 533.257 75.0682C533.632 74.9015 534.028 74.8182 534.445 74.8182C534.774 74.8182 535.043 74.8447 535.251 74.8977C535.46 74.9508 535.615 75 535.717 75.0455L535.331 76.2045C535.263 76.1818 535.168 76.1534 535.047 76.1193C534.929 76.0852 534.774 76.0682 534.581 76.0682C534.138 76.0682 533.818 76.1799 533.621 76.4034C533.428 76.6269 533.331 76.9545 533.331 77.3864V87H531.99ZM537.165 87V78.2727H538.506V87H537.165ZM537.847 76.8182C537.585 76.8182 537.36 76.7292 537.17 76.5511C536.985 76.3731 536.892 76.1591 536.892 75.9091C536.892 75.6591 536.985 75.4451 537.17 75.267C537.36 75.089 537.585 75 537.847 75C538.108 75 538.331 75.089 538.517 75.267C538.706 75.4451 538.801 75.6591 538.801 75.9091C538.801 76.1591 538.706 76.3731 538.517 76.5511C538.331 76.7292 538.108 76.8182 537.847 76.8182ZM544.757 78.2727V79.4091H540.234V78.2727H544.757ZM541.553 76.1818H542.893V84.5C542.893 84.8788 542.948 85.1629 543.058 85.3523C543.172 85.5379 543.316 85.6629 543.49 85.7273C543.668 85.7879 543.856 85.8182 544.053 85.8182C544.2 85.8182 544.321 85.8106 544.416 85.7955C544.511 85.7765 544.587 85.7614 544.643 85.75L544.916 86.9545C544.825 86.9886 544.698 87.0227 544.536 87.0568C544.373 87.0947 544.166 87.1136 543.916 87.1136C543.537 87.1136 543.166 87.0322 542.803 86.8693C542.443 86.7064 542.143 86.4583 541.905 86.125C541.67 85.7917 541.553 85.3712 541.553 84.8636V76.1818ZM549.342 87.2045C548.789 87.2045 548.287 87.1004 547.837 86.892C547.386 86.6799 547.028 86.375 546.763 85.9773C546.498 85.5758 546.365 85.0909 546.365 84.5227C546.365 84.0227 546.464 83.6174 546.661 83.3068C546.857 82.9924 547.121 82.7462 547.45 82.5682C547.78 82.3902 548.143 82.2576 548.541 82.1705C548.943 82.0795 549.346 82.0076 549.751 81.9545C550.282 81.8864 550.712 81.8352 551.041 81.8011C551.375 81.7633 551.617 81.7008 551.768 81.6136C551.924 81.5265 552.001 81.375 552.001 81.1591V81.1136C552.001 80.553 551.848 80.1174 551.541 79.8068C551.238 79.4962 550.778 79.3409 550.161 79.3409C549.52 79.3409 549.018 79.4811 548.655 79.7614C548.291 80.0417 548.036 80.3409 547.888 80.6591L546.615 80.2045C546.842 79.6742 547.145 79.2614 547.524 78.9659C547.907 78.6667 548.323 78.4583 548.774 78.3409C549.229 78.2197 549.676 78.1591 550.115 78.1591C550.395 78.1591 550.717 78.1932 551.081 78.2614C551.448 78.3258 551.803 78.4602 552.143 78.6648C552.488 78.8693 552.774 79.178 553.001 79.5909C553.229 80.0038 553.342 80.5568 553.342 81.25V87H552.001V85.8182H551.933C551.842 86.0076 551.691 86.2102 551.479 86.4261C551.267 86.642 550.984 86.8258 550.632 86.9773C550.28 87.1288 549.85 87.2045 549.342 87.2045ZM549.547 86C550.077 86 550.524 85.8958 550.888 85.6875C551.255 85.4792 551.532 85.2102 551.717 84.8807C551.907 84.5511 552.001 84.2045 552.001 83.8409V82.6136C551.945 82.6818 551.82 82.7443 551.626 82.8011C551.437 82.8542 551.217 82.9015 550.967 82.9432C550.721 82.9811 550.481 83.0152 550.246 83.0455C550.015 83.072 549.827 83.0947 549.683 83.1136C549.335 83.1591 549.009 83.233 548.706 83.3352C548.407 83.4337 548.164 83.5833 547.979 83.7841C547.797 83.9811 547.706 84.25 547.706 84.5909C547.706 85.0568 547.878 85.4091 548.223 85.6477C548.571 85.8826 549.013 86 549.547 86ZM555.972 87V75.3636H557.312V79.6591H557.426C557.525 79.5076 557.661 79.3144 557.835 79.0795C558.013 78.8409 558.267 78.6288 558.597 78.4432C558.93 78.2538 559.381 78.1591 559.949 78.1591C560.684 78.1591 561.331 78.3428 561.892 78.7102C562.453 79.0777 562.89 79.5985 563.205 80.2727C563.519 80.947 563.676 81.7424 563.676 82.6591C563.676 83.5833 563.519 84.3845 563.205 85.0625C562.89 85.7367 562.455 86.2595 561.898 86.6307C561.341 86.9981 560.699 87.1818 559.972 87.1818C559.411 87.1818 558.962 87.089 558.625 86.9034C558.288 86.714 558.028 86.5 557.847 86.2614C557.665 86.0189 557.525 85.8182 557.426 85.6591H557.267V87H555.972ZM557.29 82.6364C557.29 83.2955 557.386 83.8769 557.58 84.3807C557.773 84.8807 558.055 85.2727 558.426 85.5568C558.797 85.8371 559.252 85.9773 559.79 85.9773C560.35 85.9773 560.818 85.8295 561.193 85.5341C561.572 85.2348 561.856 84.8333 562.045 84.3295C562.239 83.822 562.335 83.2576 562.335 82.6364C562.335 82.0227 562.241 81.4697 562.051 80.9773C561.866 80.4811 561.583 80.089 561.205 79.8011C560.83 79.5095 560.358 79.3636 559.79 79.3636C559.244 79.3636 558.786 79.5019 558.415 79.7784C558.044 80.0511 557.763 80.4337 557.574 80.9261C557.384 81.4148 557.29 81.9848 557.29 82.6364ZM565.727 87V78.2727H567.068V87H565.727ZM566.409 76.8182C566.148 76.8182 565.922 76.7292 565.733 76.5511C565.547 76.3731 565.455 76.1591 565.455 75.9091C565.455 75.6591 565.547 75.4451 565.733 75.267C565.922 75.089 566.148 75 566.409 75C566.67 75 566.894 75.089 567.08 75.267C567.269 75.4451 567.364 75.6591 567.364 75.9091C567.364 76.1591 567.269 76.3731 567.08 76.5511C566.894 76.7292 566.67 76.8182 566.409 76.8182ZM570.865 75.3636V87H569.524V75.3636H570.865ZM573.321 87V78.2727H574.662V87H573.321ZM574.003 76.8182C573.741 76.8182 573.516 76.7292 573.327 76.5511C573.141 76.3731 573.048 76.1591 573.048 75.9091C573.048 75.6591 573.141 75.4451 573.327 75.267C573.516 75.089 573.741 75 574.003 75C574.264 75 574.488 75.089 574.673 75.267C574.863 75.4451 574.957 75.6591 574.957 75.9091C574.957 76.1591 574.863 76.3731 574.673 76.5511C574.488 76.7292 574.264 76.8182 574.003 76.8182ZM580.913 78.2727V79.4091H576.391V78.2727H580.913ZM577.709 76.1818H579.05V84.5C579.05 84.8788 579.105 85.1629 579.214 85.3523C579.328 85.5379 579.472 85.6629 579.646 85.7273C579.824 85.7879 580.012 85.8182 580.209 85.8182C580.357 85.8182 580.478 85.8106 580.572 85.7955C580.667 85.7765 580.743 85.7614 580.8 85.75L581.072 86.9545C580.982 86.9886 580.855 87.0227 580.692 87.0568C580.529 87.0947 580.322 87.1136 580.072 87.1136C579.694 87.1136 579.322 87.0322 578.959 86.8693C578.599 86.7064 578.3 86.4583 578.061 86.125C577.826 85.7917 577.709 85.3712 577.709 84.8636V76.1818ZM583.794 90.2727C583.567 90.2727 583.364 90.2538 583.186 90.2159C583.008 90.1818 582.885 90.1477 582.817 90.1136L583.158 88.9318C583.483 89.0152 583.771 89.0455 584.021 89.0227C584.271 89 584.493 88.8883 584.686 88.6875C584.883 88.4905 585.063 88.1705 585.226 87.7273L585.476 87.0455L582.249 78.2727H583.703L586.112 85.2273H586.203L588.612 78.2727H590.067L586.362 88.2727C586.196 88.7235 585.989 89.0966 585.743 89.392C585.497 89.6913 585.211 89.9129 584.885 90.0568C584.563 90.2008 584.199 90.2727 583.794 90.2727Z" fill="#6B7280"/>
<path d="M311.276 56V29.8182H321.605C323.591 29.8182 325.283 30.1974 326.68 30.956C328.078 31.706 329.143 32.75 329.876 34.0881C330.618 35.4176 330.989 36.9517 330.989 38.6903C330.989 40.429 330.614 41.9631 329.864 43.2926C329.114 44.6222 328.027 45.6577 326.604 46.3991C325.189 47.1406 323.476 47.5114 321.464 47.5114H314.881V43.0753H320.57C321.635 43.0753 322.513 42.892 323.203 42.5256C323.902 42.1506 324.422 41.6349 324.763 40.9787C325.112 40.3139 325.287 39.5511 325.287 38.6903C325.287 37.821 325.112 37.0625 324.763 36.4148C324.422 35.7585 323.902 35.2514 323.203 34.8935C322.504 34.527 321.618 34.3438 320.544 34.3438H316.811V56H311.276ZM334.482 56V36.3636H339.762V39.7898H339.966C340.324 38.571 340.925 37.6506 341.769 37.0284C342.613 36.3977 343.584 36.0824 344.684 36.0824C344.956 36.0824 345.25 36.0994 345.566 36.1335C345.881 36.1676 346.158 36.2145 346.397 36.2741V41.1065C346.141 41.0298 345.787 40.9616 345.336 40.902C344.884 40.8423 344.471 40.8125 344.096 40.8125C343.294 40.8125 342.578 40.9872 341.948 41.3366C341.326 41.6776 340.831 42.1548 340.465 42.7685C340.107 43.3821 339.928 44.0895 339.928 44.8906V56H334.482ZM357.17 56.3835C355.185 56.3835 353.467 55.9616 352.018 55.1179C350.578 54.2656 349.466 53.081 348.682 51.5639C347.898 50.0384 347.506 48.2699 347.506 46.2585C347.506 44.2301 347.898 42.4574 348.682 40.9403C349.466 39.4148 350.578 38.2301 352.018 37.3864C353.467 36.5341 355.185 36.108 357.17 36.108C359.156 36.108 360.869 36.5341 362.31 37.3864C363.759 38.2301 364.875 39.4148 365.659 40.9403C366.443 42.4574 366.835 44.2301 366.835 46.2585C366.835 48.2699 366.443 50.0384 365.659 51.5639C364.875 53.081 363.759 54.2656 362.31 55.1179C360.869 55.9616 359.156 56.3835 357.17 56.3835ZM357.196 52.1648C358.099 52.1648 358.854 51.9091 359.459 51.3977C360.064 50.8778 360.52 50.1705 360.827 49.2756C361.142 48.3807 361.3 47.3622 361.3 46.2202C361.3 45.0781 361.142 44.0597 360.827 43.1648C360.52 42.2699 360.064 41.5625 359.459 41.0426C358.854 40.5227 358.099 40.2628 357.196 40.2628C356.284 40.2628 355.517 40.5227 354.895 41.0426C354.281 41.5625 353.817 42.2699 353.501 43.1648C353.195 44.0597 353.041 45.0781 353.041 46.2202C353.041 47.3622 353.195 48.3807 353.501 49.2756C353.817 50.1705 354.281 50.8778 354.895 51.3977C355.517 51.9091 356.284 52.1648 357.196 52.1648ZM370.376 56V36.3636H375.567V39.8281H375.797C376.206 38.6776 376.888 37.7699 377.842 37.1051C378.797 36.4403 379.939 36.108 381.268 36.108C382.615 36.108 383.761 36.4446 384.707 37.1179C385.653 37.7827 386.284 38.6861 386.599 39.8281H386.804C387.205 38.7031 387.929 37.804 388.977 37.1307C390.034 36.4489 391.283 36.108 392.723 36.108C394.555 36.108 396.043 36.6918 397.185 37.8594C398.335 39.0185 398.911 40.6634 398.911 42.794V56H393.477V43.8679C393.477 42.777 393.188 41.9588 392.608 41.4134C392.028 40.8679 391.304 40.5952 390.435 40.5952C389.446 40.5952 388.675 40.9105 388.121 41.5412C387.567 42.1634 387.29 42.9858 387.29 44.0085V56H382.01V43.7528C382.01 42.7898 381.733 42.0227 381.179 41.4517C380.634 40.8807 379.913 40.5952 379.018 40.5952C378.413 40.5952 377.868 40.7486 377.382 41.0554C376.905 41.3537 376.526 41.7756 376.244 42.321C375.963 42.858 375.822 43.4886 375.822 44.2131V56H370.376ZM412.085 56.3835C410.099 56.3835 408.381 55.9616 406.933 55.1179C405.492 54.2656 404.38 53.081 403.596 51.5639C402.812 50.0384 402.42 48.2699 402.42 46.2585C402.42 44.2301 402.812 42.4574 403.596 40.9403C404.38 39.4148 405.492 38.2301 406.933 37.3864C408.381 36.5341 410.099 36.108 412.085 36.108C414.07 36.108 415.783 36.5341 417.224 37.3864C418.673 38.2301 419.789 39.4148 420.573 40.9403C421.357 42.4574 421.749 44.2301 421.749 46.2585C421.749 48.2699 421.357 50.0384 420.573 51.5639C419.789 53.081 418.673 54.2656 417.224 55.1179C415.783 55.9616 414.07 56.3835 412.085 56.3835ZM412.11 52.1648C413.013 52.1648 413.768 51.9091 414.373 51.3977C414.978 50.8778 415.434 50.1705 415.741 49.2756C416.056 48.3807 416.214 47.3622 416.214 46.2202C416.214 45.0781 416.056 44.0597 415.741 43.1648C415.434 42.2699 414.978 41.5625 414.373 41.0426C413.768 40.5227 413.013 40.2628 412.11 40.2628C411.198 40.2628 410.431 40.5227 409.809 41.0426C409.195 41.5625 408.731 42.2699 408.415 43.1648C408.109 44.0597 407.955 45.0781 407.955 46.2202C407.955 47.3622 408.109 48.3807 408.415 49.2756C408.731 50.1705 409.195 50.8778 409.809 51.3977C410.431 51.9091 411.198 52.1648 412.11 52.1648ZM435.735 36.3636V40.4545H423.91V36.3636H435.735ZM426.594 31.6591H432.04V49.9659C432.04 50.4687 432.117 50.8608 432.271 51.142C432.424 51.4148 432.637 51.6065 432.91 51.7173C433.191 51.8281 433.515 51.8835 433.881 51.8835C434.137 51.8835 434.393 51.8622 434.648 51.8196C434.904 51.7685 435.1 51.7301 435.237 51.7045L436.093 55.7571C435.82 55.8423 435.437 55.9403 434.942 56.0511C434.448 56.1705 433.847 56.2429 433.14 56.2685C431.827 56.3196 430.677 56.1449 429.688 55.7443C428.708 55.3437 427.945 54.7216 427.4 53.8778C426.854 53.0341 426.586 51.9687 426.594 50.6818V31.6591ZM439.283 56V36.3636H444.729V56H439.283ZM442.018 33.8324C441.209 33.8324 440.514 33.5639 439.935 33.027C439.364 32.4815 439.078 31.8295 439.078 31.071C439.078 30.321 439.364 29.6776 439.935 29.1406C440.514 28.5952 441.209 28.3224 442.018 28.3224C442.828 28.3224 443.518 28.5952 444.089 29.1406C444.669 29.6776 444.959 30.321 444.959 31.071C444.959 31.8295 444.669 32.4815 444.089 33.027C443.518 33.5639 442.828 33.8324 442.018 33.8324ZM457.963 56.3835C455.978 56.3835 454.26 55.9616 452.811 55.1179C451.371 54.2656 450.259 53.081 449.475 51.5639C448.691 50.0384 448.299 48.2699 448.299 46.2585C448.299 44.2301 448.691 42.4574 449.475 40.9403C450.259 39.4148 451.371 38.2301 452.811 37.3864C454.26 36.5341 455.978 36.108 457.963 36.108C459.949 36.108 461.662 36.5341 463.103 37.3864C464.551 38.2301 465.668 39.4148 466.452 40.9403C467.236 42.4574 467.628 44.2301 467.628 46.2585C467.628 48.2699 467.236 50.0384 466.452 51.5639C465.668 53.081 464.551 54.2656 463.103 55.1179C461.662 55.9616 459.949 56.3835 457.963 56.3835ZM457.989 52.1648C458.892 52.1648 459.647 51.9091 460.252 51.3977C460.857 50.8778 461.313 50.1705 461.62 49.2756C461.935 48.3807 462.093 47.3622 462.093 46.2202C462.093 45.0781 461.935 44.0597 461.62 43.1648C461.313 42.2699 460.857 41.5625 460.252 41.0426C459.647 40.5227 458.892 40.2628 457.989 40.2628C457.077 40.2628 456.31 40.5227 455.688 41.0426C455.074 41.5625 454.61 42.2699 454.294 43.1648C453.988 44.0597 453.834 45.0781 453.834 46.2202C453.834 47.3622 453.988 48.3807 454.294 49.2756C454.61 50.1705 455.074 50.8778 455.688 51.3977C456.31 51.9091 457.077 52.1648 457.989 52.1648ZM476.615 44.6477V56H471.169V36.3636H476.36V39.8281H476.59C477.025 38.6861 477.753 37.7827 478.776 37.1179C479.799 36.4446 481.039 36.108 482.496 36.108C483.86 36.108 485.049 36.4062 486.063 37.0028C487.077 37.5994 487.865 38.4517 488.428 39.5597C488.99 40.6591 489.272 41.9716 489.272 43.4972V56H483.826V44.4688C483.834 43.267 483.527 42.3295 482.905 41.6562C482.283 40.9744 481.426 40.6335 480.336 40.6335C479.603 40.6335 478.955 40.7912 478.392 41.1065C477.838 41.4219 477.404 41.8821 477.088 42.4872C476.782 43.0838 476.624 43.804 476.615 44.6477ZM499.163 56.3707C497.911 56.3707 496.794 56.1534 495.814 55.7188C494.834 55.2756 494.058 54.6236 493.487 53.7628C492.925 52.8935 492.643 51.8111 492.643 50.5156C492.643 49.4247 492.844 48.5085 493.244 47.767C493.645 47.0256 494.19 46.429 494.881 45.9773C495.571 45.5256 496.355 45.1847 497.233 44.9545C498.119 44.7244 499.048 44.5625 500.02 44.4688C501.162 44.3494 502.082 44.2386 502.781 44.1364C503.48 44.0256 503.987 43.8636 504.303 43.6506C504.618 43.4375 504.776 43.1222 504.776 42.7045V42.6278C504.776 41.8182 504.52 41.1918 504.009 40.7486C503.506 40.3054 502.79 40.0838 501.861 40.0838C500.881 40.0838 500.101 40.3011 499.521 40.7358C498.942 41.1619 498.558 41.6989 498.371 42.3466L493.334 41.9375C493.589 40.7443 494.092 39.7131 494.842 38.8438C495.592 37.9659 496.56 37.2926 497.744 36.8239C498.938 36.3466 500.318 36.108 501.886 36.108C502.977 36.108 504.021 36.2358 505.018 36.4915C506.024 36.7472 506.915 37.1435 507.69 37.6804C508.474 38.2173 509.092 38.9077 509.544 39.7514C509.996 40.5866 510.222 41.5881 510.222 42.7557V56H505.057V53.277H504.903C504.588 53.8906 504.166 54.4318 503.638 54.9006C503.109 55.3608 502.474 55.723 501.733 55.9872C500.991 56.2429 500.135 56.3707 499.163 56.3707ZM500.723 52.6122C501.524 52.6122 502.232 52.4545 502.845 52.1392C503.459 51.8153 503.94 51.3807 504.29 50.8352C504.639 50.2898 504.814 49.6719 504.814 48.9815V46.8977C504.643 47.0085 504.409 47.1108 504.111 47.2045C503.821 47.2898 503.493 47.3707 503.126 47.4474C502.76 47.5156 502.393 47.5795 502.027 47.6392C501.661 47.6903 501.328 47.7372 501.03 47.7798C500.391 47.8736 499.832 48.0227 499.355 48.2273C498.878 48.4318 498.507 48.7088 498.243 49.0582C497.979 49.3991 497.847 49.8253 497.847 50.3366C497.847 51.0781 498.115 51.6449 498.652 52.0369C499.197 52.4205 499.888 52.6122 500.723 52.6122ZM519.893 29.8182V56H514.447V29.8182H519.893ZM532.69 56V29.8182H550.332V34.3821H538.225V40.6207H549.424V45.1847H538.225V51.4361H550.383V56H532.69ZM565.19 36.3636V40.4545H553.071V36.3636H565.19ZM555.845 56V34.9446C555.845 33.5213 556.122 32.3409 556.676 31.4034C557.238 30.4659 558.005 29.7628 558.977 29.294C559.949 28.8253 561.052 28.5909 562.288 28.5909C563.123 28.5909 563.886 28.6548 564.576 28.7827C565.275 28.9105 565.795 29.0256 566.136 29.1278L565.164 33.2188C564.951 33.1506 564.687 33.0866 564.372 33.027C564.065 32.9673 563.75 32.9375 563.426 32.9375C562.625 32.9375 562.066 33.125 561.751 33.5C561.436 33.8665 561.278 34.3821 561.278 35.0469V56H555.845ZM579.077 36.3636V40.4545H566.957V36.3636H579.077ZM569.732 56V34.9446C569.732 33.5213 570.009 32.3409 570.562 31.4034C571.125 30.4659 571.892 29.7628 572.864 29.294C573.835 28.8253 574.939 28.5909 576.175 28.5909C577.01 28.5909 577.773 28.6548 578.463 28.7827C579.162 28.9105 579.682 29.0256 580.023 29.1278L579.051 33.2188C578.838 33.1506 578.574 33.0866 578.259 33.027C577.952 32.9673 577.636 32.9375 577.312 32.9375C576.511 32.9375 575.953 33.125 575.638 33.5C575.322 33.8665 575.165 34.3821 575.165 35.0469V56H569.732ZM590.65 56.3835C588.63 56.3835 586.891 55.9744 585.434 55.1562C583.985 54.3295 582.868 53.1619 582.084 51.6534C581.3 50.1364 580.908 48.3423 580.908 46.2713C580.908 44.2514 581.3 42.4787 582.084 40.9531C582.868 39.4276 583.972 38.2386 585.395 37.3864C586.827 36.5341 588.506 36.108 590.432 36.108C591.728 36.108 592.934 36.3168 594.05 36.7344C595.175 37.1435 596.155 37.7614 596.99 38.5881C597.834 39.4148 598.49 40.4545 598.959 41.7074C599.428 42.9517 599.662 44.4091 599.662 46.0795V47.5753H583.081V44.2003H594.536C594.536 43.4162 594.365 42.7216 594.025 42.1165C593.684 41.5114 593.211 41.0384 592.605 40.6974C592.009 40.348 591.314 40.1733 590.522 40.1733C589.695 40.1733 588.962 40.3651 588.323 40.7486C587.692 41.1236 587.198 41.6307 586.84 42.2699C586.482 42.9006 586.299 43.6037 586.29 44.3793V47.5881C586.29 48.5597 586.469 49.3991 586.827 50.1065C587.194 50.8139 587.709 51.3594 588.374 51.7429C589.039 52.1264 589.827 52.3182 590.739 52.3182C591.344 52.3182 591.898 52.233 592.401 52.0625C592.904 51.892 593.334 51.6364 593.692 51.2955C594.05 50.9545 594.323 50.5369 594.51 50.0426L599.547 50.375C599.292 51.5852 598.767 52.642 597.975 53.5455C597.191 54.4403 596.176 55.1392 594.932 55.642C593.696 56.1364 592.269 56.3835 590.65 56.3835ZM612.088 56.3835C610.077 56.3835 608.347 55.9574 606.898 55.1051C605.458 54.2443 604.35 53.0511 603.574 51.5256C602.807 50 602.424 48.2443 602.424 46.2585C602.424 44.2472 602.811 42.483 603.587 40.9659C604.371 39.4403 605.483 38.2514 606.924 37.3991C608.364 36.5384 610.077 36.108 612.063 36.108C613.776 36.108 615.276 36.419 616.563 37.0412C617.85 37.6634 618.868 38.5369 619.618 39.6619C620.368 40.7869 620.782 42.108 620.858 43.625H615.719C615.574 42.6449 615.191 41.8565 614.569 41.2599C613.955 40.6548 613.15 40.3523 612.152 40.3523C611.309 40.3523 610.571 40.5824 609.941 41.0426C609.319 41.4943 608.833 42.1548 608.483 43.0241C608.134 43.8935 607.959 44.946 607.959 46.1818C607.959 47.4347 608.13 48.5 608.471 49.3778C608.82 50.2557 609.31 50.9247 609.941 51.3849C610.571 51.8452 611.309 52.0753 612.152 52.0753C612.775 52.0753 613.333 51.9474 613.827 51.6918C614.33 51.4361 614.743 51.0653 615.067 50.5795C615.4 50.0852 615.617 49.4929 615.719 48.8026H620.858C620.773 50.3026 620.364 51.6236 619.631 52.7656C618.907 53.8991 617.905 54.7855 616.627 55.4247C615.348 56.0639 613.836 56.3835 612.088 56.3835ZM634.79 36.3636V40.4545H622.964V36.3636H634.79ZM625.649 31.6591H631.095V49.9659C631.095 50.4687 631.172 50.8608 631.325 51.142C631.479 51.4148 631.692 51.6065 631.964 51.7173C632.246 51.8281 632.57 51.8835 632.936 51.8835C633.192 51.8835 633.447 51.8622 633.703 51.8196C633.959 51.7685 634.155 51.7301 634.291 51.7045L635.148 55.7571C634.875 55.8423 634.491 55.9403 633.997 56.0511C633.503 56.1705 632.902 56.2429 632.195 56.2685C630.882 56.3196 629.732 56.1449 628.743 55.7443C627.763 55.3437 627 54.7216 626.455 53.8778C625.909 53.0341 625.641 51.9687 625.649 50.6818V31.6591ZM638.337 56V36.3636H643.783V56H638.337ZM641.073 33.8324C640.263 33.8324 639.569 33.5639 638.989 33.027C638.418 32.4815 638.133 31.8295 638.133 31.071C638.133 30.321 638.418 29.6776 638.989 29.1406C639.569 28.5952 640.263 28.3224 641.073 28.3224C641.883 28.3224 642.573 28.5952 643.144 29.1406C643.724 29.6776 644.013 30.321 644.013 31.071C644.013 31.8295 643.724 32.4815 643.144 33.027C642.573 33.5639 641.883 33.8324 641.073 33.8324ZM666.453 36.3636L659.588 56H653.451L646.586 36.3636H652.339L656.417 50.4134H656.622L660.687 36.3636H666.453ZM677.556 56.3835C675.536 56.3835 673.797 55.9744 672.34 55.1562C670.891 54.3295 669.775 53.1619 668.99 51.6534C668.206 50.1364 667.814 48.3423 667.814 46.2713C667.814 44.2514 668.206 42.4787 668.99 40.9531C669.775 39.4276 670.878 38.2386 672.301 37.3864C673.733 36.5341 675.412 36.108 677.338 36.108C678.634 36.108 679.84 36.3168 680.956 36.7344C682.081 37.1435 683.061 37.7614 683.897 38.5881C684.74 39.4148 685.397 40.4545 685.865 41.7074C686.334 42.9517 686.569 44.4091 686.569 46.0795V47.5753H669.988V44.2003H681.442C681.442 43.4162 681.272 42.7216 680.931 42.1165C680.59 41.5114 680.117 41.0384 679.512 40.6974C678.915 40.348 678.221 40.1733 677.428 40.1733C676.601 40.1733 675.868 40.3651 675.229 40.7486C674.598 41.1236 674.104 41.6307 673.746 42.2699C673.388 42.9006 673.205 43.6037 673.196 44.3793V47.5881C673.196 48.5597 673.375 49.3991 673.733 50.1065C674.1 50.8139 674.615 51.3594 675.28 51.7429C675.945 52.1264 676.733 52.3182 677.645 52.3182C678.25 52.3182 678.804 52.233 679.307 52.0625C679.81 51.892 680.24 51.6364 680.598 51.2955C680.956 50.9545 681.229 50.5369 681.417 50.0426L686.453 50.375C686.198 51.5852 685.674 52.642 684.881 53.5455C684.097 54.4403 683.083 55.1392 681.838 55.642C680.603 56.1364 679.175 56.3835 677.556 56.3835ZM695.569 44.6477V56H690.123V36.3636H695.313V39.8281H695.543C695.978 38.6861 696.706 37.7827 697.729 37.1179C698.752 36.4446 699.992 36.108 701.449 36.108C702.813 36.108 704.002 36.4062 705.016 37.0028C706.03 37.5994 706.819 38.4517 707.381 39.5597C707.944 40.6591 708.225 41.9716 708.225 43.4972V56H702.779V44.4688C702.787 43.267 702.48 42.3295 701.858 41.6562C701.236 40.9744 700.38 40.6335 699.289 40.6335C698.556 40.6335 697.908 40.7912 697.346 41.1065C696.792 41.4219 696.357 41.8821 696.042 42.4872C695.735 43.0838 695.577 43.804 695.569 44.6477ZM721.466 56.3835C719.446 56.3835 717.707 55.9744 716.25 55.1562C714.801 54.3295 713.685 53.1619 712.901 51.6534C712.116 50.1364 711.724 48.3423 711.724 46.2713C711.724 44.2514 712.116 42.4787 712.901 40.9531C713.685 39.4276 714.788 38.2386 716.212 37.3864C717.643 36.5341 719.322 36.108 721.249 36.108C722.544 36.108 723.75 36.3168 724.866 36.7344C725.991 37.1435 726.972 37.7614 727.807 38.5881C728.651 39.4148 729.307 40.4545 729.776 41.7074C730.244 42.9517 730.479 44.4091 730.479 46.0795V47.5753H713.898V44.2003H725.352C725.352 43.4162 725.182 42.7216 724.841 42.1165C724.5 41.5114 724.027 41.0384 723.422 40.6974C722.825 40.348 722.131 40.1733 721.338 40.1733C720.511 40.1733 719.778 40.3651 719.139 40.7486C718.509 41.1236 718.014 41.6307 717.656 42.2699C717.298 42.9006 717.115 43.6037 717.107 44.3793V47.5881C717.107 48.5597 717.286 49.3991 717.643 50.1065C718.01 50.8139 718.526 51.3594 719.19 51.7429C719.855 52.1264 720.643 52.3182 721.555 52.3182C722.161 52.3182 722.714 52.233 723.217 52.0625C723.72 51.892 724.151 51.6364 724.509 51.2955C724.866 50.9545 725.139 50.5369 725.327 50.0426L730.364 50.375C730.108 51.5852 729.584 52.642 728.791 53.5455C728.007 54.4403 726.993 55.1392 725.749 55.642C724.513 56.1364 723.085 56.3835 721.466 56.3835ZM750.371 41.9631L745.385 42.2699C745.3 41.8437 745.116 41.4602 744.835 41.1193C744.554 40.7699 744.183 40.4929 743.723 40.2884C743.271 40.0753 742.73 39.9688 742.099 39.9688C741.256 39.9688 740.544 40.1477 739.964 40.5057C739.385 40.8551 739.095 41.3239 739.095 41.9119C739.095 42.3807 739.283 42.777 739.658 43.1009C740.033 43.4247 740.676 43.6847 741.588 43.8807L745.142 44.5966C747.051 44.9886 748.474 45.6193 749.412 46.4886C750.349 47.358 750.818 48.5 750.818 49.9148C750.818 51.2017 750.439 52.331 749.68 53.3026C748.93 54.2741 747.899 55.0327 746.587 55.5781C745.283 56.1151 743.778 56.3835 742.074 56.3835C739.474 56.3835 737.403 55.8423 735.861 54.7599C734.327 53.669 733.428 52.1861 733.163 50.3111L738.52 50.0298C738.682 50.8224 739.074 51.4276 739.696 51.8452C740.318 52.2543 741.115 52.4588 742.087 52.4588C743.041 52.4588 743.808 52.2756 744.388 51.9091C744.976 51.5341 745.274 51.0526 745.283 50.4645C745.274 49.9702 745.065 49.5653 744.656 49.25C744.247 48.9261 743.616 48.679 742.764 48.5085L739.364 47.831C737.446 47.4474 736.018 46.7827 735.081 45.8366C734.152 44.8906 733.688 43.6847 733.688 42.2188C733.688 40.9574 734.028 39.8707 734.71 38.9588C735.401 38.0469 736.368 37.3438 737.612 36.8494C738.865 36.3551 740.331 36.108 742.01 36.108C744.49 36.108 746.442 36.6321 747.865 37.6804C749.297 38.7287 750.132 40.1562 750.371 41.9631ZM770.586 41.9631L765.6 42.2699C765.515 41.8437 765.331 41.4602 765.05 41.1193C764.769 40.7699 764.398 40.4929 763.938 40.2884C763.486 40.0753 762.945 39.9688 762.314 39.9688C761.471 39.9688 760.759 40.1477 760.179 40.5057C759.6 40.8551 759.31 41.3239 759.31 41.9119C759.31 42.3807 759.498 42.777 759.873 43.1009C760.248 43.4247 760.891 43.6847 761.803 43.8807L765.357 44.5966C767.266 44.9886 768.689 45.6193 769.627 46.4886C770.564 47.358 771.033 48.5 771.033 49.9148C771.033 51.2017 770.654 52.331 769.895 53.3026C769.145 54.2741 768.114 55.0327 766.801 55.5781C765.498 56.1151 763.993 56.3835 762.289 56.3835C759.689 56.3835 757.618 55.8423 756.076 54.7599C754.542 53.669 753.642 52.1861 753.378 50.3111L758.735 50.0298C758.897 50.8224 759.289 51.4276 759.911 51.8452C760.533 52.2543 761.33 52.4588 762.301 52.4588C763.256 52.4588 764.023 52.2756 764.603 51.9091C765.191 51.5341 765.489 51.0526 765.498 50.4645C765.489 49.9702 765.28 49.5653 764.871 49.25C764.462 48.9261 763.831 48.679 762.979 48.5085L759.578 47.831C757.661 47.4474 756.233 46.7827 755.296 45.8366C754.367 44.8906 753.902 43.6847 753.902 42.2188C753.902 40.9574 754.243 39.8707 754.925 38.9588C755.615 38.0469 756.583 37.3438 757.827 36.8494C759.08 36.3551 760.546 36.108 762.225 36.108C764.705 36.108 766.657 36.6321 768.08 37.6804C769.512 38.7287 770.347 40.1562 770.586 41.9631ZM790.823 56.3835C789.016 56.3835 787.456 56.0597 786.144 55.4119C784.831 54.7642 783.821 53.8864 783.114 52.7784C782.415 51.6619 782.066 50.4176 782.066 49.0455C782.066 48.0227 782.27 47.1151 782.679 46.3224C783.088 45.5298 783.659 44.8011 784.392 44.1364C785.125 43.4631 785.978 42.794 786.949 42.1293L792.025 38.7926C792.681 38.375 793.162 37.9361 793.469 37.4759C793.776 37.0071 793.929 36.5 793.929 35.9545C793.929 35.4347 793.721 34.9531 793.303 34.5099C792.885 34.0668 792.293 33.8494 791.526 33.858C791.015 33.858 790.571 33.973 790.196 34.2031C789.821 34.4247 789.527 34.7187 789.314 35.0852C789.11 35.4432 789.007 35.8438 789.007 36.2869C789.007 36.8324 789.161 37.3864 789.468 37.9489C789.775 38.5114 790.184 39.108 790.695 39.7386C791.206 40.3608 791.765 41.0341 792.37 41.7585L804.783 56H799.107L788.752 44.4688C788.07 43.6932 787.388 42.8835 786.706 42.0398C786.033 41.1875 785.471 40.2841 785.019 39.3295C784.567 38.3665 784.341 37.3224 784.341 36.1974C784.341 34.9276 784.635 33.7855 785.223 32.7713C785.82 31.7571 786.655 30.956 787.729 30.3679C788.803 29.7713 790.056 29.473 791.488 29.473C792.885 29.473 794.091 29.7585 795.105 30.3295C796.128 30.892 796.912 31.642 797.458 32.5795C798.012 33.5085 798.289 34.5312 798.289 35.6477C798.289 36.8835 797.982 38.0043 797.368 39.0099C796.763 40.0071 795.911 40.902 794.811 41.6946L789.468 45.5426C788.743 46.071 788.206 46.6122 787.857 47.1662C787.516 47.7116 787.346 48.2358 787.346 48.7386C787.346 49.3608 787.499 49.919 787.806 50.4134C788.113 50.9077 788.547 51.2997 789.11 51.5895C789.672 51.8707 790.333 52.0114 791.091 52.0114C792.012 52.0114 792.919 51.8026 793.814 51.3849C794.718 50.9588 795.536 50.358 796.269 49.5824C797.01 48.7983 797.603 47.8693 798.046 46.7955C798.489 45.7216 798.711 44.5327 798.711 43.2287H803.223C803.223 44.831 803.049 46.2756 802.699 47.5625C802.35 48.8409 801.864 49.9574 801.242 50.9119C800.62 51.858 799.908 52.6335 799.107 53.2386C798.851 53.4006 798.604 53.554 798.365 53.6989C798.127 53.8438 797.88 53.9972 797.624 54.1591C796.652 54.9432 795.566 55.5099 794.364 55.8594C793.171 56.2088 791.99 56.3835 790.823 56.3835ZM815.487 56V29.8182H825.969C827.896 29.8182 829.502 30.1037 830.789 30.6747C832.076 31.2457 833.043 32.0384 833.691 33.0526C834.339 34.0582 834.663 35.2173 834.663 36.5298C834.663 37.5526 834.458 38.4517 834.049 39.2273C833.64 39.9943 833.077 40.625 832.362 41.1193C831.654 41.6051 830.844 41.9503 829.933 42.1548V42.4105C830.93 42.4531 831.863 42.7344 832.732 43.2543C833.61 43.7741 834.322 44.5028 834.867 45.4403C835.413 46.3693 835.685 47.4773 835.685 48.7642C835.685 50.1534 835.34 51.3935 834.65 52.4844C833.968 53.5668 832.958 54.4233 831.62 55.054C830.282 55.6847 828.633 56 826.673 56H815.487ZM821.022 51.4744H825.535C827.077 51.4744 828.202 51.1804 828.91 50.5923C829.617 49.9957 829.971 49.2031 829.971 48.2145C829.971 47.4901 829.796 46.8509 829.447 46.2969C829.097 45.7429 828.599 45.3082 827.951 44.9929C827.312 44.6776 826.549 44.5199 825.663 44.5199H821.022V51.4744ZM821.022 40.7741H825.126C825.884 40.7741 826.558 40.642 827.146 40.3778C827.742 40.1051 828.211 39.7216 828.552 39.2273C828.901 38.733 829.076 38.1406 829.076 37.4503C829.076 36.5043 828.739 35.7415 828.066 35.1619C827.401 34.5824 826.455 34.2926 825.228 34.2926H821.022V40.7741ZM839.185 56V36.3636H844.465V39.7898H844.669C845.027 38.571 845.628 37.6506 846.472 37.0284C847.316 36.3977 848.287 36.0824 849.387 36.0824C849.659 36.0824 849.953 36.0994 850.269 36.1335C850.584 36.1676 850.861 36.2145 851.1 36.2741V41.1065C850.844 41.0298 850.49 40.9616 850.039 40.902C849.587 40.8423 849.174 40.8125 848.799 40.8125C847.998 40.8125 847.282 40.9872 846.651 41.3366C846.029 41.6776 845.534 42.1548 845.168 42.7685C844.81 43.3821 844.631 44.0895 844.631 44.8906V56H839.185ZM858.952 56.3707C857.7 56.3707 856.583 56.1534 855.603 55.7188C854.623 55.2756 853.847 54.6236 853.276 53.7628C852.714 52.8935 852.433 51.8111 852.433 50.5156C852.433 49.4247 852.633 48.5085 853.033 47.767C853.434 47.0256 853.979 46.429 854.67 45.9773C855.36 45.5256 856.144 45.1847 857.022 44.9545C857.908 44.7244 858.837 44.5625 859.809 44.4688C860.951 44.3494 861.871 44.2386 862.57 44.1364C863.269 44.0256 863.776 43.8636 864.092 43.6506C864.407 43.4375 864.565 43.1222 864.565 42.7045V42.6278C864.565 41.8182 864.309 41.1918 863.798 40.7486C863.295 40.3054 862.579 40.0838 861.65 40.0838C860.67 40.0838 859.89 40.3011 859.31 40.7358C858.731 41.1619 858.347 41.6989 858.16 42.3466L853.123 41.9375C853.379 40.7443 853.881 39.7131 854.631 38.8438C855.381 37.9659 856.349 37.2926 857.533 36.8239C858.727 36.3466 860.107 36.108 861.675 36.108C862.766 36.108 863.81 36.2358 864.808 36.4915C865.813 36.7472 866.704 37.1435 867.479 37.6804C868.263 38.2173 868.881 38.9077 869.333 39.7514C869.785 40.5866 870.011 41.5881 870.011 42.7557V56H864.846V53.277H864.692C864.377 53.8906 863.955 54.4318 863.427 54.9006C862.898 55.3608 862.263 55.723 861.522 55.9872C860.781 56.2429 859.924 56.3707 858.952 56.3707ZM860.512 52.6122C861.313 52.6122 862.021 52.4545 862.634 52.1392C863.248 51.8153 863.729 51.3807 864.079 50.8352C864.428 50.2898 864.603 49.6719 864.603 48.9815V46.8977C864.433 47.0085 864.198 47.1108 863.9 47.2045C863.61 47.2898 863.282 47.3707 862.915 47.4474C862.549 47.5156 862.183 47.5795 861.816 47.6392C861.45 47.6903 861.117 47.7372 860.819 47.7798C860.18 47.8736 859.621 48.0227 859.144 48.2273C858.667 48.4318 858.296 48.7088 858.032 49.0582C857.768 49.3991 857.636 49.8253 857.636 50.3366C857.636 51.0781 857.904 51.6449 858.441 52.0369C858.987 52.4205 859.677 52.6122 860.512 52.6122ZM879.682 44.6477V56H874.236V36.3636H879.426V39.8281H879.656C880.091 38.6861 880.82 37.7827 881.842 37.1179C882.865 36.4446 884.105 36.108 885.562 36.108C886.926 36.108 888.115 36.4062 889.129 37.0028C890.143 37.5994 890.932 38.4517 891.494 39.5597C892.057 40.6591 892.338 41.9716 892.338 43.4972V56H886.892V44.4688C886.901 43.267 886.594 42.3295 885.972 41.6562C885.349 40.9744 884.493 40.6335 883.402 40.6335C882.669 40.6335 882.021 40.7912 881.459 41.1065C880.905 41.4219 880.47 41.8821 880.155 42.4872C879.848 43.0838 879.69 43.804 879.682 44.6477ZM903.866 56.3196C902.375 56.3196 901.024 55.9361 899.814 55.169C898.612 54.3935 897.657 53.2557 896.95 51.7557C896.251 50.2472 895.902 48.3977 895.902 46.2074C895.902 43.9574 896.264 42.0866 896.988 40.5952C897.713 39.0952 898.676 37.9744 899.877 37.233C901.088 36.483 902.413 36.108 903.853 36.108C904.953 36.108 905.869 36.2955 906.602 36.6705C907.343 37.0369 907.94 37.4972 908.392 38.0511C908.852 38.5966 909.201 39.1335 909.44 39.6619H909.606V29.8182H915.039V56H909.67V52.8551H909.44C909.184 53.4006 908.822 53.9418 908.353 54.4787C907.893 55.0071 907.292 55.446 906.551 55.7955C905.818 56.1449 904.923 56.3196 903.866 56.3196ZM905.592 51.9858C906.47 51.9858 907.211 51.7472 907.816 51.2699C908.43 50.7841 908.899 50.1065 909.223 49.2372C909.555 48.3679 909.721 47.3494 909.721 46.1818C909.721 45.0142 909.559 44 909.235 43.1392C908.912 42.2784 908.443 41.6136 907.829 41.1449C907.216 40.6761 906.47 40.4418 905.592 40.4418C904.697 40.4418 903.943 40.6847 903.329 41.1705C902.716 41.6562 902.251 42.3295 901.936 43.1903C901.62 44.0511 901.463 45.0483 901.463 46.1818C901.463 47.3239 901.62 48.3338 901.936 49.2116C902.26 50.081 902.724 50.7628 903.329 51.2571C903.943 51.7429 904.697 51.9858 905.592 51.9858ZM942.154 37.348C942.052 36.3168 941.613 35.5156 940.838 34.9446C940.062 34.3736 939.01 34.0881 937.68 34.0881C936.777 34.0881 936.014 34.2159 935.392 34.4716C934.77 34.7188 934.292 35.0639 933.96 35.5071C933.636 35.9503 933.474 36.4531 933.474 37.0156C933.457 37.4844 933.555 37.8935 933.768 38.2429C933.99 38.5923 934.292 38.8949 934.676 39.1506C935.059 39.3977 935.502 39.6151 936.005 39.8026C936.508 39.9815 937.045 40.1349 937.616 40.2628L939.968 40.8253C941.11 41.081 942.159 41.4219 943.113 41.848C944.068 42.2741 944.895 42.7983 945.593 43.4205C946.292 44.0426 946.833 44.7756 947.217 45.6193C947.609 46.4631 947.809 47.4304 947.818 48.5213C947.809 50.1236 947.4 51.5128 946.591 52.6889C945.789 53.8565 944.63 54.7642 943.113 55.4119C941.605 56.0511 939.785 56.3707 937.654 56.3707C935.541 56.3707 933.7 56.0469 932.132 55.3991C930.572 54.7514 929.353 53.7926 928.475 52.5227C927.606 51.2443 927.15 49.6634 927.108 47.7798H932.464C932.524 48.6577 932.775 49.3906 933.218 49.9787C933.67 50.5582 934.271 50.9972 935.021 51.2955C935.779 51.5852 936.636 51.7301 937.591 51.7301C938.528 51.7301 939.342 51.5937 940.032 51.321C940.731 51.0483 941.272 50.669 941.656 50.1832C942.039 49.6974 942.231 49.1392 942.231 48.5085C942.231 47.9205 942.056 47.4261 941.707 47.0256C941.366 46.625 940.863 46.2841 940.199 46.0028C939.542 45.7216 938.737 45.4659 937.782 45.2358L934.931 44.5199C932.724 43.983 930.981 43.1435 929.703 42.0014C928.424 40.8594 927.789 39.321 927.798 37.3864C927.789 35.8011 928.211 34.4162 929.064 33.2315C929.924 32.0469 931.105 31.1222 932.605 30.4574C934.105 29.7926 935.809 29.4602 937.718 29.4602C939.662 29.4602 941.358 29.7926 942.806 30.4574C944.264 31.1222 945.397 32.0469 946.207 33.2315C947.017 34.4162 947.434 35.7884 947.46 37.348H942.154ZM961.884 36.3636V40.4545H950.058V36.3636H961.884ZM952.743 31.6591H958.189V49.9659C958.189 50.4687 958.266 50.8608 958.419 51.142C958.572 51.4148 958.786 51.6065 959.058 51.7173C959.339 51.8281 959.663 51.8835 960.03 51.8835C960.286 51.8835 960.541 51.8622 960.797 51.8196C961.053 51.7685 961.249 51.7301 961.385 51.7045L962.241 55.7571C961.969 55.8423 961.585 55.9403 961.091 56.0511C960.597 56.1705 959.996 56.2429 959.288 56.2685C957.976 56.3196 956.825 56.1449 955.837 55.7443C954.857 55.3437 954.094 54.7216 953.548 53.8778C953.003 53.0341 952.734 51.9687 952.743 50.6818V31.6591ZM965.431 56V36.3636H970.711V39.7898H970.915C971.273 38.571 971.874 37.6506 972.718 37.0284C973.562 36.3977 974.533 36.0824 975.633 36.0824C975.906 36.0824 976.2 36.0994 976.515 36.1335C976.83 36.1676 977.107 36.2145 977.346 36.2741V41.1065C977.09 41.0298 976.737 40.9616 976.285 40.902C975.833 40.8423 975.42 40.8125 975.045 40.8125C974.244 40.8125 973.528 40.9872 972.897 41.3366C972.275 41.6776 971.781 42.1548 971.414 42.7685C971.056 43.3821 970.877 44.0895 970.877 44.8906V56H965.431ZM985.199 56.3707C983.946 56.3707 982.829 56.1534 981.849 55.7188C980.869 55.2756 980.093 54.6236 979.522 53.7628C978.96 52.8935 978.679 51.8111 978.679 50.5156C978.679 49.4247 978.879 48.5085 979.279 47.767C979.68 47.0256 980.225 46.429 980.916 45.9773C981.606 45.5256 982.39 45.1847 983.268 44.9545C984.154 44.7244 985.083 44.5625 986.055 44.4688C987.197 44.3494 988.118 44.2386 988.816 44.1364C989.515 44.0256 990.022 43.8636 990.338 43.6506C990.653 43.4375 990.811 43.1222 990.811 42.7045V42.6278C990.811 41.8182 990.555 41.1918 990.044 40.7486C989.541 40.3054 988.825 40.0838 987.896 40.0838C986.916 40.0838 986.136 40.3011 985.556 40.7358C984.977 41.1619 984.593 41.6989 984.406 42.3466L979.369 41.9375C979.625 40.7443 980.127 39.7131 980.877 38.8438C981.627 37.9659 982.595 37.2926 983.779 36.8239C984.973 36.3466 986.353 36.108 987.922 36.108C989.012 36.108 990.056 36.2358 991.054 36.4915C992.059 36.7472 992.95 37.1435 993.725 37.6804C994.51 38.2173 995.127 38.9077 995.579 39.7514C996.031 40.5866 996.257 41.5881 996.257 42.7557V56H991.092V53.277H990.939C990.623 53.8906 990.201 54.4318 989.673 54.9006C989.145 55.3608 988.51 55.723 987.768 55.9872C987.027 56.2429 986.17 56.3707 985.199 56.3707ZM986.758 52.6122C987.559 52.6122 988.267 52.4545 988.88 52.1392C989.494 51.8153 989.975 51.3807 990.325 50.8352C990.674 50.2898 990.849 49.6719 990.849 48.9815V46.8977C990.679 47.0085 990.444 47.1108 990.146 47.2045C989.856 47.2898 989.528 47.3707 989.162 47.4474C988.795 47.5156 988.429 47.5795 988.062 47.6392C987.696 47.6903 987.363 47.7372 987.065 47.7798C986.426 47.8736 985.868 48.0227 985.39 48.2273C984.913 48.4318 984.542 48.7088 984.278 49.0582C984.014 49.3991 983.882 49.8253 983.882 50.3366C983.882 51.0781 984.15 51.6449 984.687 52.0369C985.233 52.4205 985.923 52.6122 986.758 52.6122ZM1010.93 36.3636V40.4545H999.101V36.3636H1010.93ZM1001.79 31.6591H1007.23V49.9659C1007.23 50.4687 1007.31 50.8608 1007.46 51.142C1007.62 51.4148 1007.83 51.6065 1008.1 51.7173C1008.38 51.8281 1008.71 51.8835 1009.07 51.8835C1009.33 51.8835 1009.58 51.8622 1009.84 51.8196C1010.1 51.7685 1010.29 51.7301 1010.43 51.7045L1011.28 55.7571C1011.01 55.8423 1010.63 55.9403 1010.13 56.0511C1009.64 56.1705 1009.04 56.2429 1008.33 56.2685C1007.02 56.3196 1005.87 56.1449 1004.88 55.7443C1003.9 55.3437 1003.14 54.7216 1002.59 53.8778C1002.05 53.0341 1001.78 51.9687 1001.79 50.6818V31.6591ZM1023.21 56.3835C1021.19 56.3835 1019.45 55.9744 1018 55.1562C1016.55 54.3295 1015.43 53.1619 1014.65 51.6534C1013.86 50.1364 1013.47 48.3423 1013.47 46.2713C1013.47 44.2514 1013.86 42.4787 1014.65 40.9531C1015.43 39.4276 1016.53 38.2386 1017.96 37.3864C1019.39 36.5341 1021.07 36.108 1022.99 36.108C1024.29 36.108 1025.5 36.3168 1026.61 36.7344C1027.74 37.1435 1028.72 37.7614 1029.55 38.5881C1030.4 39.4148 1031.05 40.4545 1031.52 41.7074C1031.99 42.9517 1032.22 44.4091 1032.22 46.0795V47.5753H1015.64V44.2003H1027.1C1027.1 43.4162 1026.93 42.7216 1026.59 42.1165C1026.25 41.5114 1025.77 41.0384 1025.17 40.6974C1024.57 40.348 1023.88 40.1733 1023.08 40.1733C1022.26 40.1733 1021.52 40.3651 1020.89 40.7486C1020.25 41.1236 1019.76 41.6307 1019.4 42.2699C1019.04 42.9006 1018.86 43.6037 1018.85 44.3793V47.5881C1018.85 48.5597 1019.03 49.3991 1019.39 50.1065C1019.76 50.8139 1020.27 51.3594 1020.94 51.7429C1021.6 52.1264 1022.39 52.3182 1023.3 52.3182C1023.91 52.3182 1024.46 52.233 1024.96 52.0625C1025.47 51.892 1025.9 51.6364 1026.25 51.2955C1026.61 50.9545 1026.89 50.5369 1027.07 50.0426L1032.11 50.375C1031.85 51.5852 1031.33 52.642 1030.54 53.5455C1029.75 54.4403 1028.74 55.1392 1027.49 55.642C1026.26 56.1364 1024.83 56.3835 1023.21 56.3835ZM1044.63 63.7727C1042.86 63.7727 1041.35 63.5298 1040.09 63.044C1038.83 62.5668 1037.84 61.9148 1037.1 61.0881C1036.35 60.2614 1035.87 59.3324 1035.65 58.3011L1040.69 57.6236C1040.84 58.0156 1041.08 58.3821 1041.42 58.723C1041.75 59.0639 1042.19 59.3366 1042.73 59.5412C1043.29 59.7543 1043.96 59.8608 1044.75 59.8608C1045.94 59.8608 1046.91 59.571 1047.68 58.9915C1048.46 58.4205 1048.84 57.4616 1048.84 56.1151V52.5227H1048.61C1048.38 53.0682 1048.02 53.5838 1047.54 54.0696C1047.06 54.5554 1046.45 54.9517 1045.7 55.2585C1044.95 55.5653 1044.05 55.7188 1043.01 55.7188C1041.54 55.7188 1040.2 55.3778 1038.99 54.696C1037.79 54.0057 1036.83 52.9531 1036.11 51.5384C1035.4 50.1151 1035.05 48.3168 1035.05 46.1435C1035.05 43.919 1035.41 42.0611 1036.14 40.5696C1036.86 39.0781 1037.82 37.9616 1039.03 37.2202C1040.24 36.4787 1041.56 36.108 1043 36.108C1044.1 36.108 1045.02 36.2955 1045.76 36.6705C1046.5 37.0369 1047.1 37.4972 1047.55 38.0511C1048.01 38.5966 1048.37 39.1335 1048.61 39.6619H1048.82V36.3636H1054.23V56.1918C1054.23 57.8622 1053.82 59.2599 1053 60.3849C1052.18 61.5099 1051.05 62.3537 1049.6 62.9162C1048.16 63.4872 1046.5 63.7727 1044.63 63.7727ZM1044.74 51.6278C1045.62 51.6278 1046.36 51.4105 1046.96 50.9759C1047.58 50.5327 1048.05 49.902 1048.37 49.0838C1048.7 48.2571 1048.87 47.2685 1048.87 46.1179C1048.87 44.9673 1048.71 43.9702 1048.38 43.1264C1048.06 42.2741 1047.59 41.6136 1046.98 41.1449C1046.36 40.6761 1045.62 40.4418 1044.74 40.4418C1043.85 40.4418 1043.09 40.6847 1042.48 41.1705C1041.86 41.6477 1041.4 42.3125 1041.08 43.1648C1040.77 44.017 1040.61 45.0014 1040.61 46.1179C1040.61 47.2514 1040.77 48.2315 1041.08 49.0582C1041.41 49.8764 1041.87 50.5114 1042.48 50.9631C1043.09 51.4062 1043.85 51.6278 1044.74 51.6278ZM1061.92 63.3636C1061.23 63.3636 1060.58 63.3082 1059.98 63.1974C1059.38 63.0952 1058.89 62.9631 1058.5 62.8011L1059.72 58.7358C1060.36 58.9318 1060.94 59.0384 1061.45 59.0554C1061.97 59.0724 1062.42 58.9531 1062.79 58.6974C1063.18 58.4418 1063.49 58.0071 1063.72 57.3935L1064.04 56.5625L1057 36.3636H1062.73L1066.79 50.7841H1067L1071.1 36.3636H1076.87L1069.23 58.1222C1068.87 59.179 1068.37 60.0994 1067.74 60.8835C1067.12 61.6761 1066.33 62.2855 1065.37 62.7116C1064.42 63.1463 1063.27 63.3636 1061.92 63.3636Z" fill="#0F766E"/>
<g filter="url(#filter5_d_48_4)">
<rect width="271" height="1080" rx="12" fill="url(#paint5_linear_48_4)"/>
</g>
<defs>
<filter id="filter0_d_48_4" x="302" y="903" width="1587" height="167" filterUnits="userSpaceOnUse" color-interpolation-filters="sRGB">
<feFlood flood-opacity="0" result="BackgroundImageFix"/>
<feColorMatrix in="SourceAlpha" type="matrix" values="0 0 0 0 0 0 0 0 0 0 0 0 0 0 0 0 0 0 127 0" result="hardAlpha"/>
<feOffset dy="4"/>
<feGaussianBlur stdDeviation="2"/>
<feComposite in2="hardAlpha" operator="out"/>
<feColorMatrix type="matrix" values="0 0 0 0 0.86446 0 0 0 0 0.899038 0 0 0 0 0.896353 0 0 0 1 0"/>
<feBlend mode="normal" in2="BackgroundImageFix" result="effect1_dropShadow_48_4"/>
<feBlend mode="normal" in="SourceGraphic" in2="effect1_dropShadow_48_4" result="shape"/>
</filter>
<filter id="filter1_d_48_4" x="305" y="492" width="1581" height="400" filterUnits="userSpaceOnUse" color-interpolation-filters="sRGB">
<feFlood flood-opacity="0" result="BackgroundImageFix"/>
<feColorMatrix in="SourceAlpha" type="matrix" values="0 0 0 0 0 0 0 0 0 0 0 0 0 0 0 0 0 0 127 0" result="hardAlpha"/>
<feOffset dy="4"/>
<feGaussianBlur stdDeviation="2"/>
<feComposite in2="hardAlpha" operator="out"/>
<feColorMatrix type="matrix" values="0 0 0 0 0.86446 0 0 0 0 0.899038 0 0 0 0 0.896353 0 0 0 1 0"/>
<feBlend mode="normal" in2="BackgroundImageFix" result="effect1_dropShadow_48_4"/>
<feBlend mode="normal" in="SourceGraphic" in2="effect1_dropShadow_48_4" result="shape"/>
</filter>
<filter id="filter2_d_48_4" x="326" y="543" width="779" height="337" filterUnits="userSpaceOnUse" color-interpolation-filters="sRGB">
<feFlood flood-opacity="0" result="BackgroundImageFix"/>
<feColorMatrix in="SourceAlpha" type="matrix" values="0 0 0 0 0 0 0 0 0 0 0 0 0 0 0 0 0 0 127 0" result="hardAlpha"/>
<feOffset dy="4"/>
<feGaussianBlur stdDeviation="2"/>
<feComposite in2="hardAlpha" operator="out"/>
<feColorMatrix type="matrix" values="0 0 0 0 0.86446 0 0 0 0 0.899038 0 0 0 0 0.896353 0 0 0 1 0"/>
<feBlend mode="normal" in2="BackgroundImageFix" result="effect1_dropShadow_48_4"/>
<feBlend mode="normal" in="SourceGraphic" in2="effect1_dropShadow_48_4" result="shape"/>
</filter>
<filter id="filter3_d_48_4" x="1113" y="543" width="755" height="337" filterUnits="userSpaceOnUse" color-interpolation-filters="sRGB">
<feFlood flood-opacity="0" result="BackgroundImageFix"/>
<feColorMatrix in="SourceAlpha" type="matrix" values="0 0 0 0 0 0 0 0 0 0 0 0 0 0 0 0 0 0 127 0" result="hardAlpha"/>
<feOffset dy="4"/>
<feGaussianBlur stdDeviation="2"/>
<feComposite in2="hardAlpha" operator="out"/>
<feColorMatrix type="matrix" values="0 0 0 0 0.86446 0 0 0 0 0.899038 0 0 0 0 0.896353 0 0 0 1 0"/>
<feBlend mode="normal" in2="BackgroundImageFix" result="effect1_dropShadow_48_4"/>
<feBlend mode="normal" in="SourceGraphic" in2="effect1_dropShadow_48_4" result="shape"/>
</filter>
<filter id="filter4_d_48_4" x="308" y="122" width="1578" height="358" filterUnits="userSpaceOnUse" color-interpolation-filters="sRGB">
<feFlood flood-opacity="0" result="BackgroundImageFix"/>
<feColorMatrix in="SourceAlpha" type="matrix" values="0 0 0 0 0 0 0 0 0 0 0 0 0 0 0 0 0 0 127 0" result="hardAlpha"/>
<feOffset dy="4"/>
<feGaussianBlur stdDeviation="2"/>
<feComposite in2="hardAlpha" operator="out"/>
<feColorMatrix type="matrix" values="0 0 0 0 0.86446 0 0 0 0 0.899038 0 0 0 0 0.896353 0 0 0 1 0"/>
<feBlend mode="normal" in2="BackgroundImageFix" result="effect1_dropShadow_48_4"/>
<feBlend mode="normal" in="SourceGraphic" in2="effect1_dropShadow_48_4" result="shape"/>
</filter>
<filter id="filter5_d_48_4" x="0" y="0" width="275" height="1084" filterUnits="userSpaceOnUse" color-interpolation-filters="sRGB">
<feFlood flood-opacity="0" result="BackgroundImageFix"/>
<feColorMatrix in="SourceAlpha" type="matrix" values="0 0 0 0 0 0 0 0 0 0 0 0 0 0 0 0 0 0 127 0" result="hardAlpha"/>
<feOffset dx="4" dy="4"/>
<feComposite in2="hardAlpha" operator="out"/>
<feColorMatrix type="matrix" values="0 0 0 0 0 0 0 0 0 0 0 0 0 0 0 0 0 0 0.01 0"/>
<feBlend mode="normal" in2="BackgroundImageFix" result="effect1_dropShadow_48_4"/>
<feBlend mode="normal" in="SourceGraphic" in2="effect1_dropShadow_48_4" result="shape"/>
</filter>
<linearGradient id="paint0_linear_48_4" x1="988.974" y1="1059" x2="1134.01" y2="857.133" gradientUnits="userSpaceOnUse">
<stop stop-color="#DBEAFE"/>
<stop offset="1" stop-color="#BFDBFE"/>
</linearGradient>
<linearGradient id="paint1_linear_48_4" x1="663.557" y1="870" x2="852.038" y2="809.783" gradientUnits="userSpaceOnUse">
<stop stop-color="#F0FDFA"/>
<stop offset="1" stop-color="#CCFBF1"/>
</linearGradient>
<linearGradient id="paint2_linear_48_4" x1="1440.18" y1="870" x2="1623.81" y2="813.168" gradientUnits="userSpaceOnUse">
<stop stop-color="#F0FDFA"/>
<stop offset="1" stop-color="#CCFBF1"/>
</linearGradient>
<linearGradient id="paint3_linear_48_4" x1="463.5" y1="458" x2="703.732" y2="182.486" gradientUnits="userSpaceOnUse">
<stop stop-color="#FEF3C7"/>
<stop offset="1" stop-color="#FDE68A"/>
</linearGradient>
<linearGradient id="paint4_linear_48_4" x1="1454.54" y1="450.329" x2="1719.06" y2="183.475" gradientUnits="userSpaceOnUse">
<stop stop-color="#F3F4F6"/>
<stop offset="1" stop-color="#E5E7EB"/>
</linearGradient>
<linearGradient id="paint5_linear_48_4" x1="135.5" y1="0" x2="135.5" y2="1080" gradientUnits="userSpaceOnUse">
<stop stop-color="#0F766E"/>
<stop offset="0.244909" stop-color="#11857C"/>
<stop offset="0.384615" stop-color="#128D83"/>
<stop offset="0.530532" stop-color="#16ACA0"/>
<stop offset="0.698319" stop-color="#18BDB0"/>
<stop offset="0.848175" stop-color="#1ACDBF"/>
<stop offset="1" stop-color="#1CDCCD"/>
</linearGradient>
</defs>
</svg>
