<svg width="1920" height="1084" viewBox="0 0 1920 1084" fill="none" xmlns="http://www.w3.org/2000/svg">
<rect width="1920" height="1080" rx="12" fill="white"/>
<g filter="url(#filter0_d_28_34)">
<rect width="271" height="1080" rx="12" fill="url(#paint0_linear_28_34)"/>
</g>
<g filter="url(#filter1_d_28_34)">
<rect x="309" y="342" width="979" height="350" rx="12" fill="white"/>
</g>
<g filter="url(#filter2_d_28_34)">
<rect x="309" y="712" width="979" height="348" rx="12" fill="white"/>
</g>
<g filter="url(#filter3_d_28_34)">
<rect x="1308" y="712" width="574" height="348" rx="12" fill="white"/>
</g>
<g filter="url(#filter4_d_28_34)">
<rect x="1308" y="342" width="574" height="350" rx="12" fill="white"/>
</g>
<line x1="309" y1="100.75" x2="1882.01" y2="100.75" stroke="#0F766E" stroke-width="3"/>
<path d="M322.636 75.3636V87H321.273L314.932 77.8636H314.818V87H313.409V75.3636H314.773L321.136 84.5227H321.25V75.3636H322.636ZM328.933 87.1818C328.092 87.1818 327.367 86.9962 326.757 86.625C326.151 86.25 325.683 85.7273 325.354 85.0568C325.028 84.3826 324.865 83.5985 324.865 82.7045C324.865 81.8106 325.028 81.0227 325.354 80.3409C325.683 79.6553 326.142 79.1212 326.729 78.7386C327.32 78.3523 328.009 78.1591 328.797 78.1591C329.251 78.1591 329.7 78.2348 330.143 78.3864C330.587 78.5379 330.99 78.7841 331.354 79.125C331.717 79.4621 332.007 79.9091 332.223 80.4659C332.439 81.0227 332.547 81.7083 332.547 82.5227V83.0909H325.82V81.9318H331.183C331.183 81.4394 331.085 81 330.888 80.6136C330.695 80.2273 330.418 79.9223 330.058 79.6989C329.702 79.4754 329.282 79.3636 328.797 79.3636C328.263 79.3636 327.801 79.4962 327.411 79.7614C327.024 80.0227 326.727 80.3636 326.518 80.7841C326.31 81.2045 326.206 81.6553 326.206 82.1364V82.9091C326.206 83.5682 326.32 84.1269 326.547 84.5852C326.778 85.0398 327.098 85.3864 327.507 85.625C327.916 85.8598 328.392 85.9773 328.933 85.9773C329.286 85.9773 329.604 85.928 329.888 85.8295C330.176 85.7273 330.424 85.5758 330.632 85.375C330.84 85.1705 331.001 84.9167 331.115 84.6136L332.411 84.9773C332.274 85.4167 332.045 85.803 331.723 86.1364C331.401 86.4659 331.003 86.7235 330.53 86.9091C330.056 87.0909 329.524 87.1818 328.933 87.1818ZM338.382 78.2727V79.4091H333.859V78.2727H338.382ZM335.178 76.1818H336.518V84.5C336.518 84.8788 336.573 85.1629 336.683 85.3523C336.797 85.5379 336.941 85.6629 337.115 85.7273C337.293 85.7879 337.481 85.8182 337.678 85.8182C337.825 85.8182 337.946 85.8106 338.041 85.7955C338.136 85.7765 338.212 85.7614 338.268 85.75L338.541 86.9545C338.45 86.9886 338.323 87.0227 338.161 87.0568C337.998 87.0947 337.791 87.1136 337.541 87.1136C337.162 87.1136 336.791 87.0322 336.428 86.8693C336.068 86.7064 335.768 86.4583 335.53 86.125C335.295 85.7917 335.178 85.3712 335.178 84.8636V76.1818ZM342.376 87L339.717 78.2727H341.126L343.013 84.9545H343.104L344.967 78.2727H346.399L348.24 84.9318H348.331L350.217 78.2727H351.626L348.967 87H347.649L345.74 80.2955H345.604L343.695 87H342.376ZM356.648 87.1818C355.86 87.1818 355.169 86.9943 354.574 86.6193C353.983 86.2443 353.521 85.7197 353.188 85.0455C352.858 84.3712 352.693 83.5833 352.693 82.6818C352.693 81.7727 352.858 80.9792 353.188 80.3011C353.521 79.6231 353.983 79.0966 354.574 78.7216C355.169 78.3466 355.86 78.1591 356.648 78.1591C357.436 78.1591 358.125 78.3466 358.716 78.7216C359.311 79.0966 359.773 79.6231 360.102 80.3011C360.436 80.9792 360.602 81.7727 360.602 82.6818C360.602 83.5833 360.436 84.3712 360.102 85.0455C359.773 85.7197 359.311 86.2443 358.716 86.6193C358.125 86.9943 357.436 87.1818 356.648 87.1818ZM356.648 85.9773C357.246 85.9773 357.739 85.8239 358.125 85.517C358.511 85.2102 358.797 84.8068 358.983 84.3068C359.169 83.8068 359.261 83.2652 359.261 82.6818C359.261 82.0985 359.169 81.5549 358.983 81.0511C358.797 80.5473 358.511 80.1402 358.125 79.8295C357.739 79.5189 357.246 79.3636 356.648 79.3636C356.049 79.3636 355.557 79.5189 355.17 79.8295C354.784 80.1402 354.498 80.5473 354.312 81.0511C354.127 81.5549 354.034 82.0985 354.034 82.6818C354.034 83.2652 354.127 83.8068 354.312 84.3068C354.498 84.8068 354.784 85.2102 355.17 85.517C355.557 85.8239 356.049 85.9773 356.648 85.9773ZM362.649 87V78.2727H363.945V79.5909H364.036C364.195 79.1591 364.482 78.8087 364.899 78.5398C365.316 78.2708 365.786 78.1364 366.308 78.1364C366.407 78.1364 366.53 78.1383 366.678 78.142C366.825 78.1458 366.937 78.1515 367.013 78.1591V79.5227C366.967 79.5114 366.863 79.4943 366.7 79.4716C366.541 79.4451 366.373 79.4318 366.195 79.4318C365.77 79.4318 365.392 79.5208 365.058 79.6989C364.729 79.8731 364.467 80.1155 364.274 80.4261C364.085 80.733 363.99 81.0833 363.99 81.4773V87H362.649ZM369.852 83.8182L369.83 82.1591H370.102L373.92 78.2727H375.58L371.511 82.3864H371.398L369.852 83.8182ZM368.602 87V75.3636H369.943V87H368.602ZM374.148 87L370.739 82.6818L371.693 81.75L375.852 87H374.148ZM381.987 87V75.3636H385.919C386.832 75.3636 387.578 75.5284 388.158 75.858C388.741 76.1837 389.173 76.625 389.453 77.1818C389.733 77.7386 389.874 78.3598 389.874 79.0455C389.874 79.7311 389.733 80.3542 389.453 80.9148C389.177 81.4754 388.749 81.9223 388.169 82.2557C387.589 82.5852 386.847 82.75 385.942 82.75H383.124V81.5H385.896C386.521 81.5 387.023 81.392 387.402 81.1761C387.781 80.9602 388.055 80.6686 388.226 80.3011C388.4 79.9299 388.487 79.5114 388.487 79.0455C388.487 78.5795 388.4 78.1629 388.226 77.7955C388.055 77.428 387.779 77.1402 387.396 76.9318C387.014 76.7197 386.506 76.6136 385.874 76.6136H383.396V87H381.987ZM395.527 87.1818C394.686 87.1818 393.961 86.9962 393.351 86.625C392.745 86.25 392.277 85.7273 391.947 85.0568C391.622 84.3826 391.459 83.5985 391.459 82.7045C391.459 81.8106 391.622 81.0227 391.947 80.3409C392.277 79.6553 392.735 79.1212 393.322 78.7386C393.913 78.3523 394.603 78.1591 395.391 78.1591C395.845 78.1591 396.294 78.2348 396.737 78.3864C397.18 78.5379 397.584 78.7841 397.947 79.125C398.311 79.4621 398.601 79.9091 398.817 80.4659C399.033 81.0227 399.141 81.7083 399.141 82.5227V83.0909H392.413V81.9318H397.777C397.777 81.4394 397.679 81 397.482 80.6136C397.288 80.2273 397.012 79.9223 396.652 79.6989C396.296 79.4754 395.875 79.3636 395.391 79.3636C394.857 79.3636 394.394 79.4962 394.004 79.7614C393.618 80.0227 393.321 80.3636 393.112 80.7841C392.904 81.2045 392.8 81.6553 392.8 82.1364V82.9091C392.8 83.5682 392.913 84.1269 393.141 84.5852C393.372 85.0398 393.692 85.3864 394.101 85.625C394.51 85.8598 394.985 85.9773 395.527 85.9773C395.879 85.9773 396.197 85.928 396.482 85.8295C396.769 85.7273 397.018 85.5758 397.226 85.375C397.434 85.1705 397.595 84.9167 397.709 84.6136L399.004 84.9773C398.868 85.4167 398.639 85.803 398.317 86.1364C397.995 86.4659 397.597 86.7235 397.124 86.9091C396.65 87.0909 396.118 87.1818 395.527 87.1818ZM401.18 87V78.2727H402.476V79.5909H402.567C402.726 79.1591 403.014 78.8087 403.43 78.5398C403.847 78.2708 404.317 78.1364 404.839 78.1364C404.938 78.1364 405.061 78.1383 405.209 78.142C405.357 78.1458 405.468 78.1515 405.544 78.1591V79.5227C405.499 79.5114 405.394 79.4943 405.232 79.4716C405.072 79.4451 404.904 79.4318 404.726 79.4318C404.302 79.4318 403.923 79.5208 403.589 79.6989C403.26 79.8731 402.999 80.1155 402.805 80.4261C402.616 80.733 402.521 81.0833 402.521 81.4773V87H401.18ZM411.567 78.2727V79.4091H406.862V78.2727H411.567ZM408.271 87V77.0682C408.271 76.5682 408.389 76.1515 408.624 75.8182C408.858 75.4848 409.163 75.2348 409.538 75.0682C409.913 74.9015 410.309 74.8182 410.726 74.8182C411.055 74.8182 411.324 74.8447 411.533 74.8977C411.741 74.9508 411.896 75 411.999 75.0455L411.612 76.2045C411.544 76.1818 411.449 76.1534 411.328 76.1193C411.211 76.0852 411.055 76.0682 410.862 76.0682C410.419 76.0682 410.099 76.1799 409.902 76.4034C409.709 76.6269 409.612 76.9545 409.612 77.3864V87H408.271ZM416.632 87.1818C415.844 87.1818 415.153 86.9943 414.558 86.6193C413.967 86.2443 413.505 85.7197 413.172 85.0455C412.842 84.3712 412.678 83.5833 412.678 82.6818C412.678 81.7727 412.842 80.9792 413.172 80.3011C413.505 79.6231 413.967 79.0966 414.558 78.7216C415.153 78.3466 415.844 78.1591 416.632 78.1591C417.42 78.1591 418.109 78.3466 418.7 78.7216C419.295 79.0966 419.757 79.6231 420.087 80.3011C420.42 80.9792 420.587 81.7727 420.587 82.6818C420.587 83.5833 420.42 84.3712 420.087 85.0455C419.757 85.7197 419.295 86.2443 418.7 86.6193C418.109 86.9943 417.42 87.1818 416.632 87.1818ZM416.632 85.9773C417.231 85.9773 417.723 85.8239 418.109 85.517C418.496 85.2102 418.782 84.8068 418.967 84.3068C419.153 83.8068 419.246 83.2652 419.246 82.6818C419.246 82.0985 419.153 81.5549 418.967 81.0511C418.782 80.5473 418.496 80.1402 418.109 79.8295C417.723 79.5189 417.231 79.3636 416.632 79.3636C416.034 79.3636 415.541 79.5189 415.155 79.8295C414.768 80.1402 414.482 80.5473 414.297 81.0511C414.111 81.5549 414.018 82.0985 414.018 82.6818C414.018 83.2652 414.111 83.8068 414.297 84.3068C414.482 84.8068 414.768 85.2102 415.155 85.517C415.541 85.8239 416.034 85.9773 416.632 85.9773ZM422.634 87V78.2727H423.929V79.5909H424.02C424.179 79.1591 424.467 78.8087 424.884 78.5398C425.3 78.2708 425.77 78.1364 426.293 78.1364C426.391 78.1364 426.514 78.1383 426.662 78.142C426.81 78.1458 426.921 78.1515 426.997 78.1591V79.5227C426.952 79.5114 426.848 79.4943 426.685 79.4716C426.526 79.4451 426.357 79.4318 426.179 79.4318C425.755 79.4318 425.376 79.5208 425.043 79.6989C424.713 79.8731 424.452 80.1155 424.259 80.4261C424.069 80.733 423.974 81.0833 423.974 81.4773V87H422.634ZM428.587 87V78.2727H429.882V79.6364H429.996C430.178 79.1705 430.471 78.8087 430.876 78.5511C431.282 78.2898 431.768 78.1591 432.337 78.1591C432.912 78.1591 433.392 78.2898 433.774 78.5511C434.161 78.8087 434.462 79.1705 434.678 79.6364H434.768C434.992 79.1856 435.327 78.8277 435.774 78.5625C436.221 78.2936 436.757 78.1591 437.382 78.1591C438.162 78.1591 438.801 78.4034 439.297 78.892C439.793 79.3769 440.041 80.1326 440.041 81.1591V87H438.7V81.1591C438.7 80.5152 438.524 80.0549 438.172 79.7784C437.82 79.5019 437.405 79.3636 436.928 79.3636C436.314 79.3636 435.839 79.5492 435.501 79.9205C435.164 80.2879 434.996 80.7538 434.996 81.3182V87H433.632V81.0227C433.632 80.5265 433.471 80.1269 433.149 79.8239C432.827 79.517 432.412 79.3636 431.905 79.3636C431.556 79.3636 431.231 79.4564 430.928 79.642C430.628 79.8277 430.386 80.0852 430.2 80.4148C430.018 80.7405 429.928 81.1174 429.928 81.5455V87H428.587ZM445.061 87.2045C444.508 87.2045 444.006 87.1004 443.555 86.892C443.105 86.6799 442.747 86.375 442.482 85.9773C442.216 85.5758 442.084 85.0909 442.084 84.5227C442.084 84.0227 442.182 83.6174 442.379 83.3068C442.576 82.9924 442.839 82.7462 443.169 82.5682C443.499 82.3902 443.862 82.2576 444.26 82.1705C444.661 82.0795 445.065 82.0076 445.47 81.9545C446 81.8864 446.43 81.8352 446.76 81.8011C447.093 81.7633 447.336 81.7008 447.487 81.6136C447.643 81.5265 447.72 81.375 447.72 81.1591V81.1136C447.72 80.553 447.567 80.1174 447.26 79.8068C446.957 79.4962 446.497 79.3409 445.879 79.3409C445.239 79.3409 444.737 79.4811 444.374 79.7614C444.01 80.0417 443.754 80.3409 443.607 80.6591L442.334 80.2045C442.561 79.6742 442.864 79.2614 443.243 78.9659C443.625 78.6667 444.042 78.4583 444.493 78.3409C444.947 78.2197 445.394 78.1591 445.834 78.1591C446.114 78.1591 446.436 78.1932 446.8 78.2614C447.167 78.3258 447.521 78.4602 447.862 78.6648C448.207 78.8693 448.493 79.178 448.72 79.5909C448.947 80.0038 449.061 80.5568 449.061 81.25V87H447.72V85.8182H447.652C447.561 86.0076 447.41 86.2102 447.197 86.4261C446.985 86.642 446.703 86.8258 446.351 86.9773C445.999 87.1288 445.569 87.2045 445.061 87.2045ZM445.266 86C445.796 86 446.243 85.8958 446.607 85.6875C446.974 85.4792 447.25 85.2102 447.436 84.8807C447.625 84.5511 447.72 84.2045 447.72 83.8409V82.6136C447.663 82.6818 447.538 82.7443 447.345 82.8011C447.156 82.8542 446.936 82.9015 446.686 82.9432C446.44 82.9811 446.199 83.0152 445.964 83.0455C445.733 83.072 445.546 83.0947 445.402 83.1136C445.054 83.1591 444.728 83.233 444.425 83.3352C444.125 83.4337 443.883 83.5833 443.697 83.7841C443.516 83.9811 443.425 84.25 443.425 84.5909C443.425 85.0568 443.597 85.4091 443.942 85.6477C444.29 85.8826 444.732 86 445.266 86ZM452.849 81.75V87H451.509V78.2727H452.804V79.6364H452.918C453.122 79.1932 453.433 78.8371 453.849 78.5682C454.266 78.2955 454.804 78.1591 455.463 78.1591C456.054 78.1591 456.571 78.2803 457.014 78.5227C457.457 78.7614 457.802 79.125 458.048 79.6136C458.295 80.0985 458.418 80.7121 458.418 81.4545V87H457.077V81.5455C457.077 80.8598 456.899 80.3258 456.543 79.9432C456.187 79.5568 455.698 79.3636 455.077 79.3636C454.649 79.3636 454.266 79.4564 453.929 79.642C453.596 79.8277 453.332 80.0985 453.139 80.4545C452.946 80.8106 452.849 81.2424 452.849 81.75ZM464.413 87.1818C463.595 87.1818 462.891 86.9886 462.3 86.6023C461.709 86.2159 461.254 85.6837 460.936 85.0057C460.618 84.3277 460.459 83.553 460.459 82.6818C460.459 81.7955 460.622 81.0133 460.947 80.3352C461.277 79.6534 461.735 79.1212 462.322 78.7386C462.913 78.3523 463.603 78.1591 464.391 78.1591C465.004 78.1591 465.557 78.2727 466.05 78.5C466.542 78.7273 466.946 79.0455 467.26 79.4545C467.574 79.8636 467.769 80.3409 467.845 80.8864H466.504C466.402 80.4886 466.175 80.1364 465.822 79.8295C465.474 79.5189 465.004 79.3636 464.413 79.3636C463.891 79.3636 463.432 79.5 463.038 79.7727C462.648 80.0417 462.343 80.4223 462.124 80.9148C461.908 81.4034 461.8 81.9773 461.8 82.6364C461.8 83.3106 461.906 83.8977 462.118 84.3977C462.334 84.8977 462.637 85.286 463.027 85.5625C463.421 85.839 463.883 85.9773 464.413 85.9773C464.762 85.9773 465.078 85.9167 465.362 85.7955C465.646 85.6742 465.887 85.5 466.084 85.2727C466.281 85.0455 466.421 84.7727 466.504 84.4545H467.845C467.769 84.9697 467.582 85.4337 467.283 85.8466C466.987 86.2557 466.595 86.5814 466.107 86.8239C465.622 87.0625 465.057 87.1818 464.413 87.1818ZM473.464 87.1818C472.624 87.1818 471.898 86.9962 471.288 86.625C470.682 86.25 470.214 85.7273 469.885 85.0568C469.559 84.3826 469.396 83.5985 469.396 82.7045C469.396 81.8106 469.559 81.0227 469.885 80.3409C470.214 79.6553 470.673 79.1212 471.26 78.7386C471.851 78.3523 472.54 78.1591 473.328 78.1591C473.783 78.1591 474.232 78.2348 474.675 78.3864C475.118 78.5379 475.521 78.7841 475.885 79.125C476.249 79.4621 476.538 79.9091 476.754 80.4659C476.97 81.0227 477.078 81.7083 477.078 82.5227V83.0909H470.351V81.9318H475.714C475.714 81.4394 475.616 81 475.419 80.6136C475.226 80.2273 474.949 79.9223 474.589 79.6989C474.233 79.4754 473.813 79.3636 473.328 79.3636C472.794 79.3636 472.332 79.4962 471.942 79.7614C471.555 80.0227 471.258 80.3636 471.05 80.7841C470.841 81.2045 470.737 81.6553 470.737 82.1364V82.9091C470.737 83.5682 470.851 84.1269 471.078 84.5852C471.309 85.0398 471.629 85.3864 472.038 85.625C472.447 85.8598 472.923 85.9773 473.464 85.9773C473.817 85.9773 474.135 85.928 474.419 85.8295C474.707 85.7273 474.955 85.5758 475.163 85.375C475.372 85.1705 475.533 84.9167 475.646 84.6136L476.942 84.9773C476.805 85.4167 476.576 85.803 476.254 86.1364C475.932 86.4659 475.535 86.7235 475.061 86.9091C474.588 87.0909 474.055 87.1818 473.464 87.1818ZM493.618 81.1818C493.618 82.4091 493.396 83.4697 492.953 84.3636C492.51 85.2576 491.902 85.947 491.129 86.4318C490.357 86.9167 489.474 87.1591 488.482 87.1591C487.489 87.1591 486.607 86.9167 485.834 86.4318C485.061 85.947 484.453 85.2576 484.01 84.3636C483.567 83.4697 483.345 82.4091 483.345 81.1818C483.345 79.9545 483.567 78.8939 484.01 78C484.453 77.1061 485.061 76.4167 485.834 75.9318C486.607 75.447 487.489 75.2045 488.482 75.2045C489.474 75.2045 490.357 75.447 491.129 75.9318C491.902 76.4167 492.51 77.1061 492.953 78C493.396 78.8939 493.618 79.9545 493.618 81.1818ZM492.254 81.1818C492.254 80.1742 492.086 79.3239 491.749 78.6307C491.415 77.9375 490.963 77.4129 490.391 77.0568C489.822 76.7008 489.186 76.5227 488.482 76.5227C487.777 76.5227 487.139 76.7008 486.567 77.0568C485.999 77.4129 485.546 77.9375 485.209 78.6307C484.875 79.3239 484.709 80.1742 484.709 81.1818C484.709 82.1894 484.875 83.0398 485.209 83.733C485.546 84.4261 485.999 84.9508 486.567 85.3068C487.139 85.6629 487.777 85.8409 488.482 85.8409C489.186 85.8409 489.822 85.6629 490.391 85.3068C490.963 84.9508 491.415 84.4261 491.749 83.733C492.086 83.0398 492.254 82.1894 492.254 81.1818ZM502.942 78.2727L499.714 87H498.351L495.124 78.2727H496.578L498.987 85.2273H499.078L501.487 78.2727H502.942ZM508.058 87.1818C507.217 87.1818 506.492 86.9962 505.882 86.625C505.276 86.25 504.808 85.7273 504.479 85.0568C504.153 84.3826 503.99 83.5985 503.99 82.7045C503.99 81.8106 504.153 81.0227 504.479 80.3409C504.808 79.6553 505.267 79.1212 505.854 78.7386C506.445 78.3523 507.134 78.1591 507.922 78.1591C508.376 78.1591 508.825 78.2348 509.268 78.3864C509.712 78.5379 510.115 78.7841 510.479 79.125C510.842 79.4621 511.132 79.9091 511.348 80.4659C511.564 81.0227 511.672 81.7083 511.672 82.5227V83.0909H504.945V81.9318H510.308C510.308 81.4394 510.21 81 510.013 80.6136C509.82 80.2273 509.543 79.9223 509.183 79.6989C508.827 79.4754 508.407 79.3636 507.922 79.3636C507.388 79.3636 506.926 79.4962 506.536 79.7614C506.149 80.0227 505.852 80.3636 505.643 80.7841C505.435 81.2045 505.331 81.6553 505.331 82.1364V82.9091C505.331 83.5682 505.445 84.1269 505.672 84.5852C505.903 85.0398 506.223 85.3864 506.632 85.625C507.041 85.8598 507.517 85.9773 508.058 85.9773C508.411 85.9773 508.729 85.928 509.013 85.8295C509.301 85.7273 509.549 85.5758 509.757 85.375C509.965 85.1705 510.126 84.9167 510.24 84.6136L511.536 84.9773C511.399 85.4167 511.17 85.803 510.848 86.1364C510.526 86.4659 510.128 86.7235 509.655 86.9091C509.181 87.0909 508.649 87.1818 508.058 87.1818ZM513.712 87V78.2727H515.007V79.5909H515.098C515.257 79.1591 515.545 78.8087 515.962 78.5398C516.378 78.2708 516.848 78.1364 517.371 78.1364C517.469 78.1364 517.592 78.1383 517.74 78.142C517.888 78.1458 518 78.1515 518.075 78.1591V79.5227C518.03 79.5114 517.926 79.4943 517.763 79.4716C517.604 79.4451 517.435 79.4318 517.257 79.4318C516.833 79.4318 516.454 79.5208 516.121 79.6989C515.791 79.8731 515.53 80.1155 515.337 80.4261C515.147 80.733 515.053 81.0833 515.053 81.4773V87H513.712ZM527.067 78.2727L523.839 87H522.476L519.249 78.2727H520.703L523.112 85.2273H523.203L525.612 78.2727H527.067ZM528.837 87V78.2727H530.178V87H528.837ZM529.518 76.8182C529.257 76.8182 529.032 76.7292 528.842 76.5511C528.657 76.3731 528.564 76.1591 528.564 75.9091C528.564 75.6591 528.657 75.4451 528.842 75.267C529.032 75.089 529.257 75 529.518 75C529.78 75 530.003 75.089 530.189 75.267C530.378 75.4451 530.473 75.6591 530.473 75.9091C530.473 76.1591 530.378 76.3731 530.189 76.5511C530.003 76.7292 529.78 76.8182 529.518 76.8182ZM536.293 87.1818C535.452 87.1818 534.726 86.9962 534.116 86.625C533.51 86.25 533.043 85.7273 532.713 85.0568C532.387 84.3826 532.224 83.5985 532.224 82.7045C532.224 81.8106 532.387 81.0227 532.713 80.3409C533.043 79.6553 533.501 79.1212 534.088 78.7386C534.679 78.3523 535.368 78.1591 536.156 78.1591C536.611 78.1591 537.06 78.2348 537.503 78.3864C537.946 78.5379 538.349 78.7841 538.713 79.125C539.077 79.4621 539.366 79.9091 539.582 80.4659C539.798 81.0227 539.906 81.7083 539.906 82.5227V83.0909H533.179V81.9318H538.543C538.543 81.4394 538.444 81 538.247 80.6136C538.054 80.2273 537.777 79.9223 537.418 79.6989C537.062 79.4754 536.641 79.3636 536.156 79.3636C535.622 79.3636 535.16 79.4962 534.77 79.7614C534.384 80.0227 534.086 80.3636 533.878 80.7841C533.67 81.2045 533.565 81.6553 533.565 82.1364V82.9091C533.565 83.5682 533.679 84.1269 533.906 84.5852C534.137 85.0398 534.457 85.3864 534.866 85.625C535.276 85.8598 535.751 85.9773 536.293 85.9773C536.645 85.9773 536.963 85.928 537.247 85.8295C537.535 85.7273 537.783 85.5758 537.991 85.375C538.2 85.1705 538.361 84.9167 538.474 84.6136L539.77 84.9773C539.634 85.4167 539.404 85.803 539.082 86.1364C538.76 86.4659 538.363 86.7235 537.889 86.9091C537.416 87.0909 536.884 87.1818 536.293 87.1818ZM543.923 87L541.264 78.2727H542.673L544.56 84.9545H544.651L546.514 78.2727H547.946L549.787 84.9318H549.878L551.764 78.2727H553.173L550.514 87H549.196L547.287 80.2955H547.151L545.241 87H543.923ZM562.719 83.6818C562.26 83.6818 561.842 83.5701 561.463 83.3466C561.084 83.1193 560.781 82.8163 560.554 82.4375C560.33 82.0587 560.219 81.6402 560.219 81.1818C560.219 80.7197 560.33 80.3011 560.554 79.9261C560.781 79.5473 561.084 79.2462 561.463 79.0227C561.842 78.7955 562.26 78.6818 562.719 78.6818C563.181 78.6818 563.599 78.7955 563.974 79.0227C564.353 79.2462 564.654 79.5473 564.878 79.9261C565.105 80.3011 565.219 80.7197 565.219 81.1818C565.219 81.6402 565.105 82.0587 564.878 82.4375C564.654 82.8163 564.353 83.1193 563.974 83.3466C563.599 83.5701 563.181 83.6818 562.719 83.6818ZM572.923 87V85.9773L576.764 81.7727C577.215 81.2803 577.586 80.8523 577.878 80.4886C578.17 80.1212 578.385 79.7765 578.526 79.4545C578.67 79.1288 578.741 78.7879 578.741 78.4318C578.741 78.0227 578.643 77.6686 578.446 77.3693C578.253 77.0701 577.988 76.839 577.651 76.6761C577.313 76.5133 576.935 76.4318 576.514 76.4318C576.067 76.4318 575.677 76.5246 575.344 76.7102C575.014 76.892 574.759 77.1477 574.577 77.4773C574.399 77.8068 574.31 78.1932 574.31 78.6364H572.969C572.969 77.9545 573.126 77.3561 573.44 76.8409C573.755 76.3258 574.183 75.9242 574.724 75.6364C575.27 75.3485 575.882 75.2045 576.56 75.2045C577.241 75.2045 577.846 75.3485 578.372 75.6364C578.899 75.9242 579.312 76.3125 579.611 76.8011C579.91 77.2898 580.06 77.8333 580.06 78.4318C580.06 78.8598 579.982 79.2784 579.827 79.6875C579.675 80.0928 579.41 80.5455 579.031 81.0455C578.656 81.5417 578.135 82.1477 577.469 82.8636L574.855 85.6591V85.75H580.264V87H572.923ZM586.406 87.1591C585.55 87.1591 584.821 86.9261 584.219 86.4602C583.616 85.9905 583.156 85.3106 582.838 84.4205C582.52 83.5265 582.361 82.447 582.361 81.1818C582.361 79.9242 582.52 78.8504 582.838 77.9602C583.16 77.0663 583.622 76.3845 584.224 75.9148C584.83 75.4413 585.558 75.2045 586.406 75.2045C587.255 75.2045 587.98 75.4413 588.582 75.9148C589.188 76.3845 589.651 77.0663 589.969 77.9602C590.291 78.8504 590.452 79.9242 590.452 81.1818C590.452 82.447 590.293 83.5265 589.974 84.4205C589.656 85.3106 589.196 85.9905 588.594 86.4602C587.991 86.9261 587.262 87.1591 586.406 87.1591ZM586.406 85.9091C587.255 85.9091 587.914 85.5 588.384 84.6818C588.853 83.8636 589.088 82.697 589.088 81.1818C589.088 80.1742 588.98 79.3163 588.764 78.608C588.552 77.8996 588.245 77.3598 587.844 76.9886C587.446 76.6174 586.967 76.4318 586.406 76.4318C585.565 76.4318 584.908 76.8466 584.435 77.6761C583.961 78.5019 583.724 79.6705 583.724 81.1818C583.724 82.1894 583.83 83.0455 584.043 83.75C584.255 84.4545 584.56 84.9905 584.957 85.358C585.359 85.7254 585.842 85.9091 586.406 85.9091ZM592.611 87V85.9773L596.452 81.7727C596.902 81.2803 597.274 80.8523 597.565 80.4886C597.857 80.1212 598.073 79.7765 598.213 79.4545C598.357 79.1288 598.429 78.7879 598.429 78.4318C598.429 78.0227 598.33 77.6686 598.134 77.3693C597.94 77.0701 597.675 76.839 597.338 76.6761C597.001 76.5133 596.622 76.4318 596.202 76.4318C595.755 76.4318 595.365 76.5246 595.031 76.7102C594.702 76.892 594.446 77.1477 594.264 77.4773C594.086 77.8068 593.997 78.1932 593.997 78.6364H592.656C592.656 77.9545 592.813 77.3561 593.128 76.8409C593.442 76.3258 593.87 75.9242 594.412 75.6364C594.957 75.3485 595.569 75.2045 596.247 75.2045C596.929 75.2045 597.533 75.3485 598.06 75.6364C598.586 75.9242 598.999 76.3125 599.298 76.8011C599.598 77.2898 599.747 77.8333 599.747 78.4318C599.747 78.8598 599.67 79.2784 599.514 79.6875C599.363 80.0928 599.098 80.5455 598.719 81.0455C598.344 81.5417 597.823 82.1477 597.156 82.8636L594.543 85.6591V85.75H599.952V87H592.611ZM601.776 84.6136V83.4545L606.889 75.3636H607.73V77.1591H607.162L603.298 83.2727V83.3636H610.185V84.6136H601.776ZM607.253 87V84.2614V83.7216V75.3636H608.594V87H607.253ZM617.337 80.5568V81.8068H612.246V80.5568H617.337ZM619.126 87V85.9773L622.967 81.7727C623.418 81.2803 623.789 80.8523 624.081 80.4886C624.373 80.1212 624.589 79.7765 624.729 79.4545C624.873 79.1288 624.945 78.7879 624.945 78.4318C624.945 78.0227 624.846 77.6686 624.649 77.3693C624.456 77.0701 624.191 76.839 623.854 76.6761C623.517 76.5133 623.138 76.4318 622.717 76.4318C622.27 76.4318 621.88 76.5246 621.547 76.7102C621.217 76.892 620.962 77.1477 620.78 77.4773C620.602 77.8068 620.513 78.1932 620.513 78.6364H619.172C619.172 77.9545 619.329 77.3561 619.643 76.8409C619.958 76.3258 620.386 75.9242 620.928 75.6364C621.473 75.3485 622.085 75.2045 622.763 75.2045C623.445 75.2045 624.049 75.3485 624.575 75.6364C625.102 75.9242 625.515 76.3125 625.814 76.8011C626.113 77.2898 626.263 77.8333 626.263 78.4318C626.263 78.8598 626.185 79.2784 626.03 79.6875C625.878 80.0928 625.613 80.5455 625.234 81.0455C624.859 81.5417 624.339 82.1477 623.672 82.8636L621.058 85.6591V85.75H626.467V87H619.126ZM632.609 87.1591C631.753 87.1591 631.024 86.9261 630.422 86.4602C629.82 85.9905 629.359 85.3106 629.041 84.4205C628.723 83.5265 628.564 82.447 628.564 81.1818C628.564 79.9242 628.723 78.8504 629.041 77.9602C629.363 77.0663 629.825 76.3845 630.428 75.9148C631.034 75.4413 631.761 75.2045 632.609 75.2045C633.458 75.2045 634.183 75.4413 634.786 75.9148C635.392 76.3845 635.854 77.0663 636.172 77.9602C636.494 78.8504 636.655 79.9242 636.655 81.1818C636.655 82.447 636.496 83.5265 636.178 84.4205C635.859 85.3106 635.399 85.9905 634.797 86.4602C634.195 86.9261 633.465 87.1591 632.609 87.1591ZM632.609 85.9091C633.458 85.9091 634.117 85.5 634.587 84.6818C635.056 83.8636 635.291 82.697 635.291 81.1818C635.291 80.1742 635.183 79.3163 634.967 78.608C634.755 77.8996 634.448 77.3598 634.047 76.9886C633.649 76.6174 633.17 76.4318 632.609 76.4318C631.768 76.4318 631.111 76.8466 630.638 77.6761C630.164 78.5019 629.928 79.6705 629.928 81.1818C629.928 82.1894 630.034 83.0455 630.246 83.75C630.458 84.4545 630.763 84.9905 631.161 85.358C631.562 85.7254 632.045 85.9091 632.609 85.9091ZM638.814 87V85.9773L642.655 81.7727C643.106 81.2803 643.477 80.8523 643.768 80.4886C644.06 80.1212 644.276 79.7765 644.416 79.4545C644.56 79.1288 644.632 78.7879 644.632 78.4318C644.632 78.0227 644.534 77.6686 644.337 77.3693C644.143 77.0701 643.878 76.839 643.541 76.6761C643.204 76.5133 642.825 76.4318 642.405 76.4318C641.958 76.4318 641.568 76.5246 641.234 76.7102C640.905 76.892 640.649 77.1477 640.467 77.4773C640.289 77.8068 640.2 78.1932 640.2 78.6364H638.859C638.859 77.9545 639.017 77.3561 639.331 76.8409C639.645 76.3258 640.073 75.9242 640.615 75.6364C641.161 75.3485 641.772 75.2045 642.45 75.2045C643.132 75.2045 643.736 75.3485 644.263 75.6364C644.789 75.9242 645.202 76.3125 645.501 76.8011C645.801 77.2898 645.95 77.8333 645.95 78.4318C645.95 78.8598 645.873 79.2784 645.717 79.6875C645.566 80.0928 645.301 80.5455 644.922 81.0455C644.547 81.5417 644.026 82.1477 643.359 82.8636L640.746 85.6591V85.75H646.155V87H638.814ZM652.138 87.1591C651.471 87.1591 650.871 87.0265 650.337 86.7614C649.803 86.4962 649.375 86.1326 649.053 85.6705C648.731 85.2083 648.554 84.6818 648.524 84.0909H649.888C649.941 84.6174 650.179 85.053 650.604 85.3977C651.032 85.7386 651.543 85.9091 652.138 85.9091C652.615 85.9091 653.039 85.7973 653.411 85.5739C653.786 85.3504 654.079 85.0436 654.291 84.6534C654.507 84.2595 654.615 83.8144 654.615 83.3182C654.615 82.8106 654.503 82.358 654.28 81.9602C654.06 81.5587 653.757 81.2424 653.371 81.0114C652.984 80.7803 652.543 80.6629 652.047 80.6591C651.691 80.6553 651.325 80.7102 650.95 80.8239C650.575 80.9337 650.267 81.0758 650.024 81.25L648.706 81.0909L649.411 75.3636H655.456V76.6136H650.592L650.183 80.0455H650.251C650.49 79.8561 650.789 79.6989 651.149 79.5739C651.509 79.4489 651.884 79.3864 652.274 79.3864C652.986 79.3864 653.621 79.5568 654.178 79.8977C654.738 80.2348 655.178 80.697 655.496 81.2841C655.818 81.8712 655.979 82.5417 655.979 83.2955C655.979 84.0379 655.812 84.7008 655.479 85.2841C655.149 85.8636 654.695 86.322 654.115 86.6591C653.536 86.9924 652.876 87.1591 652.138 87.1591Z" fill="#6B7280"/>
<path d="M310.278 34.3821V29.8182H331.781V34.3821H323.766V56H318.294V34.3821H310.278ZM340.666 44.6477V56H335.22V29.8182H340.513V39.8281H340.743C341.186 38.669 341.902 37.7614 342.891 37.1051C343.879 36.4403 345.119 36.108 346.611 36.108C347.974 36.108 349.163 36.4062 350.178 37.0028C351.2 37.5909 351.993 38.4389 352.555 39.5469C353.126 40.6463 353.408 41.9631 353.399 43.4972V56H347.953V44.4688C347.962 43.2585 347.655 42.3168 347.033 41.6435C346.419 40.9702 345.558 40.6335 344.45 40.6335C343.709 40.6335 343.053 40.7912 342.482 41.1065C341.919 41.4219 341.476 41.8821 341.152 42.4872C340.837 43.0838 340.675 43.804 340.666 44.6477ZM366.634 56.3835C364.614 56.3835 362.875 55.9744 361.418 55.1562C359.969 54.3295 358.853 53.1619 358.069 51.6534C357.284 50.1364 356.892 48.3423 356.892 46.2713C356.892 44.2514 357.284 42.4787 358.069 40.9531C358.853 39.4276 359.956 38.2386 361.38 37.3864C362.811 36.5341 364.49 36.108 366.417 36.108C367.712 36.108 368.918 36.3168 370.034 36.7344C371.159 37.1435 372.14 37.7614 372.975 38.5881C373.819 39.4148 374.475 40.4545 374.944 41.7074C375.412 42.9517 375.647 44.4091 375.647 46.0795V47.5753H359.066V44.2003H370.52C370.52 43.4162 370.35 42.7216 370.009 42.1165C369.668 41.5114 369.195 41.0384 368.59 40.6974C367.993 40.348 367.299 40.1733 366.506 40.1733C365.679 40.1733 364.946 40.3651 364.307 40.7486C363.676 41.1236 363.182 41.6307 362.824 42.2699C362.466 42.9006 362.283 43.6037 362.275 44.3793V47.5881C362.275 48.5597 362.453 49.3991 362.811 50.1065C363.178 50.8139 363.694 51.3594 364.358 51.7429C365.023 52.1264 365.811 52.3182 366.723 52.3182C367.328 52.3182 367.882 52.233 368.385 52.0625C368.888 51.892 369.319 51.6364 369.676 51.2955C370.034 50.9545 370.307 50.5369 370.495 50.0426L375.532 50.375C375.276 51.5852 374.752 52.642 373.959 53.5455C373.175 54.4403 372.161 55.1392 370.917 55.642C369.681 56.1364 368.253 56.3835 366.634 56.3835ZM387.635 56V29.8182H405.277V34.3821H393.17V40.6207H404.369V45.1847H393.17V51.4361H405.328V56H387.635ZM422.168 47.6392V36.3636H427.614V56H422.385V52.4332H422.181C421.738 53.5838 421 54.5085 419.969 55.2074C418.946 55.9062 417.698 56.2557 416.223 56.2557C414.911 56.2557 413.756 55.9574 412.759 55.3608C411.762 54.7642 410.982 53.9162 410.419 52.8168C409.865 51.7173 409.584 50.4006 409.576 48.8665V36.3636H415.022V47.8949C415.03 49.054 415.341 49.9702 415.955 50.6435C416.569 51.3168 417.391 51.6534 418.422 51.6534C419.078 51.6534 419.692 51.5043 420.263 51.206C420.834 50.8991 421.294 50.4474 421.644 49.8509C422.002 49.2543 422.176 48.517 422.168 47.6392ZM431.97 56V36.3636H437.25V39.7898H437.455C437.813 38.571 438.413 37.6506 439.257 37.0284C440.101 36.3977 441.072 36.0824 442.172 36.0824C442.445 36.0824 442.739 36.0994 443.054 36.1335C443.369 36.1676 443.646 36.2145 443.885 36.2741V41.1065C443.629 41.0298 443.276 40.9616 442.824 40.902C442.372 40.8423 441.959 40.8125 441.584 40.8125C440.783 40.8125 440.067 40.9872 439.436 41.3366C438.814 41.6776 438.32 42.1548 437.953 42.7685C437.595 43.3821 437.416 44.0895 437.416 44.8906V56H431.97ZM454.659 56.3835C452.673 56.3835 450.956 55.9616 449.507 55.1179C448.066 54.2656 446.954 53.081 446.17 51.5639C445.386 50.0384 444.994 48.2699 444.994 46.2585C444.994 44.2301 445.386 42.4574 446.17 40.9403C446.954 39.4148 448.066 38.2301 449.507 37.3864C450.956 36.5341 452.673 36.108 454.659 36.108C456.645 36.108 458.358 36.5341 459.798 37.3864C461.247 38.2301 462.363 39.4148 463.147 40.9403C463.931 42.4574 464.324 44.2301 464.324 46.2585C464.324 48.2699 463.931 50.0384 463.147 51.5639C462.363 53.081 461.247 54.2656 459.798 55.1179C458.358 55.9616 456.645 56.3835 454.659 56.3835ZM454.684 52.1648C455.588 52.1648 456.342 51.9091 456.947 51.3977C457.552 50.8778 458.008 50.1705 458.315 49.2756C458.63 48.3807 458.788 47.3622 458.788 46.2202C458.788 45.0781 458.63 44.0597 458.315 43.1648C458.008 42.2699 457.552 41.5625 456.947 41.0426C456.342 40.5227 455.588 40.2628 454.684 40.2628C453.772 40.2628 453.005 40.5227 452.383 41.0426C451.77 41.5625 451.305 42.2699 450.99 43.1648C450.683 44.0597 450.529 45.0781 450.529 46.2202C450.529 47.3622 450.683 48.3807 450.99 49.2756C451.305 50.1705 451.77 50.8778 452.383 51.3977C453.005 51.9091 453.772 52.1648 454.684 52.1648ZM467.865 63.3636V36.3636H473.234V39.6619H473.477C473.716 39.1335 474.061 38.5966 474.512 38.0511C474.973 37.4972 475.569 37.0369 476.302 36.6705C477.044 36.2955 477.964 36.108 479.064 36.108C480.495 36.108 481.816 36.483 483.027 37.233C484.237 37.9744 485.204 39.0952 485.929 40.5952C486.653 42.0866 487.015 43.9574 487.015 46.2074C487.015 48.3977 486.662 50.2472 485.954 51.7557C485.255 53.2557 484.301 54.3935 483.091 55.169C481.889 55.9361 480.542 56.3196 479.051 56.3196C477.994 56.3196 477.095 56.1449 476.353 55.7955C475.62 55.446 475.02 55.0071 474.551 54.4787C474.082 53.9418 473.724 53.4006 473.477 52.8551H473.311V63.3636H467.865ZM473.196 46.1818C473.196 47.3494 473.358 48.3679 473.681 49.2372C474.005 50.1065 474.474 50.7841 475.088 51.2699C475.701 51.7472 476.447 51.9858 477.325 51.9858C478.211 51.9858 478.961 51.7429 479.575 51.2571C480.189 50.7628 480.653 50.081 480.968 49.2116C481.292 48.3338 481.454 47.3239 481.454 46.1818C481.454 45.0483 481.297 44.0511 480.981 43.1903C480.666 42.3295 480.201 41.6562 479.588 41.1705C478.974 40.6847 478.22 40.4418 477.325 40.4418C476.439 40.4418 475.689 40.6761 475.075 41.1449C474.47 41.6136 474.005 42.2784 473.681 43.1392C473.358 44 473.196 45.0142 473.196 46.1818ZM499.595 56.3835C497.575 56.3835 495.836 55.9744 494.379 55.1562C492.93 54.3295 491.814 53.1619 491.029 51.6534C490.245 50.1364 489.853 48.3423 489.853 46.2713C489.853 44.2514 490.245 42.4787 491.029 40.9531C491.814 39.4276 492.917 38.2386 494.341 37.3864C495.772 36.5341 497.451 36.108 499.377 36.108C500.673 36.108 501.879 36.3168 502.995 36.7344C504.12 37.1435 505.1 37.7614 505.936 38.5881C506.779 39.4148 507.436 40.4545 507.904 41.7074C508.373 42.9517 508.608 44.4091 508.608 46.0795V47.5753H492.027V44.2003H503.481C503.481 43.4162 503.311 42.7216 502.97 42.1165C502.629 41.5114 502.156 41.0384 501.551 40.6974C500.954 40.348 500.26 40.1733 499.467 40.1733C498.64 40.1733 497.907 40.3651 497.268 40.7486C496.637 41.1236 496.143 41.6307 495.785 42.2699C495.427 42.9006 495.244 43.6037 495.235 44.3793V47.5881C495.235 48.5597 495.414 49.3991 495.772 50.1065C496.139 50.8139 496.654 51.3594 497.319 51.7429C497.984 52.1264 498.772 52.3182 499.684 52.3182C500.289 52.3182 500.843 52.233 501.346 52.0625C501.849 51.892 502.279 51.6364 502.637 51.2955C502.995 50.9545 503.268 50.5369 503.456 50.0426L508.493 50.375C508.237 51.5852 507.713 52.642 506.92 53.5455C506.136 54.4403 505.122 55.1392 503.877 55.642C502.642 56.1364 501.214 56.3835 499.595 56.3835ZM517.761 56.3707C516.508 56.3707 515.392 56.1534 514.412 55.7188C513.431 55.2756 512.656 54.6236 512.085 53.7628C511.522 52.8935 511.241 51.8111 511.241 50.5156C511.241 49.4247 511.441 48.5085 511.842 47.767C512.243 47.0256 512.788 46.429 513.478 45.9773C514.169 45.5256 514.953 45.1847 515.831 44.9545C516.717 44.7244 517.646 44.5625 518.618 44.4688C519.76 44.3494 520.68 44.2386 521.379 44.1364C522.078 44.0256 522.585 43.8636 522.9 43.6506C523.216 43.4375 523.373 43.1222 523.373 42.7045V42.6278C523.373 41.8182 523.118 41.1918 522.606 40.7486C522.103 40.3054 521.387 40.0838 520.458 40.0838C519.478 40.0838 518.699 40.3011 518.119 40.7358C517.539 41.1619 517.156 41.6989 516.968 42.3466L511.931 41.9375C512.187 40.7443 512.69 39.7131 513.44 38.8438C514.19 37.9659 515.157 37.2926 516.342 36.8239C517.535 36.3466 518.916 36.108 520.484 36.108C521.575 36.108 522.619 36.2358 523.616 36.4915C524.622 36.7472 525.512 37.1435 526.288 37.6804C527.072 38.2173 527.69 38.9077 528.142 39.7514C528.593 40.5866 528.819 41.5881 528.819 42.7557V56H523.654V53.277H523.501C523.186 53.8906 522.764 54.4318 522.235 54.9006C521.707 55.3608 521.072 55.723 520.331 55.9872C519.589 56.2429 518.733 56.3707 517.761 56.3707ZM519.321 52.6122C520.122 52.6122 520.829 52.4545 521.443 52.1392C522.056 51.8153 522.538 51.3807 522.887 50.8352C523.237 50.2898 523.412 49.6719 523.412 48.9815V46.8977C523.241 47.0085 523.007 47.1108 522.708 47.2045C522.419 47.2898 522.091 47.3707 521.724 47.4474C521.358 47.5156 520.991 47.5795 520.625 47.6392C520.258 47.6903 519.926 47.7372 519.627 47.7798C518.988 47.8736 518.43 48.0227 517.953 48.2273C517.475 48.4318 517.105 48.7088 516.841 49.0582C516.576 49.3991 516.444 49.8253 516.444 50.3366C516.444 51.0781 516.713 51.6449 517.25 52.0369C517.795 52.4205 518.485 52.6122 519.321 52.6122ZM538.49 44.6477V56H533.044V36.3636H538.235V39.8281H538.465C538.9 38.6861 539.628 37.7827 540.651 37.1179C541.674 36.4446 542.914 36.108 544.371 36.108C545.735 36.108 546.924 36.4062 547.938 37.0028C548.952 37.5994 549.74 38.4517 550.303 39.5597C550.865 40.6591 551.147 41.9716 551.147 43.4972V56H545.701V44.4688C545.709 43.267 545.402 42.3295 544.78 41.6562C544.158 40.9744 543.301 40.6335 542.211 40.6335C541.478 40.6335 540.83 40.7912 540.267 41.1065C539.713 41.4219 539.279 41.8821 538.963 42.4872C538.657 43.0838 538.499 43.804 538.49 44.6477ZM563.873 56V29.8182H574.203C576.189 29.8182 577.88 30.1974 579.278 30.956C580.676 31.706 581.741 32.75 582.474 34.0881C583.216 35.4176 583.586 36.9517 583.586 38.6903C583.586 40.429 583.211 41.9631 582.461 43.2926C581.711 44.6222 580.625 45.6577 579.201 46.3991C577.787 47.1406 576.074 47.5114 574.062 47.5114H567.478V43.0753H573.167C574.233 43.0753 575.11 42.892 575.801 42.5256C576.5 42.1506 577.02 41.6349 577.36 40.9787C577.71 40.3139 577.885 39.5511 577.885 38.6903C577.885 37.821 577.71 37.0625 577.36 36.4148C577.02 35.7585 576.5 35.2514 575.801 34.8935C575.102 34.527 574.216 34.3438 573.142 34.3438H569.409V56H563.873ZM592.526 44.6477V56H587.08V29.8182H592.372V39.8281H592.602C593.045 38.669 593.761 37.7614 594.75 37.1051C595.739 36.4403 596.979 36.108 598.47 36.108C599.834 36.108 601.023 36.4062 602.037 37.0028C603.06 37.5909 603.852 38.4389 604.415 39.5469C604.986 40.6463 605.267 41.9631 605.259 43.4972V56H599.812V44.4688C599.821 43.2585 599.514 42.3168 598.892 41.6435C598.278 40.9702 597.418 40.6335 596.31 40.6335C595.568 40.6335 594.912 40.7912 594.341 41.1065C593.778 41.4219 593.335 41.8821 593.011 42.4872C592.696 43.0838 592.534 43.804 592.526 44.6477ZM615.144 56.3707C613.891 56.3707 612.775 56.1534 611.794 55.7188C610.814 55.2756 610.039 54.6236 609.468 53.7628C608.905 52.8935 608.624 51.8111 608.624 50.5156C608.624 49.4247 608.824 48.5085 609.225 47.767C609.625 47.0256 610.171 46.429 610.861 45.9773C611.551 45.5256 612.336 45.1847 613.213 44.9545C614.1 44.7244 615.029 44.5625 616 44.4688C617.142 44.3494 618.063 44.2386 618.762 44.1364C619.461 44.0256 619.968 43.8636 620.283 43.6506C620.598 43.4375 620.756 43.1222 620.756 42.7045V42.6278C620.756 41.8182 620.5 41.1918 619.989 40.7486C619.486 40.3054 618.77 40.0838 617.841 40.0838C616.861 40.0838 616.081 40.3011 615.502 40.7358C614.922 41.1619 614.539 41.6989 614.351 42.3466L609.314 41.9375C609.57 40.7443 610.073 39.7131 610.823 38.8438C611.573 37.9659 612.54 37.2926 613.725 36.8239C614.918 36.3466 616.299 36.108 617.867 36.108C618.958 36.108 620.002 36.2358 620.999 36.4915C622.005 36.7472 622.895 37.1435 623.671 37.6804C624.455 38.2173 625.073 38.9077 625.525 39.7514C625.976 40.5866 626.202 41.5881 626.202 42.7557V56H621.037V53.277H620.884C620.569 53.8906 620.147 54.4318 619.618 54.9006C619.09 55.3608 618.455 55.723 617.713 55.9872C616.972 56.2429 616.115 56.3707 615.144 56.3707ZM616.703 52.6122C617.505 52.6122 618.212 52.4545 618.826 52.1392C619.439 51.8153 619.921 51.3807 620.27 50.8352C620.62 50.2898 620.794 49.6719 620.794 48.9815V46.8977C620.624 47.0085 620.39 47.1108 620.091 47.2045C619.801 47.2898 619.473 47.3707 619.107 47.4474C618.74 47.5156 618.374 47.5795 618.007 47.6392C617.641 47.6903 617.309 47.7372 617.01 47.7798C616.371 47.8736 615.813 48.0227 615.336 48.2273C614.858 48.4318 614.488 48.7088 614.223 49.0582C613.959 49.3991 613.827 49.8253 613.827 50.3366C613.827 51.0781 614.096 51.6449 614.632 52.0369C615.178 52.4205 615.868 52.6122 616.703 52.6122ZM630.427 56V36.3636H635.707V39.7898H635.912C636.27 38.571 636.87 37.6506 637.714 37.0284C638.558 36.3977 639.529 36.0824 640.629 36.0824C640.902 36.0824 641.196 36.0994 641.511 36.1335C641.826 36.1676 642.103 36.2145 642.342 36.2741V41.1065C642.086 41.0298 641.733 40.9616 641.281 40.902C640.829 40.8423 640.416 40.8125 640.041 40.8125C639.24 40.8125 638.524 40.9872 637.893 41.3366C637.271 41.6776 636.777 42.1548 636.41 42.7685C636.052 43.3821 635.873 44.0895 635.873 44.8906V56H630.427ZM645.158 56V36.3636H650.348V39.8281H650.578C650.987 38.6776 651.669 37.7699 652.624 37.1051C653.578 36.4403 654.72 36.108 656.05 36.108C657.396 36.108 658.543 36.4446 659.489 37.1179C660.435 37.7827 661.065 38.6861 661.381 39.8281H661.585C661.986 38.7031 662.71 37.804 663.759 37.1307C664.815 36.4489 666.064 36.108 667.504 36.108C669.337 36.108 670.824 36.6918 671.966 37.8594C673.116 39.0185 673.692 40.6634 673.692 42.794V56H668.259V43.8679C668.259 42.777 667.969 41.9588 667.389 41.4134C666.81 40.8679 666.085 40.5952 665.216 40.5952C664.227 40.5952 663.456 40.9105 662.902 41.5412C662.348 42.1634 662.071 42.9858 662.071 44.0085V56H656.791V43.7528C656.791 42.7898 656.514 42.0227 655.96 41.4517C655.415 40.8807 654.695 40.5952 653.8 40.5952C653.195 40.5952 652.649 40.7486 652.163 41.0554C651.686 41.3537 651.307 41.7756 651.026 42.321C650.744 42.858 650.604 43.4886 650.604 44.2131V56H645.158ZM683.593 56.3707C682.34 56.3707 681.224 56.1534 680.244 55.7188C679.263 55.2756 678.488 54.6236 677.917 53.7628C677.354 52.8935 677.073 51.8111 677.073 50.5156C677.073 49.4247 677.273 48.5085 677.674 47.767C678.075 47.0256 678.62 46.429 679.31 45.9773C680.001 45.5256 680.785 45.1847 681.663 44.9545C682.549 44.7244 683.478 44.5625 684.45 44.4688C685.592 44.3494 686.512 44.2386 687.211 44.1364C687.91 44.0256 688.417 43.8636 688.732 43.6506C689.048 43.4375 689.205 43.1222 689.205 42.7045V42.6278C689.205 41.8182 688.95 41.1918 688.438 40.7486C687.935 40.3054 687.219 40.0838 686.29 40.0838C685.31 40.0838 684.531 40.3011 683.951 40.7358C683.371 41.1619 682.988 41.6989 682.8 42.3466L677.763 41.9375C678.019 40.7443 678.522 39.7131 679.272 38.8438C680.022 37.9659 680.989 37.2926 682.174 36.8239C683.367 36.3466 684.748 36.108 686.316 36.108C687.407 36.108 688.451 36.2358 689.448 36.4915C690.454 36.7472 691.344 37.1435 692.12 37.6804C692.904 38.2173 693.522 38.9077 693.974 39.7514C694.425 40.5866 694.651 41.5881 694.651 42.7557V56H689.487V53.277H689.333C689.018 53.8906 688.596 54.4318 688.067 54.9006C687.539 55.3608 686.904 55.723 686.163 55.9872C685.421 56.2429 684.565 56.3707 683.593 56.3707ZM685.153 52.6122C685.954 52.6122 686.661 52.4545 687.275 52.1392C687.888 51.8153 688.37 51.3807 688.719 50.8352C689.069 50.2898 689.244 49.6719 689.244 48.9815V46.8977C689.073 47.0085 688.839 47.1108 688.54 47.2045C688.251 47.2898 687.923 47.3707 687.556 47.4474C687.19 47.5156 686.823 47.5795 686.457 47.6392C686.09 47.6903 685.758 47.7372 685.46 47.7798C684.82 47.8736 684.262 48.0227 683.785 48.2273C683.308 48.4318 682.937 48.7088 682.673 49.0582C682.408 49.3991 682.276 49.8253 682.276 50.3366C682.276 51.0781 682.545 51.6449 683.082 52.0369C683.627 52.4205 684.317 52.6122 685.153 52.6122ZM707.749 56.3835C705.737 56.3835 704.007 55.9574 702.558 55.1051C701.118 54.2443 700.01 53.0511 699.234 51.5256C698.467 50 698.084 48.2443 698.084 46.2585C698.084 44.2472 698.472 42.483 699.247 40.9659C700.031 39.4403 701.143 38.2514 702.584 37.3991C704.024 36.5384 705.737 36.108 707.723 36.108C709.436 36.108 710.936 36.419 712.223 37.0412C713.51 37.6634 714.528 38.5369 715.278 39.6619C716.028 40.7869 716.442 42.108 716.518 43.625H711.379C711.234 42.6449 710.851 41.8565 710.229 41.2599C709.615 40.6548 708.81 40.3523 707.812 40.3523C706.969 40.3523 706.232 40.5824 705.601 41.0426C704.979 41.4943 704.493 42.1548 704.143 43.0241C703.794 43.8935 703.619 44.946 703.619 46.1818C703.619 47.4347 703.79 48.5 704.131 49.3778C704.48 50.2557 704.97 50.9247 705.601 51.3849C706.232 51.8452 706.969 52.0753 707.812 52.0753C708.435 52.0753 708.993 51.9474 709.487 51.6918C709.99 51.4361 710.403 51.0653 710.727 50.5795C711.06 50.0852 711.277 49.4929 711.379 48.8026H716.518C716.433 50.3026 716.024 51.6236 715.291 52.7656C714.567 53.8991 713.565 54.7855 712.287 55.4247C711.009 56.0639 709.496 56.3835 707.749 56.3835ZM723.368 63.3636C722.677 63.3636 722.029 63.3082 721.424 63.1974C720.828 63.0952 720.333 62.9631 719.941 62.8011L721.169 58.7358C721.808 58.9318 722.383 59.0384 722.895 59.0554C723.414 59.0724 723.862 58.9531 724.237 58.6974C724.62 58.4418 724.931 58.0071 725.17 57.3935L725.49 56.5625L718.446 36.3636H724.173L728.238 50.7841H728.443L732.547 36.3636H738.312L730.68 58.1222C730.314 59.179 729.815 60.0994 729.184 60.8835C728.562 61.6761 727.774 62.2855 726.819 62.7116C725.865 63.1463 724.714 63.3636 723.368 63.3636ZM749.533 56V29.8182H755.069V51.4361H766.293V56H749.533ZM775.456 56.3707C774.203 56.3707 773.087 56.1534 772.107 55.7188C771.127 55.2756 770.351 54.6236 769.78 53.7628C769.218 52.8935 768.936 51.8111 768.936 50.5156C768.936 49.4247 769.137 48.5085 769.537 47.767C769.938 47.0256 770.483 46.429 771.174 45.9773C771.864 45.5256 772.648 45.1847 773.526 44.9545C774.412 44.7244 775.341 44.5625 776.313 44.4688C777.455 44.3494 778.375 44.2386 779.074 44.1364C779.773 44.0256 780.28 43.8636 780.596 43.6506C780.911 43.4375 781.069 43.1222 781.069 42.7045V42.6278C781.069 41.8182 780.813 41.1918 780.301 40.7486C779.799 40.3054 779.083 40.0838 778.154 40.0838C777.174 40.0838 776.394 40.3011 775.814 40.7358C775.235 41.1619 774.851 41.6989 774.664 42.3466L769.627 41.9375C769.882 40.7443 770.385 39.7131 771.135 38.8438C771.885 37.9659 772.853 37.2926 774.037 36.8239C775.23 36.3466 776.611 36.108 778.179 36.108C779.27 36.108 780.314 36.2358 781.311 36.4915C782.317 36.7472 783.208 37.1435 783.983 37.6804C784.767 38.2173 785.385 38.9077 785.837 39.7514C786.289 40.5866 786.515 41.5881 786.515 42.7557V56H781.35V53.277H781.196C780.881 53.8906 780.459 54.4318 779.931 54.9006C779.402 55.3608 778.767 55.723 778.026 55.9872C777.284 56.2429 776.428 56.3707 775.456 56.3707ZM777.016 52.6122C777.817 52.6122 778.525 52.4545 779.138 52.1392C779.752 51.8153 780.233 51.3807 780.583 50.8352C780.932 50.2898 781.107 49.6719 781.107 48.9815V46.8977C780.936 47.0085 780.702 47.1108 780.404 47.2045C780.114 47.2898 779.786 47.3707 779.419 47.4474C779.053 47.5156 778.686 47.5795 778.32 47.6392C777.953 47.6903 777.621 47.7372 777.323 47.7798C776.684 47.8736 776.125 48.0227 775.648 48.2273C775.171 48.4318 774.8 48.7088 774.536 49.0582C774.272 49.3991 774.14 49.8253 774.14 50.3366C774.14 51.0781 774.408 51.6449 774.945 52.0369C775.49 52.4205 776.181 52.6122 777.016 52.6122ZM796.186 44.6477V56H790.74V36.3636H795.93V39.8281H796.16C796.595 38.6861 797.324 37.7827 798.346 37.1179C799.369 36.4446 800.609 36.108 802.066 36.108C803.43 36.108 804.619 36.4062 805.633 37.0028C806.647 37.5994 807.436 38.4517 807.998 39.5597C808.561 40.6591 808.842 41.9716 808.842 43.4972V56H803.396V44.4688C803.404 43.267 803.098 42.3295 802.475 41.6562C801.853 40.9744 800.997 40.6335 799.906 40.6335C799.173 40.6335 798.525 40.7912 797.963 41.1065C797.409 41.4219 796.974 41.8821 796.659 42.4872C796.352 43.0838 796.194 43.804 796.186 44.6477ZM820.37 56.3196C818.879 56.3196 817.528 55.9361 816.317 55.169C815.116 54.3935 814.161 53.2557 813.454 51.7557C812.755 50.2472 812.406 48.3977 812.406 46.2074C812.406 43.9574 812.768 42.0866 813.492 40.5952C814.217 39.0952 815.18 37.9744 816.381 37.233C817.592 36.483 818.917 36.108 820.357 36.108C821.457 36.108 822.373 36.2955 823.106 36.6705C823.847 37.0369 824.444 37.4972 824.896 38.0511C825.356 38.5966 825.705 39.1335 825.944 39.6619H826.11V29.8182H831.543V56H826.174V52.8551H825.944C825.688 53.4006 825.326 53.9418 824.857 54.4787C824.397 55.0071 823.796 55.446 823.055 55.7955C822.322 56.1449 821.427 56.3196 820.37 56.3196ZM822.096 51.9858C822.974 51.9858 823.715 51.7472 824.32 51.2699C824.934 50.7841 825.403 50.1065 825.727 49.2372C826.059 48.3679 826.225 47.3494 826.225 46.1818C826.225 45.0142 826.063 44 825.739 43.1392C825.415 42.2784 824.947 41.6136 824.333 41.1449C823.719 40.6761 822.974 40.4418 822.096 40.4418C821.201 40.4418 820.447 40.6847 819.833 41.1705C819.219 41.6562 818.755 42.3295 818.44 43.1903C818.124 44.0511 817.967 45.0483 817.967 46.1818C817.967 47.3239 818.124 48.3338 818.44 49.2116C818.763 50.081 819.228 50.7628 819.833 51.2571C820.447 51.7429 821.201 51.9858 822.096 51.9858ZM852.359 41.9631L847.373 42.2699C847.288 41.8437 847.105 41.4602 846.824 41.1193C846.542 40.7699 846.172 40.4929 845.711 40.2884C845.26 40.0753 844.718 39.9688 844.088 39.9688C843.244 39.9688 842.532 40.1477 841.953 40.5057C841.373 40.8551 841.083 41.3239 841.083 41.9119C841.083 42.3807 841.271 42.777 841.646 43.1009C842.021 43.4247 842.664 43.6847 843.576 43.8807L847.13 44.5966C849.039 44.9886 850.463 45.6193 851.4 46.4886C852.338 47.358 852.806 48.5 852.806 49.9148C852.806 51.2017 852.427 52.331 851.669 53.3026C850.919 54.2741 849.887 55.0327 848.575 55.5781C847.271 56.1151 845.767 56.3835 844.062 56.3835C841.463 56.3835 839.392 55.8423 837.849 54.7599C836.315 53.669 835.416 52.1861 835.152 50.3111L840.508 50.0298C840.67 50.8224 841.062 51.4276 841.684 51.8452C842.306 52.2543 843.103 52.4588 844.075 52.4588C845.029 52.4588 845.797 52.2756 846.376 51.9091C846.964 51.5341 847.262 51.0526 847.271 50.4645C847.262 49.9702 847.054 49.5653 846.645 49.25C846.235 48.9261 845.605 48.679 844.752 48.5085L841.352 47.831C839.434 47.4474 838.007 46.7827 837.069 45.8366C836.14 44.8906 835.676 43.6847 835.676 42.2188C835.676 40.9574 836.017 39.8707 836.699 38.9588C837.389 38.0469 838.356 37.3438 839.6 36.8494C840.853 36.3551 842.319 36.108 843.998 36.108C846.478 36.108 848.43 36.6321 849.853 37.6804C851.285 38.7287 852.12 40.1562 852.359 41.9631ZM865.108 56.3835C863.097 56.3835 861.366 55.9574 859.918 55.1051C858.477 54.2443 857.369 53.0511 856.594 51.5256C855.827 50 855.443 48.2443 855.443 46.2585C855.443 44.2472 855.831 42.483 856.607 40.9659C857.391 39.4403 858.503 38.2514 859.943 37.3991C861.384 36.5384 863.097 36.108 865.082 36.108C866.795 36.108 868.295 36.419 869.582 37.0412C870.869 37.6634 871.888 38.5369 872.638 39.6619C873.388 40.7869 873.801 42.108 873.878 43.625H868.739C868.594 42.6449 868.21 41.8565 867.588 41.2599C866.974 40.6548 866.169 40.3523 865.172 40.3523C864.328 40.3523 863.591 40.5824 862.96 41.0426C862.338 41.4943 861.852 42.1548 861.503 43.0241C861.153 43.8935 860.979 44.946 860.979 46.1818C860.979 47.4347 861.149 48.5 861.49 49.3778C861.839 50.2557 862.33 50.9247 862.96 51.3849C863.591 51.8452 864.328 52.0753 865.172 52.0753C865.794 52.0753 866.352 51.9474 866.847 51.6918C867.349 51.4361 867.763 51.0653 868.087 50.5795C868.419 50.0852 868.636 49.4929 868.739 48.8026H873.878C873.793 50.3026 873.384 51.6236 872.651 52.7656C871.926 53.8991 870.925 54.7855 869.646 55.4247C868.368 56.0639 866.855 56.3835 865.108 56.3835ZM882.964 56.3707C881.711 56.3707 880.595 56.1534 879.615 55.7188C878.635 55.2756 877.859 54.6236 877.288 53.7628C876.725 52.8935 876.444 51.8111 876.444 50.5156C876.444 49.4247 876.645 48.5085 877.045 47.767C877.446 47.0256 877.991 46.429 878.681 45.9773C879.372 45.5256 880.156 45.1847 881.034 44.9545C881.92 44.7244 882.849 44.5625 883.821 44.4688C884.963 44.3494 885.883 44.2386 886.582 44.1364C887.281 44.0256 887.788 43.8636 888.103 43.6506C888.419 43.4375 888.576 43.1222 888.576 42.7045V42.6278C888.576 41.8182 888.321 41.1918 887.809 40.7486C887.306 40.3054 886.591 40.0838 885.662 40.0838C884.681 40.0838 883.902 40.3011 883.322 40.7358C882.743 41.1619 882.359 41.6989 882.172 42.3466L877.135 41.9375C877.39 40.7443 877.893 39.7131 878.643 38.8438C879.393 37.9659 880.36 37.2926 881.545 36.8239C882.738 36.3466 884.119 36.108 885.687 36.108C886.778 36.108 887.822 36.2358 888.819 36.4915C889.825 36.7472 890.716 37.1435 891.491 37.6804C892.275 38.2173 892.893 38.9077 893.345 39.7514C893.797 40.5866 894.022 41.5881 894.022 42.7557V56H888.858V53.277H888.704C888.389 53.8906 887.967 54.4318 887.439 54.9006C886.91 55.3608 886.275 55.723 885.534 55.9872C884.792 56.2429 883.936 56.3707 882.964 56.3707ZM884.524 52.6122C885.325 52.6122 886.032 52.4545 886.646 52.1392C887.26 51.8153 887.741 51.3807 888.091 50.8352C888.44 50.2898 888.615 49.6719 888.615 48.9815V46.8977C888.444 47.0085 888.21 47.1108 887.912 47.2045C887.622 47.2898 887.294 47.3707 886.927 47.4474C886.561 47.5156 886.194 47.5795 885.828 47.6392C885.461 47.6903 885.129 47.7372 884.831 47.7798C884.191 47.8736 883.633 48.0227 883.156 48.2273C882.679 48.4318 882.308 48.7088 882.044 49.0582C881.779 49.3991 881.647 49.8253 881.647 50.3366C881.647 51.0781 881.916 51.6449 882.453 52.0369C882.998 52.4205 883.689 52.6122 884.524 52.6122ZM898.248 63.3636V36.3636H903.617V39.6619H903.86C904.098 39.1335 904.444 38.5966 904.895 38.0511C905.355 37.4972 905.952 37.0369 906.685 36.6705C907.426 36.2955 908.347 36.108 909.446 36.108C910.878 36.108 912.199 36.483 913.409 37.233C914.62 37.9744 915.587 39.0952 916.311 40.5952C917.036 42.0866 917.398 43.9574 917.398 46.2074C917.398 48.3977 917.044 50.2472 916.337 51.7557C915.638 53.2557 914.684 54.3935 913.473 55.169C912.272 55.9361 910.925 56.3196 909.434 56.3196C908.377 56.3196 907.478 56.1449 906.736 55.7955C906.003 55.446 905.402 55.0071 904.934 54.4787C904.465 53.9418 904.107 53.4006 903.86 52.8551H903.694V63.3636H898.248ZM903.578 46.1818C903.578 47.3494 903.74 48.3679 904.064 49.2372C904.388 50.1065 904.857 50.7841 905.471 51.2699C906.084 51.7472 906.83 51.9858 907.708 51.9858C908.594 51.9858 909.344 51.7429 909.958 51.2571C910.571 50.7628 911.036 50.081 911.351 49.2116C911.675 48.3338 911.837 47.3239 911.837 46.1818C911.837 45.0483 911.679 44.0511 911.364 43.1903C911.049 42.3295 910.584 41.6562 909.971 41.1705C909.357 40.6847 908.603 40.4418 907.708 40.4418C906.821 40.4418 906.071 40.6761 905.458 41.1449C904.853 41.6136 904.388 42.2784 904.064 43.1392C903.74 44 903.578 45.0142 903.578 46.1818ZM929.978 56.3835C927.958 56.3835 926.219 55.9744 924.762 55.1562C923.313 54.3295 922.196 53.1619 921.412 51.6534C920.628 50.1364 920.236 48.3423 920.236 46.2713C920.236 44.2514 920.628 42.4787 921.412 40.9531C922.196 39.4276 923.3 38.2386 924.723 37.3864C926.155 36.5341 927.834 36.108 929.76 36.108C931.056 36.108 932.262 36.3168 933.378 36.7344C934.503 37.1435 935.483 37.7614 936.319 38.5881C937.162 39.4148 937.819 40.4545 938.287 41.7074C938.756 42.9517 938.99 44.4091 938.99 46.0795V47.5753H922.409V44.2003H933.864C933.864 43.4162 933.694 42.7216 933.353 42.1165C933.012 41.5114 932.539 41.0384 931.934 40.6974C931.337 40.348 930.642 40.1733 929.85 40.1733C929.023 40.1733 928.29 40.3651 927.651 40.7486C927.02 41.1236 926.526 41.6307 926.168 42.2699C925.81 42.9006 925.627 43.6037 925.618 44.3793V47.5881C925.618 48.5597 925.797 49.3991 926.155 50.1065C926.522 50.8139 927.037 51.3594 927.702 51.7429C928.367 52.1264 929.155 52.3182 930.067 52.3182C930.672 52.3182 931.226 52.233 931.729 52.0625C932.232 51.892 932.662 51.6364 933.02 51.2955C933.378 50.9545 933.651 50.5369 933.838 50.0426L938.875 50.375C938.62 51.5852 938.096 52.642 937.303 53.5455C936.519 54.4403 935.505 55.1392 934.26 55.642C933.025 56.1364 931.597 56.3835 929.978 56.3835Z" fill="#0F766E"/>
<defs>
<filter id="filter0_d_28_34" x="0" y="0" width="275" height="1084" filterUnits="userSpaceOnUse" color-interpolation-filters="sRGB">
<feFlood flood-opacity="0" result="BackgroundImageFix"/>
<feColorMatrix in="SourceAlpha" type="matrix" values="0 0 0 0 0 0 0 0 0 0 0 0 0 0 0 0 0 0 127 0" result="hardAlpha"/>
<feOffset dx="4" dy="4"/>
<feComposite in2="hardAlpha" operator="out"/>
<feColorMatrix type="matrix" values="0 0 0 0 0 0 0 0 0 0 0 0 0 0 0 0 0 0 0.01 0"/>
<feBlend mode="normal" in2="BackgroundImageFix" result="effect1_dropShadow_28_34"/>
<feBlend mode="normal" in="SourceGraphic" in2="effect1_dropShadow_28_34" result="shape"/>
</filter>
<filter id="filter1_d_28_34" x="305" y="342" width="987" height="358" filterUnits="userSpaceOnUse" color-interpolation-filters="sRGB">
<feFlood flood-opacity="0" result="BackgroundImageFix"/>
<feColorMatrix in="SourceAlpha" type="matrix" values="0 0 0 0 0 0 0 0 0 0 0 0 0 0 0 0 0 0 127 0" result="hardAlpha"/>
<feOffset dy="4"/>
<feGaussianBlur stdDeviation="2"/>
<feComposite in2="hardAlpha" operator="out"/>
<feColorMatrix type="matrix" values="0 0 0 0 0.86446 0 0 0 0 0.899038 0 0 0 0 0.896353 0 0 0 1 0"/>
<feBlend mode="normal" in2="BackgroundImageFix" result="effect1_dropShadow_28_34"/>
<feBlend mode="normal" in="SourceGraphic" in2="effect1_dropShadow_28_34" result="shape"/>
</filter>
<filter id="filter2_d_28_34" x="305" y="712" width="987" height="356" filterUnits="userSpaceOnUse" color-interpolation-filters="sRGB">
<feFlood flood-opacity="0" result="BackgroundImageFix"/>
<feColorMatrix in="SourceAlpha" type="matrix" values="0 0 0 0 0 0 0 0 0 0 0 0 0 0 0 0 0 0 127 0" result="hardAlpha"/>
<feOffset dy="4"/>
<feGaussianBlur stdDeviation="2"/>
<feComposite in2="hardAlpha" operator="out"/>
<feColorMatrix type="matrix" values="0 0 0 0 0.86446 0 0 0 0 0.899038 0 0 0 0 0.896353 0 0 0 1 0"/>
<feBlend mode="normal" in2="BackgroundImageFix" result="effect1_dropShadow_28_34"/>
<feBlend mode="normal" in="SourceGraphic" in2="effect1_dropShadow_28_34" result="shape"/>
</filter>
<filter id="filter3_d_28_34" x="1304" y="712" width="582" height="356" filterUnits="userSpaceOnUse" color-interpolation-filters="sRGB">
<feFlood flood-opacity="0" result="BackgroundImageFix"/>
<feColorMatrix in="SourceAlpha" type="matrix" values="0 0 0 0 0 0 0 0 0 0 0 0 0 0 0 0 0 0 127 0" result="hardAlpha"/>
<feOffset dy="4"/>
<feGaussianBlur stdDeviation="2"/>
<feComposite in2="hardAlpha" operator="out"/>
<feColorMatrix type="matrix" values="0 0 0 0 0.86446 0 0 0 0 0.899038 0 0 0 0 0.896353 0 0 0 1 0"/>
<feBlend mode="normal" in2="BackgroundImageFix" result="effect1_dropShadow_28_34"/>
<feBlend mode="normal" in="SourceGraphic" in2="effect1_dropShadow_28_34" result="shape"/>
</filter>
<filter id="filter4_d_28_34" x="1304" y="342" width="582" height="358" filterUnits="userSpaceOnUse" color-interpolation-filters="sRGB">
<feFlood flood-opacity="0" result="BackgroundImageFix"/>
<feColorMatrix in="SourceAlpha" type="matrix" values="0 0 0 0 0 0 0 0 0 0 0 0 0 0 0 0 0 0 127 0" result="hardAlpha"/>
<feOffset dy="4"/>
<feGaussianBlur stdDeviation="2"/>
<feComposite in2="hardAlpha" operator="out"/>
<feColorMatrix type="matrix" values="0 0 0 0 0.86446 0 0 0 0 0.899038 0 0 0 0 0.896353 0 0 0 1 0"/>
<feBlend mode="normal" in2="BackgroundImageFix" result="effect1_dropShadow_28_34"/>
<feBlend mode="normal" in="SourceGraphic" in2="effect1_dropShadow_28_34" result="shape"/>
</filter>
<linearGradient id="paint0_linear_28_34" x1="135.5" y1="0" x2="135.5" y2="1080" gradientUnits="userSpaceOnUse">
<stop stop-color="#0F766E"/>
<stop offset="0.244909" stop-color="#11857C"/>
<stop offset="0.384615" stop-color="#128D83"/>
<stop offset="0.530532" stop-color="#16ACA0"/>
<stop offset="0.698319" stop-color="#18BDB0"/>
<stop offset="0.848175" stop-color="#1ACDBF"/>
<stop offset="1" stop-color="#1CDCCD"/>
</linearGradient>
</defs>
</svg>
