<svg width="1920" height="1084" viewBox="0 0 1920 1084" fill="none" xmlns="http://www.w3.org/2000/svg">
<rect width="1920" height="1080" rx="12" fill="white"/>
<g filter="url(#filter0_d_43_3)">
<rect x="309" y="140" width="785" height="346" rx="12" fill="white"/>
</g>
<g filter="url(#filter1_d_43_3)">
<rect x="309" y="510" width="785" height="327" rx="12" fill="white"/>
</g>
<g filter="url(#filter2_d_43_3)">
<mask id="path-4-inside-1_43_3" fill="white">
<path d="M309 869C309 862.373 314.373 857 321 857H1867C1873.63 857 1879 862.373 1879 869V1047C1879 1053.63 1873.63 1059 1867 1059H321C314.373 1059 309 1053.63 309 1047V869Z"/>
</mask>
<path d="M309 869C309 862.373 314.373 857 321 857H1867C1873.63 857 1879 862.373 1879 869V1047C1879 1053.63 1873.63 1059 1867 1059H321C314.373 1059 309 1053.63 309 1047V869Z" fill="#FDEFB1"/>
<path d="M309 857H1879H309M309 857M1879 1059H309H1879M321 1059C312.163 1059 305 1051.84 305 1043V873C305 864.163 312.163 857 321 857C316.582 857 313 862.373 313 869V1047C313 1053.63 316.582 1059 321 1059ZM321 1059M1879 857V1059V857" fill="#F49E0B" mask="url(#path-4-inside-1_43_3)"/>
</g>
<g filter="url(#filter3_d_43_3)">
<rect x="1114" y="510" width="765" height="327" rx="12" fill="white"/>
</g>
<g filter="url(#filter4_d_43_3)">
<rect x="1114" y="140" width="768" height="346" rx="12" fill="white"/>
</g>
<line x1="309" y1="100.75" x2="1882.01" y2="100.75" stroke="#0F766E" stroke-width="3"/>
<path d="M321.364 79C321.239 78.6174 321.074 78.2746 320.869 77.9716C320.669 77.6648 320.428 77.4034 320.148 77.1875C319.871 76.9716 319.557 76.8068 319.205 76.6932C318.852 76.5795 318.466 76.5227 318.045 76.5227C317.356 76.5227 316.729 76.7008 316.165 77.0568C315.6 77.4129 315.152 77.9375 314.818 78.6307C314.485 79.3239 314.318 80.1742 314.318 81.1818C314.318 82.1894 314.487 83.0398 314.824 83.733C315.161 84.4261 315.617 84.9508 316.193 85.3068C316.769 85.6629 317.417 85.8409 318.136 85.8409C318.803 85.8409 319.39 85.6989 319.898 85.4148C320.409 85.1269 320.807 84.7216 321.091 84.1989C321.379 83.6723 321.523 83.053 321.523 82.3409L321.955 82.4318H318.455V81.1818H322.886V82.4318C322.886 83.3902 322.682 84.2235 322.273 84.9318C321.867 85.6402 321.307 86.1894 320.591 86.5795C319.879 86.9659 319.061 87.1591 318.136 87.1591C317.106 87.1591 316.201 86.9167 315.42 86.4318C314.644 85.947 314.038 85.2576 313.602 84.3636C313.17 83.4697 312.955 82.4091 312.955 81.1818C312.955 80.2614 313.078 79.4337 313.324 78.6989C313.574 77.9602 313.926 77.3314 314.381 76.8125C314.835 76.2936 315.373 75.8958 315.994 75.6193C316.616 75.3428 317.299 75.2045 318.045 75.2045C318.659 75.2045 319.231 75.2973 319.761 75.483C320.295 75.6648 320.771 75.9242 321.188 76.2614C321.608 76.5947 321.958 76.9943 322.239 77.4602C322.519 77.9223 322.712 78.4356 322.818 79H321.364ZM328.777 87.1818C327.936 87.1818 327.211 86.9962 326.601 86.625C325.995 86.25 325.527 85.7273 325.197 85.0568C324.872 84.3826 324.709 83.5985 324.709 82.7045C324.709 81.8106 324.872 81.0227 325.197 80.3409C325.527 79.6553 325.985 79.1212 326.572 78.7386C327.163 78.3523 327.853 78.1591 328.641 78.1591C329.095 78.1591 329.544 78.2348 329.987 78.3864C330.43 78.5379 330.834 78.7841 331.197 79.125C331.561 79.4621 331.851 79.9091 332.067 80.4659C332.283 81.0227 332.391 81.7083 332.391 82.5227V83.0909H325.663V81.9318H331.027C331.027 81.4394 330.929 81 330.732 80.6136C330.538 80.2273 330.262 79.9223 329.902 79.6989C329.546 79.4754 329.125 79.3636 328.641 79.3636C328.107 79.3636 327.644 79.4962 327.254 79.7614C326.868 80.0227 326.571 80.3636 326.362 80.7841C326.154 81.2045 326.05 81.6553 326.05 82.1364V82.9091C326.05 83.5682 326.163 84.1269 326.391 84.5852C326.622 85.0398 326.942 85.3864 327.351 85.625C327.76 85.8598 328.235 85.9773 328.777 85.9773C329.129 85.9773 329.447 85.928 329.732 85.8295C330.019 85.7273 330.268 85.5758 330.476 85.375C330.684 85.1705 330.845 84.9167 330.959 84.6136L332.254 84.9773C332.118 85.4167 331.889 85.803 331.567 86.1364C331.245 86.4659 330.847 86.7235 330.374 86.9091C329.9 87.0909 329.368 87.1818 328.777 87.1818ZM337.976 87.1818C337.188 87.1818 336.497 86.9943 335.902 86.6193C335.311 86.2443 334.849 85.7197 334.516 85.0455C334.186 84.3712 334.021 83.5833 334.021 82.6818C334.021 81.7727 334.186 80.9792 334.516 80.3011C334.849 79.6231 335.311 79.0966 335.902 78.7216C336.497 78.3466 337.188 78.1591 337.976 78.1591C338.764 78.1591 339.453 78.3466 340.044 78.7216C340.639 79.0966 341.101 79.6231 341.43 80.3011C341.764 80.9792 341.93 81.7727 341.93 82.6818C341.93 83.5833 341.764 84.3712 341.43 85.0455C341.101 85.7197 340.639 86.2443 340.044 86.6193C339.453 86.9943 338.764 87.1818 337.976 87.1818ZM337.976 85.9773C338.574 85.9773 339.067 85.8239 339.453 85.517C339.839 85.2102 340.125 84.8068 340.311 84.3068C340.497 83.8068 340.589 83.2652 340.589 82.6818C340.589 82.0985 340.497 81.5549 340.311 81.0511C340.125 80.5473 339.839 80.1402 339.453 79.8295C339.067 79.5189 338.574 79.3636 337.976 79.3636C337.377 79.3636 336.885 79.5189 336.499 79.8295C336.112 80.1402 335.826 80.5473 335.641 81.0511C335.455 81.5549 335.362 82.0985 335.362 82.6818C335.362 83.2652 335.455 83.8068 335.641 84.3068C335.826 84.8068 336.112 85.2102 336.499 85.517C336.885 85.8239 337.377 85.9773 337.976 85.9773ZM347.5 90.4545C346.852 90.4545 346.295 90.3712 345.83 90.2045C345.364 90.0417 344.975 89.8258 344.665 89.5568C344.358 89.2917 344.114 89.0076 343.932 88.7045L345 87.9545C345.121 88.1136 345.275 88.2955 345.46 88.5C345.646 88.7083 345.9 88.8883 346.222 89.0398C346.547 89.1951 346.973 89.2727 347.5 89.2727C348.205 89.2727 348.786 89.1023 349.244 88.7614C349.703 88.4205 349.932 87.8864 349.932 87.1591V85.3864H349.818C349.72 85.5455 349.58 85.7424 349.398 85.9773C349.22 86.2083 348.962 86.4148 348.625 86.5966C348.292 86.7746 347.841 86.8636 347.273 86.8636C346.568 86.8636 345.936 86.697 345.375 86.3636C344.818 86.0303 344.377 85.5455 344.051 84.9091C343.729 84.2727 343.568 83.5 343.568 82.5909C343.568 81.697 343.725 80.9186 344.04 80.2557C344.354 79.589 344.792 79.0739 345.352 78.7102C345.913 78.3428 346.561 78.1591 347.295 78.1591C347.864 78.1591 348.314 78.2538 348.648 78.4432C348.985 78.6288 349.242 78.8409 349.42 79.0795C349.602 79.3144 349.742 79.5076 349.841 79.6591H349.977V78.2727H351.273V87.25C351.273 88 351.102 88.6098 350.761 89.0795C350.424 89.553 349.97 89.8996 349.398 90.1193C348.83 90.3428 348.197 90.4545 347.5 90.4545ZM347.455 85.6591C347.992 85.6591 348.447 85.536 348.818 85.2898C349.189 85.0436 349.472 84.6894 349.665 84.2273C349.858 83.7652 349.955 83.2121 349.955 82.5682C349.955 81.9394 349.86 81.3845 349.67 80.9034C349.481 80.4223 349.201 80.0455 348.83 79.7727C348.458 79.5 348 79.3636 347.455 79.3636C346.886 79.3636 346.413 79.5076 346.034 79.7955C345.659 80.0833 345.377 80.4697 345.188 80.9545C345.002 81.4394 344.909 81.9773 344.909 82.5682C344.909 83.1742 345.004 83.7102 345.193 84.1761C345.386 84.6383 345.67 85.0019 346.045 85.267C346.424 85.5284 346.894 85.6591 347.455 85.6591ZM353.727 87V78.2727H355.023V79.5909H355.114C355.273 79.1591 355.561 78.8087 355.977 78.5398C356.394 78.2708 356.864 78.1364 357.386 78.1364C357.485 78.1364 357.608 78.1383 357.756 78.142C357.903 78.1458 358.015 78.1515 358.091 78.1591V79.5227C358.045 79.5114 357.941 79.4943 357.778 79.4716C357.619 79.4451 357.451 79.4318 357.273 79.4318C356.848 79.4318 356.47 79.5208 356.136 79.6989C355.807 79.8731 355.545 80.1155 355.352 80.4261C355.163 80.733 355.068 81.0833 355.068 81.4773V87H353.727ZM362.249 87.2045C361.696 87.2045 361.194 87.1004 360.743 86.892C360.292 86.6799 359.934 86.375 359.669 85.9773C359.404 85.5758 359.271 85.0909 359.271 84.5227C359.271 84.0227 359.37 83.6174 359.567 83.3068C359.764 82.9924 360.027 82.7462 360.357 82.5682C360.686 82.3902 361.05 82.2576 361.447 82.1705C361.849 82.0795 362.252 82.0076 362.658 81.9545C363.188 81.8864 363.618 81.8352 363.947 81.8011C364.281 81.7633 364.523 81.7008 364.675 81.6136C364.83 81.5265 364.908 81.375 364.908 81.1591V81.1136C364.908 80.553 364.754 80.1174 364.447 79.8068C364.144 79.4962 363.684 79.3409 363.067 79.3409C362.427 79.3409 361.925 79.4811 361.561 79.7614C361.197 80.0417 360.942 80.3409 360.794 80.6591L359.521 80.2045C359.749 79.6742 360.052 79.2614 360.43 78.9659C360.813 78.6667 361.23 78.4583 361.68 78.3409C362.135 78.2197 362.582 78.1591 363.021 78.1591C363.302 78.1591 363.624 78.1932 363.987 78.2614C364.355 78.3258 364.709 78.4602 365.05 78.6648C365.394 78.8693 365.68 79.178 365.908 79.5909C366.135 80.0038 366.249 80.5568 366.249 81.25V87H364.908V85.8182H364.839C364.749 86.0076 364.597 86.2102 364.385 86.4261C364.173 86.642 363.891 86.8258 363.538 86.9773C363.186 87.1288 362.756 87.2045 362.249 87.2045ZM362.453 86C362.983 86 363.43 85.8958 363.794 85.6875C364.161 85.4792 364.438 85.2102 364.624 84.8807C364.813 84.5511 364.908 84.2045 364.908 83.8409V82.6136C364.851 82.6818 364.726 82.7443 364.533 82.8011C364.343 82.8542 364.124 82.9015 363.874 82.9432C363.627 82.9811 363.387 83.0152 363.152 83.0455C362.921 83.072 362.733 83.0947 362.589 83.1136C362.241 83.1591 361.915 83.233 361.612 83.3352C361.313 83.4337 361.071 83.5833 360.885 83.7841C360.703 83.9811 360.612 84.25 360.612 84.5909C360.612 85.0568 360.785 85.4091 361.129 85.6477C361.478 85.8826 361.919 86 362.453 86ZM368.696 90.2727V78.2727H369.991V79.6591H370.151C370.249 79.5076 370.385 79.3144 370.56 79.0795C370.738 78.8409 370.991 78.6288 371.321 78.4432C371.654 78.2538 372.105 78.1591 372.673 78.1591C373.408 78.1591 374.056 78.3428 374.616 78.7102C375.177 79.0777 375.615 79.5985 375.929 80.2727C376.243 80.947 376.401 81.7424 376.401 82.6591C376.401 83.5833 376.243 84.3845 375.929 85.0625C375.615 85.7367 375.179 86.2595 374.622 86.6307C374.065 86.9981 373.423 87.1818 372.696 87.1818C372.135 87.1818 371.687 87.089 371.349 86.9034C371.012 86.714 370.753 86.5 370.571 86.2614C370.389 86.0189 370.249 85.8182 370.151 85.6591H370.037V90.2727H368.696ZM370.014 82.6364C370.014 83.2955 370.111 83.8769 370.304 84.3807C370.497 84.8807 370.779 85.2727 371.151 85.5568C371.522 85.8371 371.976 85.9773 372.514 85.9773C373.075 85.9773 373.543 85.8295 373.918 85.5341C374.296 85.2348 374.58 84.8333 374.77 84.3295C374.963 83.822 375.06 83.2576 375.06 82.6364C375.06 82.0227 374.965 81.4697 374.776 80.9773C374.59 80.4811 374.308 80.089 373.929 79.8011C373.554 79.5095 373.082 79.3636 372.514 79.3636C371.969 79.3636 371.51 79.5019 371.139 79.7784C370.768 80.0511 370.488 80.4337 370.298 80.9261C370.109 81.4148 370.014 81.9848 370.014 82.6364ZM379.787 81.75V87H378.446V75.3636H379.787V79.6364H379.901C380.105 79.1856 380.412 78.8277 380.821 78.5625C381.234 78.2936 381.783 78.1591 382.469 78.1591C383.063 78.1591 383.584 78.2784 384.031 78.517C384.478 78.7519 384.825 79.1136 385.071 79.6023C385.321 80.0871 385.446 80.7045 385.446 81.4545V87H384.105V81.5455C384.105 80.8523 383.925 80.3163 383.565 79.9375C383.209 79.5549 382.715 79.3636 382.082 79.3636C381.643 79.3636 381.249 79.4564 380.901 79.642C380.556 79.8277 380.283 80.0985 380.082 80.4545C379.885 80.8106 379.787 81.2424 379.787 81.75ZM387.899 87V78.2727H389.24V87H387.899ZM388.581 76.8182C388.32 76.8182 388.094 76.7292 387.905 76.5511C387.719 76.3731 387.626 76.1591 387.626 75.9091C387.626 75.6591 387.719 75.4451 387.905 75.267C388.094 75.089 388.32 75 388.581 75C388.842 75 389.066 75.089 389.251 75.267C389.441 75.4451 389.536 75.6591 389.536 75.9091C389.536 76.1591 389.441 76.3731 389.251 76.5511C389.066 76.7292 388.842 76.8182 388.581 76.8182ZM395.241 87.1818C394.423 87.1818 393.719 86.9886 393.128 86.6023C392.537 86.2159 392.082 85.6837 391.764 85.0057C391.446 84.3277 391.287 83.553 391.287 82.6818C391.287 81.7955 391.45 81.0133 391.776 80.3352C392.105 79.6534 392.563 79.1212 393.151 78.7386C393.741 78.3523 394.431 78.1591 395.219 78.1591C395.832 78.1591 396.385 78.2727 396.878 78.5C397.37 78.7273 397.774 79.0455 398.088 79.4545C398.402 79.8636 398.598 80.3409 398.673 80.8864H397.332C397.23 80.4886 397.003 80.1364 396.651 79.8295C396.302 79.5189 395.832 79.3636 395.241 79.3636C394.719 79.3636 394.26 79.5 393.866 79.7727C393.476 80.0417 393.171 80.4223 392.952 80.9148C392.736 81.4034 392.628 81.9773 392.628 82.6364C392.628 83.3106 392.734 83.8977 392.946 84.3977C393.162 84.8977 393.465 85.286 393.855 85.5625C394.249 85.839 394.711 85.9773 395.241 85.9773C395.59 85.9773 395.906 85.9167 396.19 85.7955C396.474 85.6742 396.715 85.5 396.912 85.2727C397.109 85.0455 397.249 84.7727 397.332 84.4545H398.673C398.598 84.9697 398.41 85.4337 398.111 85.8466C397.815 86.2557 397.423 86.5814 396.935 86.8239C396.45 87.0625 395.885 87.1818 395.241 87.1818ZM405.315 87V75.3636H409.247C410.16 75.3636 410.906 75.5284 411.486 75.858C412.069 76.1837 412.501 76.625 412.781 77.1818C413.062 77.7386 413.202 78.3598 413.202 79.0455C413.202 79.7311 413.062 80.3542 412.781 80.9148C412.505 81.4754 412.077 81.9223 411.497 82.2557C410.918 82.5852 410.175 82.75 409.27 82.75H406.452V81.5H409.224C409.849 81.5 410.351 81.392 410.73 81.1761C411.109 80.9602 411.384 80.6686 411.554 80.3011C411.728 79.9299 411.815 79.5114 411.815 79.0455C411.815 78.5795 411.728 78.1629 411.554 77.7955C411.384 77.428 411.107 77.1402 410.724 76.9318C410.342 76.7197 409.834 76.6136 409.202 76.6136H406.724V87H405.315ZM418.855 87.1818C418.014 87.1818 417.289 86.9962 416.679 86.625C416.073 86.25 415.605 85.7273 415.276 85.0568C414.95 84.3826 414.787 83.5985 414.787 82.7045C414.787 81.8106 414.95 81.0227 415.276 80.3409C415.605 79.6553 416.063 79.1212 416.651 78.7386C417.241 78.3523 417.931 78.1591 418.719 78.1591C419.173 78.1591 419.622 78.2348 420.065 78.3864C420.509 78.5379 420.912 78.7841 421.276 79.125C421.639 79.4621 421.929 79.9091 422.145 80.4659C422.361 81.0227 422.469 81.7083 422.469 82.5227V83.0909H415.741V81.9318H421.105C421.105 81.4394 421.007 81 420.81 80.6136C420.616 80.2273 420.34 79.9223 419.98 79.6989C419.624 79.4754 419.204 79.3636 418.719 79.3636C418.185 79.3636 417.723 79.4962 417.332 79.7614C416.946 80.0227 416.649 80.3636 416.44 80.7841C416.232 81.2045 416.128 81.6553 416.128 82.1364V82.9091C416.128 83.5682 416.241 84.1269 416.469 84.5852C416.7 85.0398 417.02 85.3864 417.429 85.625C417.838 85.8598 418.313 85.9773 418.855 85.9773C419.207 85.9773 419.526 85.928 419.81 85.8295C420.098 85.7273 420.346 85.5758 420.554 85.375C420.762 85.1705 420.923 84.9167 421.037 84.6136L422.332 84.9773C422.196 85.4167 421.967 85.803 421.645 86.1364C421.323 86.4659 420.925 86.7235 420.452 86.9091C419.978 87.0909 419.446 87.1818 418.855 87.1818ZM424.509 87V78.2727H425.804V79.5909H425.895C426.054 79.1591 426.342 78.8087 426.759 78.5398C427.175 78.2708 427.645 78.1364 428.168 78.1364C428.266 78.1364 428.389 78.1383 428.537 78.142C428.685 78.1458 428.796 78.1515 428.872 78.1591V79.5227C428.827 79.5114 428.723 79.4943 428.56 79.4716C428.401 79.4451 428.232 79.4318 428.054 79.4318C427.63 79.4318 427.251 79.5208 426.918 79.6989C426.588 79.8731 426.327 80.1155 426.134 80.4261C425.944 80.733 425.849 81.0833 425.849 81.4773V87H424.509ZM434.895 78.2727V79.4091H430.19V78.2727H434.895ZM431.599 87V77.0682C431.599 76.5682 431.717 76.1515 431.952 75.8182C432.187 75.4848 432.491 75.2348 432.866 75.0682C433.241 74.9015 433.637 74.8182 434.054 74.8182C434.384 74.8182 434.652 74.8447 434.861 74.8977C435.069 74.9508 435.224 75 435.327 75.0455L434.94 76.2045C434.872 76.1818 434.777 76.1534 434.656 76.1193C434.539 76.0852 434.384 76.0682 434.19 76.0682C433.747 76.0682 433.427 76.1799 433.23 76.4034C433.037 76.6269 432.94 76.9545 432.94 77.3864V87H431.599ZM439.96 87.1818C439.172 87.1818 438.481 86.9943 437.886 86.6193C437.295 86.2443 436.833 85.7197 436.5 85.0455C436.17 84.3712 436.006 83.5833 436.006 82.6818C436.006 81.7727 436.17 80.9792 436.5 80.3011C436.833 79.6231 437.295 79.0966 437.886 78.7216C438.481 78.3466 439.172 78.1591 439.96 78.1591C440.748 78.1591 441.438 78.3466 442.028 78.7216C442.623 79.0966 443.085 79.6231 443.415 80.3011C443.748 80.9792 443.915 81.7727 443.915 82.6818C443.915 83.5833 443.748 84.3712 443.415 85.0455C443.085 85.7197 442.623 86.2443 442.028 86.6193C441.438 86.9943 440.748 87.1818 439.96 87.1818ZM439.96 85.9773C440.559 85.9773 441.051 85.8239 441.438 85.517C441.824 85.2102 442.11 84.8068 442.295 84.3068C442.481 83.8068 442.574 83.2652 442.574 82.6818C442.574 82.0985 442.481 81.5549 442.295 81.0511C442.11 80.5473 441.824 80.1402 441.438 79.8295C441.051 79.5189 440.559 79.3636 439.96 79.3636C439.362 79.3636 438.869 79.5189 438.483 79.8295C438.097 80.1402 437.811 80.5473 437.625 81.0511C437.439 81.5549 437.347 82.0985 437.347 82.6818C437.347 83.2652 437.439 83.8068 437.625 84.3068C437.811 84.8068 438.097 85.2102 438.483 85.517C438.869 85.8239 439.362 85.9773 439.96 85.9773ZM445.962 87V78.2727H447.257V79.5909H447.348C447.507 79.1591 447.795 78.8087 448.212 78.5398C448.628 78.2708 449.098 78.1364 449.621 78.1364C449.719 78.1364 449.842 78.1383 449.99 78.142C450.138 78.1458 450.25 78.1515 450.325 78.1591V79.5227C450.28 79.5114 450.176 79.4943 450.013 79.4716C449.854 79.4451 449.685 79.4318 449.507 79.4318C449.083 79.4318 448.704 79.5208 448.371 79.6989C448.041 79.8731 447.78 80.1155 447.587 80.4261C447.397 80.733 447.303 81.0833 447.303 81.4773V87H445.962ZM451.915 87V78.2727H453.21V79.6364H453.324C453.506 79.1705 453.799 78.8087 454.205 78.5511C454.61 78.2898 455.097 78.1591 455.665 78.1591C456.241 78.1591 456.72 78.2898 457.102 78.5511C457.489 78.8087 457.79 79.1705 458.006 79.6364H458.097C458.32 79.1856 458.655 78.8277 459.102 78.5625C459.549 78.2936 460.085 78.1591 460.71 78.1591C461.491 78.1591 462.129 78.4034 462.625 78.892C463.121 79.3769 463.369 80.1326 463.369 81.1591V87H462.028V81.1591C462.028 80.5152 461.852 80.0549 461.5 79.7784C461.148 79.5019 460.733 79.3636 460.256 79.3636C459.642 79.3636 459.167 79.5492 458.83 79.9205C458.492 80.2879 458.324 80.7538 458.324 81.3182V87H456.96V81.0227C456.96 80.5265 456.799 80.1269 456.477 79.8239C456.155 79.517 455.741 79.3636 455.233 79.3636C454.884 79.3636 454.559 79.4564 454.256 79.642C453.956 79.8277 453.714 80.0852 453.528 80.4148C453.347 80.7405 453.256 81.1174 453.256 81.5455V87H451.915ZM468.389 87.2045C467.836 87.2045 467.334 87.1004 466.884 86.892C466.433 86.6799 466.075 86.375 465.81 85.9773C465.545 85.5758 465.412 85.0909 465.412 84.5227C465.412 84.0227 465.51 83.6174 465.707 83.3068C465.904 82.9924 466.168 82.7462 466.497 82.5682C466.827 82.3902 467.19 82.2576 467.588 82.1705C467.99 82.0795 468.393 82.0076 468.798 81.9545C469.329 81.8864 469.759 81.8352 470.088 81.8011C470.421 81.7633 470.664 81.7008 470.815 81.6136C470.971 81.5265 471.048 81.375 471.048 81.1591V81.1136C471.048 80.553 470.895 80.1174 470.588 79.8068C470.285 79.4962 469.825 79.3409 469.207 79.3409C468.567 79.3409 468.065 79.4811 467.702 79.7614C467.338 80.0417 467.082 80.3409 466.935 80.6591L465.662 80.2045C465.889 79.6742 466.192 79.2614 466.571 78.9659C466.954 78.6667 467.37 78.4583 467.821 78.3409C468.276 78.2197 468.723 78.1591 469.162 78.1591C469.442 78.1591 469.764 78.1932 470.128 78.2614C470.495 78.3258 470.849 78.4602 471.19 78.6648C471.535 78.8693 471.821 79.178 472.048 79.5909C472.276 80.0038 472.389 80.5568 472.389 81.25V87H471.048V85.8182H470.98C470.889 86.0076 470.738 86.2102 470.526 86.4261C470.313 86.642 470.031 86.8258 469.679 86.9773C469.327 87.1288 468.897 87.2045 468.389 87.2045ZM468.594 86C469.124 86 469.571 85.8958 469.935 85.6875C470.302 85.4792 470.579 85.2102 470.764 84.8807C470.954 84.5511 471.048 84.2045 471.048 83.8409V82.6136C470.991 82.6818 470.866 82.7443 470.673 82.8011C470.484 82.8542 470.264 82.9015 470.014 82.9432C469.768 82.9811 469.527 83.0152 469.293 83.0455C469.062 83.072 468.874 83.0947 468.73 83.1136C468.382 83.1591 468.056 83.233 467.753 83.3352C467.454 83.4337 467.211 83.5833 467.026 83.7841C466.844 83.9811 466.753 84.25 466.753 84.5909C466.753 85.0568 466.925 85.4091 467.27 85.6477C467.618 85.8826 468.06 86 468.594 86ZM476.178 81.75V87H474.837V78.2727H476.132V79.6364H476.246C476.45 79.1932 476.761 78.8371 477.178 78.5682C477.594 78.2955 478.132 78.1591 478.791 78.1591C479.382 78.1591 479.899 78.2803 480.342 78.5227C480.786 78.7614 481.13 79.125 481.376 79.6136C481.623 80.0985 481.746 80.7121 481.746 81.4545V87H480.405V81.5455C480.405 80.8598 480.227 80.3258 479.871 79.9432C479.515 79.5568 479.026 79.3636 478.405 79.3636C477.977 79.3636 477.594 79.4564 477.257 79.642C476.924 79.8277 476.661 80.0985 476.467 80.4545C476.274 80.8106 476.178 81.2424 476.178 81.75ZM487.741 87.1818C486.923 87.1818 486.219 86.9886 485.628 86.6023C485.037 86.2159 484.582 85.6837 484.264 85.0057C483.946 84.3277 483.787 83.553 483.787 82.6818C483.787 81.7955 483.95 81.0133 484.276 80.3352C484.605 79.6534 485.063 79.1212 485.651 78.7386C486.241 78.3523 486.931 78.1591 487.719 78.1591C488.332 78.1591 488.885 78.2727 489.378 78.5C489.87 78.7273 490.274 79.0455 490.588 79.4545C490.902 79.8636 491.098 80.3409 491.173 80.8864H489.832C489.73 80.4886 489.503 80.1364 489.151 79.8295C488.802 79.5189 488.332 79.3636 487.741 79.3636C487.219 79.3636 486.76 79.5 486.366 79.7727C485.976 80.0417 485.671 80.4223 485.452 80.9148C485.236 81.4034 485.128 81.9773 485.128 82.6364C485.128 83.3106 485.234 83.8977 485.446 84.3977C485.662 84.8977 485.965 85.286 486.355 85.5625C486.749 85.839 487.211 85.9773 487.741 85.9773C488.09 85.9773 488.406 85.9167 488.69 85.7955C488.974 85.6742 489.215 85.5 489.412 85.2727C489.609 85.0455 489.749 84.7727 489.832 84.4545H491.173C491.098 84.9697 490.91 85.4337 490.611 85.8466C490.315 86.2557 489.923 86.5814 489.435 86.8239C488.95 87.0625 488.385 87.1818 487.741 87.1818ZM496.793 87.1818C495.952 87.1818 495.226 86.9962 494.616 86.625C494.01 86.25 493.543 85.7273 493.213 85.0568C492.887 84.3826 492.724 83.5985 492.724 82.7045C492.724 81.8106 492.887 81.0227 493.213 80.3409C493.543 79.6553 494.001 79.1212 494.588 78.7386C495.179 78.3523 495.868 78.1591 496.656 78.1591C497.111 78.1591 497.56 78.2348 498.003 78.3864C498.446 78.5379 498.849 78.7841 499.213 79.125C499.577 79.4621 499.866 79.9091 500.082 80.4659C500.298 81.0227 500.406 81.7083 500.406 82.5227V83.0909H493.679V81.9318H499.043C499.043 81.4394 498.944 81 498.747 80.6136C498.554 80.2273 498.277 79.9223 497.918 79.6989C497.562 79.4754 497.141 79.3636 496.656 79.3636C496.122 79.3636 495.66 79.4962 495.27 79.7614C494.884 80.0227 494.586 80.3636 494.378 80.7841C494.17 81.2045 494.065 81.6553 494.065 82.1364V82.9091C494.065 83.5682 494.179 84.1269 494.406 84.5852C494.637 85.0398 494.957 85.3864 495.366 85.625C495.776 85.8598 496.251 85.9773 496.793 85.9773C497.145 85.9773 497.463 85.928 497.747 85.8295C498.035 85.7273 498.283 85.5758 498.491 85.375C498.7 85.1705 498.861 84.9167 498.974 84.6136L500.27 84.9773C500.134 85.4167 499.904 85.803 499.582 86.1364C499.26 86.4659 498.863 86.7235 498.389 86.9091C497.916 87.0909 497.384 87.1818 496.793 87.1818ZM510.719 87H507.128V75.3636H510.878C512.007 75.3636 512.973 75.5966 513.776 76.0625C514.579 76.5246 515.194 77.1894 515.622 78.0568C516.05 78.9205 516.264 79.9545 516.264 81.1591C516.264 82.3712 516.048 83.4148 515.616 84.2898C515.185 85.161 514.556 85.8314 513.73 86.3011C512.904 86.767 511.901 87 510.719 87ZM508.537 85.75H510.628C511.59 85.75 512.387 85.5644 513.02 85.1932C513.652 84.822 514.124 84.2936 514.435 83.608C514.745 82.9223 514.901 82.1061 514.901 81.1591C514.901 80.2197 514.747 79.411 514.44 78.733C514.134 78.0511 513.675 77.5284 513.065 77.1648C512.455 76.7973 511.696 76.6136 510.787 76.6136H508.537V85.75ZM522.105 87.1818C521.264 87.1818 520.539 86.9962 519.929 86.625C519.323 86.25 518.855 85.7273 518.526 85.0568C518.2 84.3826 518.037 83.5985 518.037 82.7045C518.037 81.8106 518.2 81.0227 518.526 80.3409C518.855 79.6553 519.313 79.1212 519.901 78.7386C520.491 78.3523 521.181 78.1591 521.969 78.1591C522.423 78.1591 522.872 78.2348 523.315 78.3864C523.759 78.5379 524.162 78.7841 524.526 79.125C524.889 79.4621 525.179 79.9091 525.395 80.4659C525.611 81.0227 525.719 81.7083 525.719 82.5227V83.0909H518.991V81.9318H524.355C524.355 81.4394 524.257 81 524.06 80.6136C523.866 80.2273 523.59 79.9223 523.23 79.6989C522.874 79.4754 522.454 79.3636 521.969 79.3636C521.435 79.3636 520.973 79.4962 520.582 79.7614C520.196 80.0227 519.899 80.3636 519.69 80.7841C519.482 81.2045 519.378 81.6553 519.378 82.1364V82.9091C519.378 83.5682 519.491 84.1269 519.719 84.5852C519.95 85.0398 520.27 85.3864 520.679 85.625C521.088 85.8598 521.563 85.9773 522.105 85.9773C522.457 85.9773 522.776 85.928 523.06 85.8295C523.348 85.7273 523.596 85.5758 523.804 85.375C524.012 85.1705 524.173 84.9167 524.287 84.6136L525.582 84.9773C525.446 85.4167 525.217 85.803 524.895 86.1364C524.573 86.4659 524.175 86.7235 523.702 86.9091C523.228 87.0909 522.696 87.1818 522.105 87.1818ZM531.418 87.1818C530.577 87.1818 529.851 86.9962 529.241 86.625C528.635 86.25 528.168 85.7273 527.838 85.0568C527.512 84.3826 527.349 83.5985 527.349 82.7045C527.349 81.8106 527.512 81.0227 527.838 80.3409C528.168 79.6553 528.626 79.1212 529.213 78.7386C529.804 78.3523 530.493 78.1591 531.281 78.1591C531.736 78.1591 532.185 78.2348 532.628 78.3864C533.071 78.5379 533.474 78.7841 533.838 79.125C534.202 79.4621 534.491 79.9091 534.707 80.4659C534.923 81.0227 535.031 81.7083 535.031 82.5227V83.0909H528.304V81.9318H533.668C533.668 81.4394 533.569 81 533.372 80.6136C533.179 80.2273 532.902 79.9223 532.543 79.6989C532.187 79.4754 531.766 79.3636 531.281 79.3636C530.747 79.3636 530.285 79.4962 529.895 79.7614C529.509 80.0227 529.211 80.3636 529.003 80.7841C528.795 81.2045 528.69 81.6553 528.69 82.1364V82.9091C528.69 83.5682 528.804 84.1269 529.031 84.5852C529.262 85.0398 529.582 85.3864 529.991 85.625C530.401 85.8598 530.876 85.9773 531.418 85.9773C531.77 85.9773 532.088 85.928 532.372 85.8295C532.66 85.7273 532.908 85.5758 533.116 85.375C533.325 85.1705 533.486 84.9167 533.599 84.6136L534.895 84.9773C534.759 85.4167 534.529 85.803 534.207 86.1364C533.885 86.4659 533.488 86.7235 533.014 86.9091C532.541 87.0909 532.009 87.1818 531.418 87.1818ZM537.071 90.2727V78.2727H538.366V79.6591H538.526C538.624 79.5076 538.76 79.3144 538.935 79.0795C539.113 78.8409 539.366 78.6288 539.696 78.4432C540.029 78.2538 540.48 78.1591 541.048 78.1591C541.783 78.1591 542.431 78.3428 542.991 78.7102C543.552 79.0777 543.99 79.5985 544.304 80.2727C544.618 80.947 544.776 81.7424 544.776 82.6591C544.776 83.5833 544.618 84.3845 544.304 85.0625C543.99 85.7367 543.554 86.2595 542.997 86.6307C542.44 86.9981 541.798 87.1818 541.071 87.1818C540.51 87.1818 540.062 87.089 539.724 86.9034C539.387 86.714 539.128 86.5 538.946 86.2614C538.764 86.0189 538.624 85.8182 538.526 85.6591H538.412V90.2727H537.071ZM538.389 82.6364C538.389 83.2955 538.486 83.8769 538.679 84.3807C538.872 84.8807 539.154 85.2727 539.526 85.5568C539.897 85.8371 540.351 85.9773 540.889 85.9773C541.45 85.9773 541.918 85.8295 542.293 85.5341C542.671 85.2348 542.955 84.8333 543.145 84.3295C543.338 83.822 543.435 83.2576 543.435 82.6364C543.435 82.0227 543.34 81.4697 543.151 80.9773C542.965 80.4811 542.683 80.089 542.304 79.8011C541.929 79.5095 541.457 79.3636 540.889 79.3636C540.344 79.3636 539.885 79.5019 539.514 79.7784C539.143 80.0511 538.863 80.4337 538.673 80.9261C538.484 81.4148 538.389 81.9848 538.389 82.6364ZM551.821 81.3864V82.6364H546.73V81.3864H551.821ZM557.953 87H554.362V75.3636H558.112C559.241 75.3636 560.207 75.5966 561.01 76.0625C561.813 76.5246 562.429 77.1894 562.857 78.0568C563.285 78.9205 563.499 79.9545 563.499 81.1591C563.499 82.3712 563.283 83.4148 562.851 84.2898C562.419 85.161 561.79 85.8314 560.964 86.3011C560.139 86.767 559.135 87 557.953 87ZM555.771 85.75H557.862C558.824 85.75 559.622 85.5644 560.254 85.1932C560.887 84.822 561.358 84.2936 561.669 83.608C561.98 82.9223 562.135 82.1061 562.135 81.1591C562.135 80.2197 561.982 79.411 561.675 78.733C561.368 78.0511 560.91 77.5284 560.3 77.1648C559.69 76.7973 558.93 76.6136 558.021 76.6136H555.771V85.75ZM565.68 87V78.2727H567.021V87H565.68ZM566.362 76.8182C566.101 76.8182 565.875 76.7292 565.686 76.5511C565.5 76.3731 565.408 76.1591 565.408 75.9091C565.408 75.6591 565.5 75.4451 565.686 75.267C565.875 75.089 566.101 75 566.362 75C566.624 75 566.847 75.089 567.033 75.267C567.222 75.4451 567.317 75.6591 567.317 75.9091C567.317 76.1591 567.222 76.3731 567.033 76.5511C566.847 76.7292 566.624 76.8182 566.362 76.8182ZM576.614 78.2727L573.386 87H572.023L568.795 78.2727H570.25L572.659 85.2273H572.75L575.159 78.2727H576.614ZM581.73 87.1818C580.889 87.1818 580.164 86.9962 579.554 86.625C578.948 86.25 578.48 85.7273 578.151 85.0568C577.825 84.3826 577.662 83.5985 577.662 82.7045C577.662 81.8106 577.825 81.0227 578.151 80.3409C578.48 79.6553 578.938 79.1212 579.526 78.7386C580.116 78.3523 580.806 78.1591 581.594 78.1591C582.048 78.1591 582.497 78.2348 582.94 78.3864C583.384 78.5379 583.787 78.7841 584.151 79.125C584.514 79.4621 584.804 79.9091 585.02 80.4659C585.236 81.0227 585.344 81.7083 585.344 82.5227V83.0909H578.616V81.9318H583.98C583.98 81.4394 583.882 81 583.685 80.6136C583.491 80.2273 583.215 79.9223 582.855 79.6989C582.499 79.4754 582.079 79.3636 581.594 79.3636C581.06 79.3636 580.598 79.4962 580.207 79.7614C579.821 80.0227 579.524 80.3636 579.315 80.7841C579.107 81.2045 579.003 81.6553 579.003 82.1364V82.9091C579.003 83.5682 579.116 84.1269 579.344 84.5852C579.575 85.0398 579.895 85.3864 580.304 85.625C580.713 85.8598 581.188 85.9773 581.73 85.9773C582.082 85.9773 582.401 85.928 582.685 85.8295C582.973 85.7273 583.221 85.5758 583.429 85.375C583.637 85.1705 583.798 84.9167 583.912 84.6136L585.207 84.9773C585.071 85.4167 584.842 85.803 584.52 86.1364C584.198 86.4659 583.8 86.7235 583.327 86.9091C582.853 87.0909 582.321 87.1818 581.73 87.1818Z" fill="#6B7280"/>
<path d="M311.276 29.8182H318.102L325.312 47.4091H325.619L332.83 29.8182H339.656V56H334.287V38.9588H334.07L327.294 55.8722H323.638L316.862 38.8949H316.645V56H311.276V29.8182ZM349.714 56.3707C348.461 56.3707 347.345 56.1534 346.365 55.7188C345.385 55.2756 344.609 54.6236 344.038 53.7628C343.475 52.8935 343.194 51.8111 343.194 50.5156C343.194 49.4247 343.395 48.5085 343.795 47.767C344.196 47.0256 344.741 46.429 345.431 45.9773C346.122 45.5256 346.906 45.1847 347.784 44.9545C348.67 44.7244 349.599 44.5625 350.571 44.4688C351.713 44.3494 352.633 44.2386 353.332 44.1364C354.031 44.0256 354.538 43.8636 354.853 43.6506C355.169 43.4375 355.326 43.1222 355.326 42.7045V42.6278C355.326 41.8182 355.071 41.1918 354.559 40.7486C354.056 40.3054 353.341 40.0838 352.412 40.0838C351.431 40.0838 350.652 40.3011 350.072 40.7358C349.493 41.1619 349.109 41.6989 348.922 42.3466L343.885 41.9375C344.14 40.7443 344.643 39.7131 345.393 38.8438C346.143 37.9659 347.11 37.2926 348.295 36.8239C349.488 36.3466 350.869 36.108 352.437 36.108C353.528 36.108 354.572 36.2358 355.569 36.4915C356.575 36.7472 357.466 37.1435 358.241 37.6804C359.025 38.2173 359.643 38.9077 360.095 39.7514C360.547 40.5866 360.772 41.5881 360.772 42.7557V56H355.608V53.277H355.454C355.139 53.8906 354.717 54.4318 354.189 54.9006C353.66 55.3608 353.025 55.723 352.284 55.9872C351.542 56.2429 350.686 56.3707 349.714 56.3707ZM351.274 52.6122C352.075 52.6122 352.782 52.4545 353.396 52.1392C354.01 51.8153 354.491 51.3807 354.841 50.8352C355.19 50.2898 355.365 49.6719 355.365 48.9815V46.8977C355.194 47.0085 354.96 47.1108 354.662 47.2045C354.372 47.2898 354.044 47.3707 353.677 47.4474C353.311 47.5156 352.944 47.5795 352.578 47.6392C352.211 47.6903 351.879 47.7372 351.581 47.7798C350.941 47.8736 350.383 48.0227 349.906 48.2273C349.429 48.4318 349.058 48.7088 348.794 49.0582C348.529 49.3991 348.397 49.8253 348.397 50.3366C348.397 51.0781 348.666 51.6449 349.203 52.0369C349.748 52.4205 350.439 52.6122 351.274 52.6122ZM364.998 56V36.3636H370.277V39.7898H370.482C370.84 38.571 371.441 37.6506 372.284 37.0284C373.128 36.3977 374.1 36.0824 375.199 36.0824C375.472 36.0824 375.766 36.0994 376.081 36.1335C376.397 36.1676 376.674 36.2145 376.912 36.2741V41.1065C376.657 41.0298 376.303 40.9616 375.851 40.902C375.4 40.8423 374.986 40.8125 374.611 40.8125C373.81 40.8125 373.094 40.9872 372.463 41.3366C371.841 41.6776 371.347 42.1548 370.98 42.7685C370.623 43.3821 370.444 44.0895 370.444 44.8906V56H364.998ZM384.663 50.3494L384.675 43.8168H385.468L391.758 36.3636H398.009L389.559 46.233H388.268L384.663 50.3494ZM379.728 56V29.8182H385.174V56H379.728ZM392.001 56L386.222 47.4474L389.853 43.5994L398.38 56H392.001ZM408.821 56.3835C406.801 56.3835 405.063 55.9744 403.605 55.1562C402.157 54.3295 401.04 53.1619 400.256 51.6534C399.472 50.1364 399.08 48.3423 399.08 46.2713C399.08 44.2514 399.472 42.4787 400.256 40.9531C401.04 39.4276 402.144 38.2386 403.567 37.3864C404.999 36.5341 406.678 36.108 408.604 36.108C409.9 36.108 411.105 36.3168 412.222 36.7344C413.347 37.1435 414.327 37.7614 415.162 38.5881C416.006 39.4148 416.662 40.4545 417.131 41.7074C417.6 42.9517 417.834 44.4091 417.834 46.0795V47.5753H401.253V44.2003H412.708C412.708 43.4162 412.537 42.7216 412.196 42.1165C411.855 41.5114 411.382 41.0384 410.777 40.6974C410.181 40.348 409.486 40.1733 408.694 40.1733C407.867 40.1733 407.134 40.3651 406.495 40.7486C405.864 41.1236 405.37 41.6307 405.012 42.2699C404.654 42.9006 404.471 43.6037 404.462 44.3793V47.5881C404.462 48.5597 404.641 49.3991 404.999 50.1065C405.365 50.8139 405.881 51.3594 406.546 51.7429C407.211 52.1264 407.999 52.3182 408.911 52.3182C409.516 52.3182 410.07 52.233 410.573 52.0625C411.076 51.892 411.506 51.6364 411.864 51.2955C412.222 50.9545 412.495 50.5369 412.682 50.0426L417.719 50.375C417.463 51.5852 416.939 52.642 416.147 53.5455C415.363 54.4403 414.348 55.1392 413.104 55.642C411.868 56.1364 410.441 56.3835 408.821 56.3835ZM431.833 36.3636V40.4545H420.007V36.3636H431.833ZM422.692 31.6591H428.138V49.9659C428.138 50.4687 428.215 50.8608 428.368 51.142C428.522 51.4148 428.735 51.6065 429.007 51.7173C429.289 51.8281 429.613 51.8835 429.979 51.8835C430.235 51.8835 430.49 51.8622 430.746 51.8196C431.002 51.7685 431.198 51.7301 431.334 51.7045L432.191 55.7571C431.918 55.8423 431.534 55.9403 431.04 56.0511C430.546 56.1705 429.945 56.2429 429.238 56.2685C427.925 56.3196 426.775 56.1449 425.786 55.7443C424.806 55.3437 424.043 54.7216 423.498 53.8778C422.952 53.0341 422.684 51.9687 422.692 50.6818V31.6591ZM451.472 41.9631L446.487 42.2699C446.401 41.8437 446.218 41.4602 445.937 41.1193C445.656 40.7699 445.285 40.4929 444.825 40.2884C444.373 40.0753 443.832 39.9688 443.201 39.9688C442.357 39.9688 441.646 40.1477 441.066 40.5057C440.487 40.8551 440.197 41.3239 440.197 41.9119C440.197 42.3807 440.384 42.777 440.759 43.1009C441.134 43.4247 441.778 43.6847 442.69 43.8807L446.244 44.5966C448.153 44.9886 449.576 45.6193 450.513 46.4886C451.451 47.358 451.92 48.5 451.92 49.9148C451.92 51.2017 451.54 52.331 450.782 53.3026C450.032 54.2741 449.001 55.0327 447.688 55.5781C446.384 56.1151 444.88 56.3835 443.175 56.3835C440.576 56.3835 438.505 55.8423 436.962 54.7599C435.428 53.669 434.529 52.1861 434.265 50.3111L439.621 50.0298C439.783 50.8224 440.175 51.4276 440.798 51.8452C441.42 52.2543 442.217 52.4588 443.188 52.4588C444.143 52.4588 444.91 52.2756 445.489 51.9091C446.077 51.5341 446.376 51.0526 446.384 50.4645C446.376 49.9702 446.167 49.5653 445.758 49.25C445.349 48.9261 444.718 48.679 443.866 48.5085L440.465 47.831C438.548 47.4474 437.12 46.7827 436.183 45.8366C435.254 44.8906 434.789 43.6847 434.789 42.2188C434.789 40.9574 435.13 39.8707 435.812 38.9588C436.502 38.0469 437.469 37.3438 438.714 36.8494C439.967 36.3551 441.433 36.108 443.112 36.108C445.592 36.108 447.543 36.6321 448.967 37.6804C450.398 38.7287 451.234 40.1562 451.472 41.9631ZM471.71 56.3835C469.903 56.3835 468.343 56.0597 467.031 55.4119C465.718 54.7642 464.708 53.8864 464.001 52.7784C463.302 51.6619 462.952 50.4176 462.952 49.0455C462.952 48.0227 463.157 47.1151 463.566 46.3224C463.975 45.5298 464.546 44.8011 465.279 44.1364C466.012 43.4631 466.864 42.794 467.836 42.1293L472.911 38.7926C473.567 38.375 474.049 37.9361 474.356 37.4759C474.663 37.0071 474.816 36.5 474.816 35.9545C474.816 35.4347 474.607 34.9531 474.19 34.5099C473.772 34.0668 473.18 33.8494 472.413 33.858C471.901 33.858 471.458 33.973 471.083 34.2031C470.708 34.4247 470.414 34.7187 470.201 35.0852C469.996 35.4432 469.894 35.8438 469.894 36.2869C469.894 36.8324 470.048 37.3864 470.354 37.9489C470.661 38.5114 471.07 39.108 471.582 39.7386C472.093 40.3608 472.651 41.0341 473.256 41.7585L485.67 56H479.994L469.638 44.4688C468.957 43.6932 468.275 42.8835 467.593 42.0398C466.92 41.1875 466.357 40.2841 465.906 39.3295C465.454 38.3665 465.228 37.3224 465.228 36.1974C465.228 34.9276 465.522 33.7855 466.11 32.7713C466.707 31.7571 467.542 30.956 468.616 30.3679C469.69 29.7713 470.942 29.473 472.374 29.473C473.772 29.473 474.978 29.7585 475.992 30.3295C477.015 30.892 477.799 31.642 478.344 32.5795C478.898 33.5085 479.175 34.5312 479.175 35.6477C479.175 36.8835 478.869 38.0043 478.255 39.0099C477.65 40.0071 476.798 40.902 475.698 41.6946L470.354 45.5426C469.63 46.071 469.093 46.6122 468.744 47.1662C468.403 47.7116 468.232 48.2358 468.232 48.7386C468.232 49.3608 468.386 49.919 468.692 50.4134C468.999 50.9077 469.434 51.2997 469.996 51.5895C470.559 51.8707 471.219 52.0114 471.978 52.0114C472.898 52.0114 473.806 51.8026 474.701 51.3849C475.604 50.9588 476.423 50.358 477.156 49.5824C477.897 48.7983 478.489 47.8693 478.933 46.7955C479.376 45.7216 479.597 44.5327 479.597 43.2287H484.11C484.11 44.831 483.935 46.2756 483.586 47.5625C483.237 48.8409 482.751 49.9574 482.129 50.9119C481.506 51.858 480.795 52.6335 479.994 53.2386C479.738 53.4006 479.491 53.554 479.252 53.6989C479.013 53.8438 478.766 53.9972 478.511 54.1591C477.539 54.9432 476.452 55.5099 475.251 55.8594C474.058 56.2088 472.877 56.3835 471.71 56.3835ZM496.373 29.8182H503.2L510.41 47.4091H510.717L517.927 29.8182H524.754V56H519.385V38.9588H519.167L512.392 55.8722H508.735L501.96 38.8949H501.743V56H496.373V29.8182ZM534.812 56.3707C533.559 56.3707 532.442 56.1534 531.462 55.7188C530.482 55.2756 529.707 54.6236 529.136 53.7628C528.573 52.8935 528.292 51.8111 528.292 50.5156C528.292 49.4247 528.492 48.5085 528.893 47.767C529.293 47.0256 529.839 46.429 530.529 45.9773C531.219 45.5256 532.004 45.1847 532.881 44.9545C533.768 44.7244 534.697 44.5625 535.668 44.4688C536.81 44.3494 537.731 44.2386 538.43 44.1364C539.129 44.0256 539.636 43.8636 539.951 43.6506C540.266 43.4375 540.424 43.1222 540.424 42.7045V42.6278C540.424 41.8182 540.168 41.1918 539.657 40.7486C539.154 40.3054 538.438 40.0838 537.509 40.0838C536.529 40.0838 535.749 40.3011 535.17 40.7358C534.59 41.1619 534.207 41.6989 534.019 42.3466L528.982 41.9375C529.238 40.7443 529.741 39.7131 530.491 38.8438C531.241 37.9659 532.208 37.2926 533.393 36.8239C534.586 36.3466 535.967 36.108 537.535 36.108C538.626 36.108 539.67 36.2358 540.667 36.4915C541.673 36.7472 542.563 37.1435 543.339 37.6804C544.123 38.2173 544.741 38.9077 545.192 39.7514C545.644 40.5866 545.87 41.5881 545.87 42.7557V56H540.705V53.277H540.552C540.237 53.8906 539.815 54.4318 539.286 54.9006C538.758 55.3608 538.123 55.723 537.381 55.9872C536.64 56.2429 535.783 56.3707 534.812 56.3707ZM536.371 52.6122C537.173 52.6122 537.88 52.4545 538.494 52.1392C539.107 51.8153 539.589 51.3807 539.938 50.8352C540.288 50.2898 540.462 49.6719 540.462 48.9815V46.8977C540.292 47.0085 540.058 47.1108 539.759 47.2045C539.469 47.2898 539.141 47.3707 538.775 47.4474C538.408 47.5156 538.042 47.5795 537.675 47.6392C537.309 47.6903 536.977 47.7372 536.678 47.7798C536.039 47.8736 535.481 48.0227 535.004 48.2273C534.526 48.4318 534.156 48.7088 533.891 49.0582C533.627 49.3991 533.495 49.8253 533.495 50.3366C533.495 51.0781 533.763 51.6449 534.3 52.0369C534.846 52.4205 535.536 52.6122 536.371 52.6122ZM550.095 56V36.3636H555.375V39.7898H555.58C555.938 38.571 556.538 37.6506 557.382 37.0284C558.226 36.3977 559.197 36.0824 560.297 36.0824C560.57 36.0824 560.864 36.0994 561.179 36.1335C561.494 36.1676 561.771 36.2145 562.01 36.2741V41.1065C561.754 41.0298 561.401 40.9616 560.949 40.902C560.497 40.8423 560.084 40.8125 559.709 40.8125C558.908 40.8125 558.192 40.9872 557.561 41.3366C556.939 41.6776 556.445 42.1548 556.078 42.7685C555.72 43.3821 555.541 44.0895 555.541 44.8906V56H550.095ZM572.758 63.7727C570.994 63.7727 569.481 63.5298 568.22 63.044C566.967 62.5668 565.97 61.9148 565.228 61.0881C564.487 60.2614 564.005 59.3324 563.784 58.3011L568.821 57.6236C568.974 58.0156 569.217 58.3821 569.549 58.723C569.882 59.0639 570.321 59.3366 570.866 59.5412C571.42 59.7543 572.093 59.8608 572.886 59.8608C574.071 59.8608 575.047 59.571 575.814 58.9915C576.589 58.4205 576.977 57.4616 576.977 56.1151V52.5227H576.747C576.508 53.0682 576.15 53.5838 575.673 54.0696C575.196 54.5554 574.582 54.9517 573.832 55.2585C573.082 55.5653 572.187 55.7188 571.147 55.7188C569.673 55.7188 568.331 55.3778 567.12 54.696C565.919 54.0057 564.96 52.9531 564.244 51.5384C563.537 50.1151 563.183 48.3168 563.183 46.1435C563.183 43.919 563.545 42.0611 564.27 40.5696C564.994 39.0781 565.957 37.9616 567.159 37.2202C568.369 36.4787 569.694 36.108 571.135 36.108C572.234 36.108 573.154 36.2955 573.896 36.6705C574.637 37.0369 575.234 37.4972 575.686 38.0511C576.146 38.5966 576.5 39.1335 576.747 39.6619H576.951V36.3636H582.359V56.1918C582.359 57.8622 581.95 59.2599 581.132 60.3849C580.314 61.5099 579.18 62.3537 577.731 62.9162C576.291 63.4872 574.633 63.7727 572.758 63.7727ZM572.873 51.6278C573.751 51.6278 574.493 51.4105 575.098 50.9759C575.711 50.5327 576.18 49.902 576.504 49.0838C576.836 48.2571 577.002 47.2685 577.002 46.1179C577.002 44.9673 576.841 43.9702 576.517 43.1264C576.193 42.2741 575.724 41.6136 575.11 41.1449C574.497 40.6761 573.751 40.4418 572.873 40.4418C571.978 40.4418 571.224 40.6847 570.61 41.1705C569.997 41.6477 569.532 42.3125 569.217 43.1648C568.902 44.017 568.744 45.0014 568.744 46.1179C568.744 47.2514 568.902 48.2315 569.217 49.0582C569.541 49.8764 570.005 50.5114 570.61 50.9631C571.224 51.4062 571.978 51.6278 572.873 51.6278ZM586.693 56V36.3636H592.139V56H586.693ZM589.429 33.8324C588.619 33.8324 587.924 33.5639 587.345 33.027C586.774 32.4815 586.488 31.8295 586.488 31.071C586.488 30.321 586.774 29.6776 587.345 29.1406C587.924 28.5952 588.619 28.3224 589.429 28.3224C590.238 28.3224 590.929 28.5952 591.5 29.1406C592.079 29.6776 592.369 30.321 592.369 31.071C592.369 31.8295 592.079 32.4815 591.5 33.027C590.929 33.5639 590.238 33.8324 589.429 33.8324ZM601.947 44.6477V56H596.501V36.3636H601.692V39.8281H601.922C602.357 38.6861 603.085 37.7827 604.108 37.1179C605.131 36.4446 606.371 36.108 607.828 36.108C609.192 36.108 610.381 36.4062 611.395 37.0028C612.409 37.5994 613.197 38.4517 613.76 39.5597C614.322 40.6591 614.604 41.9716 614.604 43.4972V56H609.158V44.4688C609.166 43.267 608.859 42.3295 608.237 41.6562C607.615 40.9744 606.759 40.6335 605.668 40.6335C604.935 40.6335 604.287 40.7912 603.724 41.1065C603.17 41.4219 602.736 41.8821 602.42 42.4872C602.114 43.0838 601.956 43.804 601.947 44.6477ZM635.234 41.9631L630.248 42.2699C630.163 41.8437 629.98 41.4602 629.699 41.1193C629.417 40.7699 629.047 40.4929 628.586 40.2884C628.135 40.0753 627.593 39.9688 626.963 39.9688C626.119 39.9688 625.407 40.1477 624.828 40.5057C624.248 40.8551 623.958 41.3239 623.958 41.9119C623.958 42.3807 624.146 42.777 624.521 43.1009C624.896 43.4247 625.539 43.6847 626.451 43.8807L630.005 44.5966C631.914 44.9886 633.338 45.6193 634.275 46.4886C635.213 47.358 635.681 48.5 635.681 49.9148C635.681 51.2017 635.302 52.331 634.544 53.3026C633.794 54.2741 632.762 55.0327 631.45 55.5781C630.146 56.1151 628.642 56.3835 626.937 56.3835C624.338 56.3835 622.267 55.8423 620.724 54.7599C619.19 53.669 618.291 52.1861 618.027 50.3111L623.383 50.0298C623.545 50.8224 623.937 51.4276 624.559 51.8452C625.181 52.2543 625.978 52.4588 626.95 52.4588C627.904 52.4588 628.672 52.2756 629.251 51.9091C629.839 51.5341 630.137 51.0526 630.146 50.4645C630.137 49.9702 629.929 49.5653 629.52 49.25C629.11 48.9261 628.48 48.679 627.627 48.5085L624.227 47.831C622.309 47.4474 620.882 46.7827 619.944 45.8366C619.015 44.8906 618.551 43.6847 618.551 42.2188C618.551 40.9574 618.892 39.8707 619.574 38.9588C620.264 38.0469 621.231 37.3438 622.475 36.8494C623.728 36.3551 625.194 36.108 626.873 36.108C629.353 36.108 631.305 36.6321 632.728 37.6804C634.16 38.7287 634.995 40.1562 635.234 41.9631Z" fill="#0F766E"/>
<g filter="url(#filter5_d_43_3)">
<rect width="271" height="1080" rx="12" fill="url(#paint0_linear_43_3)"/>
</g>
<defs>
<filter id="filter0_d_43_3" x="305" y="140" width="793" height="354" filterUnits="userSpaceOnUse" color-interpolation-filters="sRGB">
<feFlood flood-opacity="0" result="BackgroundImageFix"/>
<feColorMatrix in="SourceAlpha" type="matrix" values="0 0 0 0 0 0 0 0 0 0 0 0 0 0 0 0 0 0 127 0" result="hardAlpha"/>
<feOffset dy="4"/>
<feGaussianBlur stdDeviation="2"/>
<feComposite in2="hardAlpha" operator="out"/>
<feColorMatrix type="matrix" values="0 0 0 0 0.86446 0 0 0 0 0.899038 0 0 0 0 0.896353 0 0 0 1 0"/>
<feBlend mode="normal" in2="BackgroundImageFix" result="effect1_dropShadow_43_3"/>
<feBlend mode="normal" in="SourceGraphic" in2="effect1_dropShadow_43_3" result="shape"/>
</filter>
<filter id="filter1_d_43_3" x="305" y="510" width="793" height="335" filterUnits="userSpaceOnUse" color-interpolation-filters="sRGB">
<feFlood flood-opacity="0" result="BackgroundImageFix"/>
<feColorMatrix in="SourceAlpha" type="matrix" values="0 0 0 0 0 0 0 0 0 0 0 0 0 0 0 0 0 0 127 0" result="hardAlpha"/>
<feOffset dy="4"/>
<feGaussianBlur stdDeviation="2"/>
<feComposite in2="hardAlpha" operator="out"/>
<feColorMatrix type="matrix" values="0 0 0 0 0.86446 0 0 0 0 0.899038 0 0 0 0 0.896353 0 0 0 1 0"/>
<feBlend mode="normal" in2="BackgroundImageFix" result="effect1_dropShadow_43_3"/>
<feBlend mode="normal" in="SourceGraphic" in2="effect1_dropShadow_43_3" result="shape"/>
</filter>
<filter id="filter2_d_43_3" x="305" y="857" width="1578" height="210" filterUnits="userSpaceOnUse" color-interpolation-filters="sRGB">
<feFlood flood-opacity="0" result="BackgroundImageFix"/>
<feColorMatrix in="SourceAlpha" type="matrix" values="0 0 0 0 0 0 0 0 0 0 0 0 0 0 0 0 0 0 127 0" result="hardAlpha"/>
<feOffset dy="4"/>
<feGaussianBlur stdDeviation="2"/>
<feComposite in2="hardAlpha" operator="out"/>
<feColorMatrix type="matrix" values="0 0 0 0 0.86446 0 0 0 0 0.899038 0 0 0 0 0.896353 0 0 0 1 0"/>
<feBlend mode="normal" in2="BackgroundImageFix" result="effect1_dropShadow_43_3"/>
<feBlend mode="normal" in="SourceGraphic" in2="effect1_dropShadow_43_3" result="shape"/>
</filter>
<filter id="filter3_d_43_3" x="1110" y="510" width="773" height="335" filterUnits="userSpaceOnUse" color-interpolation-filters="sRGB">
<feFlood flood-opacity="0" result="BackgroundImageFix"/>
<feColorMatrix in="SourceAlpha" type="matrix" values="0 0 0 0 0 0 0 0 0 0 0 0 0 0 0 0 0 0 127 0" result="hardAlpha"/>
<feOffset dy="4"/>
<feGaussianBlur stdDeviation="2"/>
<feComposite in2="hardAlpha" operator="out"/>
<feColorMatrix type="matrix" values="0 0 0 0 0.86446 0 0 0 0 0.899038 0 0 0 0 0.896353 0 0 0 1 0"/>
<feBlend mode="normal" in2="BackgroundImageFix" result="effect1_dropShadow_43_3"/>
<feBlend mode="normal" in="SourceGraphic" in2="effect1_dropShadow_43_3" result="shape"/>
</filter>
<filter id="filter4_d_43_3" x="1110" y="140" width="776" height="354" filterUnits="userSpaceOnUse" color-interpolation-filters="sRGB">
<feFlood flood-opacity="0" result="BackgroundImageFix"/>
<feColorMatrix in="SourceAlpha" type="matrix" values="0 0 0 0 0 0 0 0 0 0 0 0 0 0 0 0 0 0 127 0" result="hardAlpha"/>
<feOffset dy="4"/>
<feGaussianBlur stdDeviation="2"/>
<feComposite in2="hardAlpha" operator="out"/>
<feColorMatrix type="matrix" values="0 0 0 0 0.86446 0 0 0 0 0.899038 0 0 0 0 0.896353 0 0 0 1 0"/>
<feBlend mode="normal" in2="BackgroundImageFix" result="effect1_dropShadow_43_3"/>
<feBlend mode="normal" in="SourceGraphic" in2="effect1_dropShadow_43_3" result="shape"/>
</filter>
<filter id="filter5_d_43_3" x="0" y="0" width="275" height="1084" filterUnits="userSpaceOnUse" color-interpolation-filters="sRGB">
<feFlood flood-opacity="0" result="BackgroundImageFix"/>
<feColorMatrix in="SourceAlpha" type="matrix" values="0 0 0 0 0 0 0 0 0 0 0 0 0 0 0 0 0 0 127 0" result="hardAlpha"/>
<feOffset dx="4" dy="4"/>
<feComposite in2="hardAlpha" operator="out"/>
<feColorMatrix type="matrix" values="0 0 0 0 0 0 0 0 0 0 0 0 0 0 0 0 0 0 0.01 0"/>
<feBlend mode="normal" in2="BackgroundImageFix" result="effect1_dropShadow_43_3"/>
<feBlend mode="normal" in="SourceGraphic" in2="effect1_dropShadow_43_3" result="shape"/>
</filter>
<linearGradient id="paint0_linear_43_3" x1="135.5" y1="0" x2="135.5" y2="1080" gradientUnits="userSpaceOnUse">
<stop stop-color="#0F766E"/>
<stop offset="0.244909" stop-color="#11857C"/>
<stop offset="0.384615" stop-color="#128D83"/>
<stop offset="0.530532" stop-color="#16ACA0"/>
<stop offset="0.698319" stop-color="#18BDB0"/>
<stop offset="0.848175" stop-color="#1ACDBF"/>
<stop offset="1" stop-color="#1CDCCD"/>
</linearGradient>
</defs>
</svg>
