<svg width="1920" height="1084" viewBox="0 0 1920 1084" fill="none" xmlns="http://www.w3.org/2000/svg">
<rect width="1920" height="1080" rx="12" fill="white"/>
<g filter="url(#filter0_d_45_3)">
<rect x="309" y="904" width="1573" height="153" rx="12" fill="url(#paint0_linear_45_3)"/>
<rect x="308" y="903" width="1575" height="155" rx="13" stroke="#0F766E" stroke-width="2"/>
</g>
<g filter="url(#filter1_d_45_3)">
<rect x="1130" y="492" width="752" height="392" rx="12" fill="white"/>
</g>
<g filter="url(#filter2_d_45_3)">
<rect x="309" y="492" width="801" height="392" rx="12" fill="white"/>
</g>
<g filter="url(#filter3_d_45_3)">
<rect x="309" y="122" width="1573" height="350" rx="12" fill="white"/>
</g>
<line x1="309" y1="100.75" x2="1882.01" y2="100.75" stroke="#0F766E" stroke-width="3"/>
<path d="M313.409 87V75.3636H317.341C318.254 75.3636 319 75.5284 319.58 75.858C320.163 76.1837 320.595 76.625 320.875 77.1818C321.155 77.7386 321.295 78.3598 321.295 79.0455C321.295 79.7311 321.155 80.3542 320.875 80.9148C320.598 81.4754 320.17 81.9223 319.591 82.2557C319.011 82.5852 318.269 82.75 317.364 82.75H314.545V81.5H317.318C317.943 81.5 318.445 81.392 318.824 81.1761C319.203 80.9602 319.477 80.6686 319.648 80.3011C319.822 79.9299 319.909 79.5114 319.909 79.0455C319.909 78.5795 319.822 78.1629 319.648 77.7955C319.477 77.428 319.201 77.1402 318.818 76.9318C318.436 76.7197 317.928 76.6136 317.295 76.6136H314.818V87H313.409ZM323.384 87V78.2727H324.679V79.5909H324.77C324.929 79.1591 325.217 78.8087 325.634 78.5398C326.05 78.2708 326.52 78.1364 327.043 78.1364C327.141 78.1364 327.264 78.1383 327.412 78.142C327.56 78.1458 327.671 78.1515 327.747 78.1591V79.5227C327.702 79.5114 327.598 79.4943 327.435 79.4716C327.276 79.4451 327.107 79.4318 326.929 79.4318C326.505 79.4318 326.126 79.5208 325.793 79.6989C325.463 79.8731 325.202 80.1155 325.009 80.4261C324.819 80.733 324.724 81.0833 324.724 81.4773V87H323.384ZM332.616 87.1818C331.829 87.1818 331.137 86.9943 330.543 86.6193C329.952 86.2443 329.49 85.7197 329.156 85.0455C328.827 84.3712 328.662 83.5833 328.662 82.6818C328.662 81.7727 328.827 80.9792 329.156 80.3011C329.49 79.6231 329.952 79.0966 330.543 78.7216C331.137 78.3466 331.829 78.1591 332.616 78.1591C333.404 78.1591 334.094 78.3466 334.685 78.7216C335.279 79.0966 335.741 79.6231 336.071 80.3011C336.404 80.9792 336.571 81.7727 336.571 82.6818C336.571 83.5833 336.404 84.3712 336.071 85.0455C335.741 85.7197 335.279 86.2443 334.685 86.6193C334.094 86.9943 333.404 87.1818 332.616 87.1818ZM332.616 85.9773C333.215 85.9773 333.707 85.8239 334.094 85.517C334.48 85.2102 334.766 84.8068 334.952 84.3068C335.137 83.8068 335.23 83.2652 335.23 82.6818C335.23 82.0985 335.137 81.5549 334.952 81.0511C334.766 80.5473 334.48 80.1402 334.094 79.8295C333.707 79.5189 333.215 79.3636 332.616 79.3636C332.018 79.3636 331.526 79.5189 331.139 79.8295C330.753 80.1402 330.467 80.5473 330.281 81.0511C330.096 81.5549 330.003 82.0985 330.003 82.6818C330.003 83.2652 330.096 83.8068 330.281 84.3068C330.467 84.8068 330.753 85.2102 331.139 85.517C331.526 85.8239 332.018 85.9773 332.616 85.9773ZM341.913 87.1818C341.186 87.1818 340.544 86.9981 339.987 86.6307C339.43 86.2595 338.995 85.7367 338.68 85.0625C338.366 84.3845 338.209 83.5833 338.209 82.6591C338.209 81.7424 338.366 80.947 338.68 80.2727C338.995 79.5985 339.432 79.0777 339.993 78.7102C340.554 78.3428 341.201 78.1591 341.936 78.1591C342.504 78.1591 342.953 78.2538 343.283 78.4432C343.616 78.6288 343.87 78.8409 344.044 79.0795C344.222 79.3144 344.36 79.5076 344.459 79.6591H344.572V75.3636H345.913V87H344.618V85.6591H344.459C344.36 85.8182 344.22 86.0189 344.038 86.2614C343.857 86.5 343.597 86.714 343.26 86.9034C342.923 87.089 342.474 87.1818 341.913 87.1818ZM342.095 85.9773C342.633 85.9773 343.088 85.8371 343.459 85.5568C343.83 85.2727 344.112 84.8807 344.305 84.3807C344.499 83.8769 344.595 83.2955 344.595 82.6364C344.595 81.9848 344.5 81.4148 344.311 80.9261C344.122 80.4337 343.841 80.0511 343.47 79.7784C343.099 79.5019 342.641 79.3636 342.095 79.3636C341.527 79.3636 341.054 79.5095 340.675 79.8011C340.3 80.089 340.018 80.4811 339.828 80.9773C339.643 81.4697 339.55 82.0227 339.55 82.6364C339.55 83.2576 339.644 83.822 339.834 84.3295C340.027 84.8333 340.311 85.2348 340.686 85.5341C341.065 85.8295 341.535 85.9773 342.095 85.9773ZM354.055 83.4318V78.2727H355.396V87H354.055V85.5227H353.964C353.76 85.9659 353.442 86.3428 353.01 86.6534C352.578 86.9602 352.033 87.1136 351.374 87.1136C350.828 87.1136 350.343 86.9943 349.919 86.7557C349.495 86.5133 349.161 86.1496 348.919 85.6648C348.677 85.1761 348.555 84.5606 348.555 83.8182V78.2727H349.896V83.7273C349.896 84.3636 350.074 84.8712 350.43 85.25C350.79 85.6288 351.249 85.8182 351.805 85.8182C352.139 85.8182 352.478 85.733 352.822 85.5625C353.171 85.392 353.463 85.1307 353.697 84.7784C353.936 84.4261 354.055 83.9773 354.055 83.4318ZM361.398 87.1818C360.58 87.1818 359.875 86.9886 359.284 86.6023C358.693 86.2159 358.239 85.6837 357.92 85.0057C357.602 84.3277 357.443 83.553 357.443 82.6818C357.443 81.7955 357.606 81.0133 357.932 80.3352C358.261 79.6534 358.72 79.1212 359.307 78.7386C359.898 78.3523 360.587 78.1591 361.375 78.1591C361.989 78.1591 362.542 78.2727 363.034 78.5C363.527 78.7273 363.93 79.0455 364.244 79.4545C364.559 79.8636 364.754 80.3409 364.83 80.8864H363.489C363.386 80.4886 363.159 80.1364 362.807 79.8295C362.458 79.5189 361.989 79.3636 361.398 79.3636C360.875 79.3636 360.417 79.5 360.023 79.7727C359.633 80.0417 359.328 80.4223 359.108 80.9148C358.892 81.4034 358.784 81.9773 358.784 82.6364C358.784 83.3106 358.89 83.8977 359.102 84.3977C359.318 84.8977 359.621 85.286 360.011 85.5625C360.405 85.839 360.867 85.9773 361.398 85.9773C361.746 85.9773 362.062 85.9167 362.347 85.7955C362.631 85.6742 362.871 85.5 363.068 85.2727C363.265 85.0455 363.405 84.7727 363.489 84.4545H364.83C364.754 84.9697 364.566 85.4337 364.267 85.8466C363.972 86.2557 363.58 86.5814 363.091 86.8239C362.606 87.0625 362.042 87.1818 361.398 87.1818ZM370.585 78.2727V79.4091H366.062V78.2727H370.585ZM367.381 76.1818H368.722V84.5C368.722 84.8788 368.777 85.1629 368.886 85.3523C369 85.5379 369.144 85.6629 369.318 85.7273C369.496 85.7879 369.684 85.8182 369.881 85.8182C370.028 85.8182 370.15 85.8106 370.244 85.7955C370.339 85.7765 370.415 85.7614 370.472 85.75L370.744 86.9545C370.653 86.9886 370.527 87.0227 370.364 87.0568C370.201 87.0947 369.994 87.1136 369.744 87.1136C369.366 87.1136 368.994 87.0322 368.631 86.8693C368.271 86.7064 367.972 86.4583 367.733 86.125C367.498 85.7917 367.381 85.3712 367.381 84.8636V76.1818ZM380.398 87.1591C379.633 87.1591 378.973 87.0189 378.42 86.7386C377.867 86.4583 377.441 86.0739 377.142 85.5852C376.843 85.0966 376.693 84.5379 376.693 83.9091C376.693 83.4242 376.795 82.9943 377 82.6193C377.208 82.2405 377.494 81.8902 377.858 81.5682C378.225 81.2424 378.648 80.9167 379.125 80.5909L380.807 79.3409C381.136 79.125 381.4 78.8939 381.597 78.6477C381.797 78.4015 381.898 78.0795 381.898 77.6818C381.898 77.3864 381.767 77.1004 381.506 76.8239C381.248 76.5473 380.909 76.4091 380.489 76.4091C380.193 76.4091 379.932 76.4848 379.705 76.6364C379.481 76.7841 379.305 76.9735 379.176 77.2045C379.051 77.4318 378.989 77.6667 378.989 77.9091C378.989 78.1818 379.063 78.4583 379.21 78.7386C379.362 79.0152 379.553 79.2992 379.784 79.5909C380.019 79.8788 380.261 80.1742 380.511 80.4773L385.852 87H384.239L379.83 81.6818C379.42 81.1894 379.049 80.7424 378.716 80.3409C378.383 79.9394 378.117 79.5436 377.92 79.1534C377.723 78.7633 377.625 78.3409 377.625 77.8864C377.625 77.3636 377.741 76.9053 377.972 76.5114C378.206 76.1136 378.534 75.8049 378.955 75.5852C379.379 75.3617 379.875 75.25 380.443 75.25C381.027 75.25 381.528 75.3636 381.949 75.5909C382.369 75.8144 382.693 76.1117 382.92 76.483C383.148 76.8504 383.261 77.25 383.261 77.6818C383.261 78.2386 383.123 78.7216 382.847 79.1307C382.57 79.5398 382.193 79.9205 381.716 80.2727L379.398 82C378.875 82.3864 378.521 82.7614 378.335 83.125C378.15 83.4886 378.057 83.75 378.057 83.9091C378.057 84.2727 378.152 84.6117 378.341 84.9261C378.53 85.2405 378.797 85.4943 379.142 85.6875C379.487 85.8807 379.89 85.9773 380.352 85.9773C380.792 85.9773 381.22 85.8845 381.636 85.6989C382.053 85.5095 382.43 85.2367 382.767 84.8807C383.108 84.5246 383.377 84.0966 383.574 83.5966C383.775 83.0966 383.875 82.5341 383.875 81.9091H385.17C385.17 82.6818 385.081 83.3125 384.903 83.8011C384.725 84.2898 384.525 84.6723 384.301 84.9489C384.078 85.2254 383.898 85.4318 383.761 85.5682C383.716 85.625 383.674 85.6818 383.636 85.7386C383.598 85.7955 383.557 85.8523 383.511 85.9091C383.136 86.3295 382.663 86.6439 382.091 86.8523C381.519 87.0568 380.955 87.1591 380.398 87.1591ZM392.018 87V75.3636H395.95C396.863 75.3636 397.609 75.5284 398.189 75.858C398.772 76.1837 399.204 76.625 399.484 77.1818C399.765 77.7386 399.905 78.3598 399.905 79.0455C399.905 79.7311 399.765 80.3542 399.484 80.9148C399.208 81.4754 398.78 81.9223 398.2 82.2557C397.621 82.5852 396.878 82.75 395.973 82.75H393.155V81.5H395.928C396.553 81.5 397.054 81.392 397.433 81.1761C397.812 80.9602 398.087 80.6686 398.257 80.3011C398.431 79.9299 398.518 79.5114 398.518 79.0455C398.518 78.5795 398.431 78.1629 398.257 77.7955C398.087 77.428 397.81 77.1402 397.428 76.9318C397.045 76.7197 396.537 76.6136 395.905 76.6136H393.428V87H392.018ZM401.993 87V78.2727H403.288V79.5909H403.379C403.538 79.1591 403.826 78.8087 404.243 78.5398C404.66 78.2708 405.129 78.1364 405.652 78.1364C405.75 78.1364 405.874 78.1383 406.021 78.142C406.169 78.1458 406.281 78.1515 406.357 78.1591V79.5227C406.311 79.5114 406.207 79.4943 406.044 79.4716C405.885 79.4451 405.716 79.4318 405.538 79.4318C405.114 79.4318 404.735 79.5208 404.402 79.6989C404.072 79.8731 403.811 80.1155 403.618 80.4261C403.429 80.733 403.334 81.0833 403.334 81.4773V87H401.993ZM411.226 87.1818C410.438 87.1818 409.747 86.9943 409.152 86.6193C408.561 86.2443 408.099 85.7197 407.766 85.0455C407.436 84.3712 407.271 83.5833 407.271 82.6818C407.271 81.7727 407.436 80.9792 407.766 80.3011C408.099 79.6231 408.561 79.0966 409.152 78.7216C409.747 78.3466 410.438 78.1591 411.226 78.1591C412.014 78.1591 412.703 78.3466 413.294 78.7216C413.889 79.0966 414.351 79.6231 414.68 80.3011C415.014 80.9792 415.18 81.7727 415.18 82.6818C415.18 83.5833 415.014 84.3712 414.68 85.0455C414.351 85.7197 413.889 86.2443 413.294 86.6193C412.703 86.9943 412.014 87.1818 411.226 87.1818ZM411.226 85.9773C411.824 85.9773 412.317 85.8239 412.703 85.517C413.089 85.2102 413.375 84.8068 413.561 84.3068C413.747 83.8068 413.839 83.2652 413.839 82.6818C413.839 82.0985 413.747 81.5549 413.561 81.0511C413.375 80.5473 413.089 80.1402 412.703 79.8295C412.317 79.5189 411.824 79.3636 411.226 79.3636C410.627 79.3636 410.135 79.5189 409.749 79.8295C409.362 80.1402 409.076 80.5473 408.891 81.0511C408.705 81.5549 408.612 82.0985 408.612 82.6818C408.612 83.2652 408.705 83.8068 408.891 84.3068C409.076 84.8068 409.362 85.2102 409.749 85.517C410.135 85.8239 410.627 85.9773 411.226 85.9773ZM417.227 87V78.2727H418.523V79.6364H418.636C418.818 79.1705 419.112 78.8087 419.517 78.5511C419.922 78.2898 420.409 78.1591 420.977 78.1591C421.553 78.1591 422.032 78.2898 422.415 78.5511C422.801 78.8087 423.102 79.1705 423.318 79.6364H423.409C423.633 79.1856 423.968 78.8277 424.415 78.5625C424.862 78.2936 425.398 78.1591 426.023 78.1591C426.803 78.1591 427.441 78.4034 427.938 78.892C428.434 79.3769 428.682 80.1326 428.682 81.1591V87H427.341V81.1591C427.341 80.5152 427.165 80.0549 426.812 79.7784C426.46 79.5019 426.045 79.3636 425.568 79.3636C424.955 79.3636 424.479 79.5492 424.142 79.9205C423.805 80.2879 423.636 80.7538 423.636 81.3182V87H422.273V81.0227C422.273 80.5265 422.112 80.1269 421.79 79.8239C421.468 79.517 421.053 79.3636 420.545 79.3636C420.197 79.3636 419.871 79.4564 419.568 79.642C419.269 79.8277 419.027 80.0852 418.841 80.4148C418.659 80.7405 418.568 81.1174 418.568 81.5455V87H417.227ZM434.679 87.1818C433.891 87.1818 433.2 86.9943 432.605 86.6193C432.014 86.2443 431.552 85.7197 431.219 85.0455C430.889 84.3712 430.724 83.5833 430.724 82.6818C430.724 81.7727 430.889 80.9792 431.219 80.3011C431.552 79.6231 432.014 79.0966 432.605 78.7216C433.2 78.3466 433.891 78.1591 434.679 78.1591C435.467 78.1591 436.156 78.3466 436.747 78.7216C437.342 79.0966 437.804 79.6231 438.134 80.3011C438.467 80.9792 438.634 81.7727 438.634 82.6818C438.634 83.5833 438.467 84.3712 438.134 85.0455C437.804 85.7197 437.342 86.2443 436.747 86.6193C436.156 86.9943 435.467 87.1818 434.679 87.1818ZM434.679 85.9773C435.277 85.9773 435.77 85.8239 436.156 85.517C436.543 85.2102 436.829 84.8068 437.014 84.3068C437.2 83.8068 437.293 83.2652 437.293 82.6818C437.293 82.0985 437.2 81.5549 437.014 81.0511C436.829 80.5473 436.543 80.1402 436.156 79.8295C435.77 79.5189 435.277 79.3636 434.679 79.3636C434.08 79.3636 433.588 79.5189 433.202 79.8295C432.815 80.1402 432.529 80.5473 432.344 81.0511C432.158 81.5549 432.065 82.0985 432.065 82.6818C432.065 83.2652 432.158 83.8068 432.344 84.3068C432.529 84.8068 432.815 85.2102 433.202 85.517C433.588 85.8239 434.08 85.9773 434.679 85.9773ZM444.476 78.2727V79.4091H439.953V78.2727H444.476ZM441.271 76.1818H442.612V84.5C442.612 84.8788 442.667 85.1629 442.777 85.3523C442.891 85.5379 443.035 85.6629 443.209 85.7273C443.387 85.7879 443.574 85.8182 443.771 85.8182C443.919 85.8182 444.04 85.8106 444.135 85.7955C444.23 85.7765 444.305 85.7614 444.362 85.75L444.635 86.9545C444.544 86.9886 444.417 87.0227 444.254 87.0568C444.091 87.0947 443.885 87.1136 443.635 87.1136C443.256 87.1136 442.885 87.0322 442.521 86.8693C442.161 86.7064 441.862 86.4583 441.624 86.125C441.389 85.7917 441.271 85.3712 441.271 84.8636V76.1818ZM446.493 87V78.2727H447.834V87H446.493ZM447.175 76.8182C446.913 76.8182 446.688 76.7292 446.499 76.5511C446.313 76.3731 446.22 76.1591 446.22 75.9091C446.22 75.6591 446.313 75.4451 446.499 75.267C446.688 75.089 446.913 75 447.175 75C447.436 75 447.66 75.089 447.845 75.267C448.035 75.4451 448.129 75.6591 448.129 75.9091C448.129 76.1591 448.035 76.3731 447.845 76.5511C447.66 76.7292 447.436 76.8182 447.175 76.8182ZM453.835 87.1818C453.047 87.1818 452.356 86.9943 451.761 86.6193C451.17 86.2443 450.708 85.7197 450.375 85.0455C450.045 84.3712 449.881 83.5833 449.881 82.6818C449.881 81.7727 450.045 80.9792 450.375 80.3011C450.708 79.6231 451.17 79.0966 451.761 78.7216C452.356 78.3466 453.047 78.1591 453.835 78.1591C454.623 78.1591 455.313 78.3466 455.903 78.7216C456.498 79.0966 456.96 79.6231 457.29 80.3011C457.623 80.9792 457.79 81.7727 457.79 82.6818C457.79 83.5833 457.623 84.3712 457.29 85.0455C456.96 85.7197 456.498 86.2443 455.903 86.6193C455.313 86.9943 454.623 87.1818 453.835 87.1818ZM453.835 85.9773C454.434 85.9773 454.926 85.8239 455.312 85.517C455.699 85.2102 455.985 84.8068 456.17 84.3068C456.356 83.8068 456.449 83.2652 456.449 82.6818C456.449 82.0985 456.356 81.5549 456.17 81.0511C455.985 80.5473 455.699 80.1402 455.312 79.8295C454.926 79.5189 454.434 79.3636 453.835 79.3636C453.237 79.3636 452.744 79.5189 452.358 79.8295C451.972 80.1402 451.686 80.5473 451.5 81.0511C451.314 81.5549 451.222 82.0985 451.222 82.6818C451.222 83.2652 451.314 83.8068 451.5 84.3068C451.686 84.8068 451.972 85.2102 452.358 85.517C452.744 85.8239 453.237 85.9773 453.835 85.9773ZM461.178 81.75V87H459.837V78.2727H461.132V79.6364H461.246C461.45 79.1932 461.761 78.8371 462.178 78.5682C462.594 78.2955 463.132 78.1591 463.791 78.1591C464.382 78.1591 464.899 78.2803 465.342 78.5227C465.786 78.7614 466.13 79.125 466.376 79.6136C466.623 80.0985 466.746 80.7121 466.746 81.4545V87H465.405V81.5455C465.405 80.8598 465.227 80.3258 464.871 79.9432C464.515 79.5568 464.026 79.3636 463.405 79.3636C462.977 79.3636 462.594 79.4564 462.257 79.642C461.924 79.8277 461.661 80.0985 461.467 80.4545C461.274 80.8106 461.178 81.2424 461.178 81.75ZM471.764 87.2045C471.211 87.2045 470.709 87.1004 470.259 86.892C469.808 86.6799 469.45 86.375 469.185 85.9773C468.92 85.5758 468.787 85.0909 468.787 84.5227C468.787 84.0227 468.885 83.6174 469.082 83.3068C469.279 82.9924 469.543 82.7462 469.872 82.5682C470.202 82.3902 470.565 82.2576 470.963 82.1705C471.365 82.0795 471.768 82.0076 472.173 81.9545C472.704 81.8864 473.134 81.8352 473.463 81.8011C473.796 81.7633 474.039 81.7008 474.19 81.6136C474.346 81.5265 474.423 81.375 474.423 81.1591V81.1136C474.423 80.553 474.27 80.1174 473.963 79.8068C473.66 79.4962 473.2 79.3409 472.582 79.3409C471.942 79.3409 471.44 79.4811 471.077 79.7614C470.713 80.0417 470.457 80.3409 470.31 80.6591L469.037 80.2045C469.264 79.6742 469.567 79.2614 469.946 78.9659C470.329 78.6667 470.745 78.4583 471.196 78.3409C471.651 78.2197 472.098 78.1591 472.537 78.1591C472.817 78.1591 473.139 78.1932 473.503 78.2614C473.87 78.3258 474.224 78.4602 474.565 78.6648C474.91 78.8693 475.196 79.178 475.423 79.5909C475.651 80.0038 475.764 80.5568 475.764 81.25V87H474.423V85.8182H474.355C474.264 86.0076 474.113 86.2102 473.901 86.4261C473.688 86.642 473.406 86.8258 473.054 86.9773C472.702 87.1288 472.272 87.2045 471.764 87.2045ZM471.969 86C472.499 86 472.946 85.8958 473.31 85.6875C473.677 85.4792 473.954 85.2102 474.139 84.8807C474.329 84.5511 474.423 84.2045 474.423 83.8409V82.6136C474.366 82.6818 474.241 82.7443 474.048 82.8011C473.859 82.8542 473.639 82.9015 473.389 82.9432C473.143 82.9811 472.902 83.0152 472.668 83.0455C472.437 83.072 472.249 83.0947 472.105 83.1136C471.757 83.1591 471.431 83.233 471.128 83.3352C470.829 83.4337 470.586 83.5833 470.401 83.7841C470.219 83.9811 470.128 84.25 470.128 84.5909C470.128 85.0568 470.3 85.4091 470.645 85.6477C470.993 85.8826 471.435 86 471.969 86ZM479.553 75.3636V87H478.212V75.3636H479.553ZM487.168 87H485.69L489.963 75.3636H491.418L495.69 87H494.213L490.736 77.2045H490.645L487.168 87ZM487.713 82.4545H493.668V83.7045H487.713V82.4545ZM498.662 81.75V87H497.321V78.2727H498.616V79.6364H498.73C498.935 79.1932 499.245 78.8371 499.662 78.5682C500.079 78.2955 500.616 78.1591 501.276 78.1591C501.866 78.1591 502.384 78.2803 502.827 78.5227C503.27 78.7614 503.615 79.125 503.861 79.6136C504.107 80.0985 504.23 80.7121 504.23 81.4545V87H502.889V81.5455C502.889 80.8598 502.711 80.3258 502.355 79.9432C501.999 79.5568 501.51 79.3636 500.889 79.3636C500.461 79.3636 500.079 79.4564 499.741 79.642C499.408 79.8277 499.145 80.0985 498.952 80.4545C498.759 80.8106 498.662 81.2424 498.662 81.75ZM509.249 87.2045C508.696 87.2045 508.194 87.1004 507.743 86.892C507.292 86.6799 506.934 86.375 506.669 85.9773C506.404 85.5758 506.271 85.0909 506.271 84.5227C506.271 84.0227 506.37 83.6174 506.567 83.3068C506.764 82.9924 507.027 82.7462 507.357 82.5682C507.686 82.3902 508.05 82.2576 508.447 82.1705C508.849 82.0795 509.252 82.0076 509.658 81.9545C510.188 81.8864 510.618 81.8352 510.947 81.8011C511.281 81.7633 511.523 81.7008 511.675 81.6136C511.83 81.5265 511.908 81.375 511.908 81.1591V81.1136C511.908 80.553 511.754 80.1174 511.447 79.8068C511.144 79.4962 510.684 79.3409 510.067 79.3409C509.427 79.3409 508.925 79.4811 508.561 79.7614C508.197 80.0417 507.942 80.3409 507.794 80.6591L506.521 80.2045C506.749 79.6742 507.052 79.2614 507.43 78.9659C507.813 78.6667 508.23 78.4583 508.68 78.3409C509.135 78.2197 509.582 78.1591 510.021 78.1591C510.302 78.1591 510.624 78.1932 510.987 78.2614C511.355 78.3258 511.709 78.4602 512.05 78.6648C512.394 78.8693 512.68 79.178 512.908 79.5909C513.135 80.0038 513.249 80.5568 513.249 81.25V87H511.908V85.8182H511.839C511.749 86.0076 511.597 86.2102 511.385 86.4261C511.173 86.642 510.891 86.8258 510.538 86.9773C510.186 87.1288 509.756 87.2045 509.249 87.2045ZM509.453 86C509.983 86 510.43 85.8958 510.794 85.6875C511.161 85.4792 511.438 85.2102 511.624 84.8807C511.813 84.5511 511.908 84.2045 511.908 83.8409V82.6136C511.851 82.6818 511.726 82.7443 511.533 82.8011C511.343 82.8542 511.124 82.9015 510.874 82.9432C510.627 82.9811 510.387 83.0152 510.152 83.0455C509.921 83.072 509.733 83.0947 509.589 83.1136C509.241 83.1591 508.915 83.233 508.612 83.3352C508.313 83.4337 508.071 83.5833 507.885 83.7841C507.703 83.9811 507.612 84.25 507.612 84.5909C507.612 85.0568 507.785 85.4091 508.129 85.6477C508.478 85.8826 508.919 86 509.453 86ZM517.037 75.3636V87H515.696V75.3636H517.037ZM520.357 90.2727C520.129 90.2727 519.927 90.2538 519.749 90.2159C519.571 90.1818 519.447 90.1477 519.379 90.1136L519.72 88.9318C520.046 89.0152 520.334 89.0455 520.584 89.0227C520.834 89 521.055 88.8883 521.249 88.6875C521.446 88.4905 521.625 88.1705 521.788 87.7273L522.038 87.0455L518.811 78.2727H520.266L522.675 85.2273H522.766L525.175 78.2727H526.629L522.925 88.2727C522.758 88.7235 522.552 89.0966 522.305 89.392C522.059 89.6913 521.773 89.9129 521.447 90.0568C521.125 90.2008 520.762 90.2727 520.357 90.2727ZM534.581 80.2273L533.376 80.5682C533.301 80.3674 533.189 80.1723 533.041 79.983C532.897 79.7898 532.7 79.6307 532.45 79.5057C532.2 79.3807 531.88 79.3182 531.49 79.3182C530.956 79.3182 530.511 79.4413 530.155 79.6875C529.803 79.9299 529.626 80.2386 529.626 80.6136C529.626 80.947 529.748 81.2102 529.99 81.4034C530.232 81.5966 530.611 81.7576 531.126 81.8864L532.422 82.2045C533.202 82.3939 533.784 82.6837 534.166 83.0739C534.549 83.4602 534.74 83.9583 534.74 84.5682C534.74 85.0682 534.596 85.5152 534.308 85.9091C534.024 86.303 533.626 86.6136 533.115 86.8409C532.604 87.0682 532.009 87.1818 531.331 87.1818C530.441 87.1818 529.704 86.9886 529.121 86.6023C528.537 86.2159 528.168 85.6515 528.013 84.9091L529.286 84.5909C529.407 85.0606 529.636 85.4129 529.973 85.6477C530.314 85.8826 530.759 86 531.308 86C531.933 86 532.429 85.8674 532.797 85.6023C533.168 85.3333 533.354 85.0114 533.354 84.6364C533.354 84.3333 533.248 84.0795 533.036 83.875C532.823 83.6667 532.498 83.5114 532.058 83.4091L530.604 83.0682C529.804 82.8788 529.217 82.5852 528.842 82.1875C528.471 81.786 528.286 81.2841 528.286 80.6818C528.286 80.1894 528.424 79.7538 528.7 79.375C528.981 78.9962 529.361 78.6989 529.842 78.483C530.327 78.267 530.876 78.1591 531.49 78.1591C532.354 78.1591 533.032 78.3485 533.524 78.7273C534.02 79.1061 534.373 79.6061 534.581 80.2273ZM536.759 87V78.2727H538.099V87H536.759ZM537.44 76.8182C537.179 76.8182 536.954 76.7292 536.764 76.5511C536.579 76.3731 536.486 76.1591 536.486 75.9091C536.486 75.6591 536.579 75.4451 536.764 75.267C536.954 75.089 537.179 75 537.44 75C537.702 75 537.925 75.089 538.111 75.267C538.3 75.4451 538.395 75.6591 538.395 75.9091C538.395 76.1591 538.3 76.3731 538.111 76.5511C537.925 76.7292 537.702 76.8182 537.44 76.8182ZM546.737 80.2273L545.533 80.5682C545.457 80.3674 545.345 80.1723 545.197 79.983C545.054 79.7898 544.857 79.6307 544.607 79.5057C544.357 79.3807 544.036 79.3182 543.646 79.3182C543.112 79.3182 542.667 79.4413 542.311 79.6875C541.959 79.9299 541.783 80.2386 541.783 80.6136C541.783 80.947 541.904 81.2102 542.146 81.4034C542.389 81.5966 542.768 81.7576 543.283 81.8864L544.578 82.2045C545.358 82.3939 545.94 82.6837 546.322 83.0739C546.705 83.4602 546.896 83.9583 546.896 84.5682C546.896 85.0682 546.752 85.5152 546.464 85.9091C546.18 86.303 545.783 86.6136 545.271 86.8409C544.76 87.0682 544.165 87.1818 543.487 87.1818C542.597 87.1818 541.86 86.9886 541.277 86.6023C540.694 86.2159 540.324 85.6515 540.169 84.9091L541.442 84.5909C541.563 85.0606 541.792 85.4129 542.129 85.6477C542.47 85.8826 542.915 86 543.464 86C544.089 86 544.586 85.8674 544.953 85.6023C545.324 85.3333 545.51 85.0114 545.51 84.6364C545.51 84.3333 545.404 84.0795 545.192 83.875C544.98 83.6667 544.654 83.5114 544.214 83.4091L542.76 83.0682C541.961 82.8788 541.374 82.5852 540.999 82.1875C540.627 81.786 540.442 81.2841 540.442 80.6818C540.442 80.1894 540.58 79.7538 540.857 79.375C541.137 78.9962 541.518 78.6989 541.999 78.483C542.483 78.267 543.033 78.1591 543.646 78.1591C544.51 78.1591 545.188 78.3485 545.68 78.7273C546.177 79.1061 546.529 79.6061 546.737 80.2273Z" fill="#6B7280"/>
<path d="M317.169 56L309.678 29.8182H315.724L320.058 48.0099H320.276L325.057 29.8182H330.234L335.003 48.0483H335.233L339.567 29.8182H345.614L338.122 56H332.727L327.741 38.8821H327.537L322.564 56H317.169ZM353.92 44.6477V56H348.474V29.8182H353.767V39.8281H353.997C354.44 38.669 355.156 37.7614 356.145 37.1051C357.133 36.4403 358.373 36.108 359.865 36.108C361.228 36.108 362.417 36.4062 363.431 37.0028C364.454 37.5909 365.247 38.4389 365.809 39.5469C366.38 40.6463 366.662 41.9631 366.653 43.4972V56H361.207V44.4688C361.216 43.2585 360.909 42.3168 360.287 41.6435C359.673 40.9702 358.812 40.6335 357.704 40.6335C356.963 40.6335 356.306 40.7912 355.735 41.1065C355.173 41.4219 354.73 41.8821 354.406 42.4872C354.091 43.0838 353.929 43.804 353.92 44.6477ZM376.538 56.3707C375.286 56.3707 374.169 56.1534 373.189 55.7188C372.209 55.2756 371.433 54.6236 370.862 53.7628C370.3 52.8935 370.018 51.8111 370.018 50.5156C370.018 49.4247 370.219 48.5085 370.619 47.767C371.02 47.0256 371.565 46.429 372.256 45.9773C372.946 45.5256 373.73 45.1847 374.608 44.9545C375.494 44.7244 376.423 44.5625 377.395 44.4688C378.537 44.3494 379.457 44.2386 380.156 44.1364C380.855 44.0256 381.362 43.8636 381.678 43.6506C381.993 43.4375 382.151 43.1222 382.151 42.7045V42.6278C382.151 41.8182 381.895 41.1918 381.384 40.7486C380.881 40.3054 380.165 40.0838 379.236 40.0838C378.256 40.0838 377.476 40.3011 376.896 40.7358C376.317 41.1619 375.933 41.6989 375.746 42.3466L370.709 41.9375C370.964 40.7443 371.467 39.7131 372.217 38.8438C372.967 37.9659 373.935 37.2926 375.119 36.8239C376.313 36.3466 377.693 36.108 379.261 36.108C380.352 36.108 381.396 36.2358 382.393 36.4915C383.399 36.7472 384.29 37.1435 385.065 37.6804C385.849 38.2173 386.467 38.9077 386.919 39.7514C387.371 40.5866 387.597 41.5881 387.597 42.7557V56H382.432V53.277H382.278C381.963 53.8906 381.541 54.4318 381.013 54.9006C380.484 55.3608 379.849 55.723 379.108 55.9872C378.366 56.2429 377.51 56.3707 376.538 56.3707ZM378.098 52.6122C378.899 52.6122 379.607 52.4545 380.22 52.1392C380.834 51.8153 381.315 51.3807 381.665 50.8352C382.014 50.2898 382.189 49.6719 382.189 48.9815V46.8977C382.018 47.0085 381.784 47.1108 381.486 47.2045C381.196 47.2898 380.868 47.3707 380.501 47.4474C380.135 47.5156 379.768 47.5795 379.402 47.6392C379.036 47.6903 378.703 47.7372 378.405 47.7798C377.766 47.8736 377.207 48.0227 376.73 48.2273C376.253 48.4318 375.882 48.7088 375.618 49.0582C375.354 49.3991 375.222 49.8253 375.222 50.3366C375.222 51.0781 375.49 51.6449 376.027 52.0369C376.572 52.4205 377.263 52.6122 378.098 52.6122ZM402.266 36.3636V40.4545H390.441V36.3636H402.266ZM393.126 31.6591H398.572V49.9659C398.572 50.4687 398.648 50.8608 398.802 51.142C398.955 51.4148 399.168 51.6065 399.441 51.7173C399.722 51.8281 400.046 51.8835 400.413 51.8835C400.668 51.8835 400.924 51.8622 401.18 51.8196C401.435 51.7685 401.631 51.7301 401.768 51.7045L402.624 55.7571C402.352 55.8423 401.968 55.9403 401.474 56.0511C400.979 56.1705 400.379 56.2429 399.671 56.2685C398.359 56.3196 397.208 56.1449 396.219 55.7443C395.239 55.3437 394.477 54.7216 393.931 53.8778C393.386 53.0341 393.117 51.9687 393.126 50.6818V31.6591ZM423.529 56H414.248V29.8182H423.606C426.24 29.8182 428.507 30.3423 430.407 31.3906C432.308 32.4304 433.77 33.9261 434.792 35.8778C435.824 37.8295 436.339 40.1648 436.339 42.8835C436.339 45.6108 435.824 47.9545 434.792 49.9148C433.77 51.875 432.299 53.3793 430.382 54.4276C428.473 55.4759 426.189 56 423.529 56ZM419.784 51.2571H423.299C424.936 51.2571 426.312 50.9673 427.429 50.3878C428.554 49.7997 429.397 48.892 429.96 47.6648C430.531 46.429 430.816 44.8352 430.816 42.8835C430.816 40.9489 430.531 39.3679 429.96 38.1406C429.397 36.9134 428.558 36.0099 427.441 35.4304C426.325 34.8509 424.949 34.5611 423.312 34.5611H419.784V51.2571ZM440.337 56V36.3636H445.617V39.7898H445.822C446.18 38.571 446.781 37.6506 447.624 37.0284C448.468 36.3977 449.44 36.0824 450.539 36.0824C450.812 36.0824 451.106 36.0994 451.421 36.1335C451.737 36.1676 452.013 36.2145 452.252 36.2741V41.1065C451.996 41.0298 451.643 40.9616 451.191 40.902C450.739 40.8423 450.326 40.8125 449.951 40.8125C449.15 40.8125 448.434 40.9872 447.803 41.3366C447.181 41.6776 446.687 42.1548 446.32 42.7685C445.962 43.3821 445.783 44.0895 445.783 44.8906V56H440.337ZM455.068 56V36.3636H460.514V56H455.068ZM457.804 33.8324C456.994 33.8324 456.299 33.5639 455.72 33.027C455.149 32.4815 454.863 31.8295 454.863 31.071C454.863 30.321 455.149 29.6776 455.72 29.1406C456.299 28.5952 456.994 28.3224 457.804 28.3224C458.613 28.3224 459.304 28.5952 459.875 29.1406C460.454 29.6776 460.744 30.321 460.744 31.071C460.744 31.8295 460.454 32.4815 459.875 33.027C459.304 33.5639 458.613 33.8324 457.804 33.8324ZM483.183 36.3636L476.318 56H470.182L463.317 36.3636H469.07L473.148 50.4134H473.352L477.418 36.3636H483.183ZM494.286 56.3835C492.266 56.3835 490.528 55.9744 489.07 55.1562C487.621 54.3295 486.505 53.1619 485.721 51.6534C484.937 50.1364 484.545 48.3423 484.545 46.2713C484.545 44.2514 484.937 42.4787 485.721 40.9531C486.505 39.4276 487.609 38.2386 489.032 37.3864C490.464 36.5341 492.143 36.108 494.069 36.108C495.364 36.108 496.57 36.3168 497.687 36.7344C498.812 37.1435 499.792 37.7614 500.627 38.5881C501.471 39.4148 502.127 40.4545 502.596 41.7074C503.065 42.9517 503.299 44.4091 503.299 46.0795V47.5753H486.718V44.2003H498.173C498.173 43.4162 498.002 42.7216 497.661 42.1165C497.32 41.5114 496.847 41.0384 496.242 40.6974C495.646 40.348 494.951 40.1733 494.158 40.1733C493.332 40.1733 492.599 40.3651 491.96 40.7486C491.329 41.1236 490.835 41.6307 490.477 42.2699C490.119 42.9006 489.935 43.6037 489.927 44.3793V47.5881C489.927 48.5597 490.106 49.3991 490.464 50.1065C490.83 50.8139 491.346 51.3594 492.011 51.7429C492.675 52.1264 493.464 52.3182 494.376 52.3182C494.981 52.3182 495.535 52.233 496.038 52.0625C496.54 51.892 496.971 51.6364 497.329 51.2955C497.687 50.9545 497.96 50.5369 498.147 50.0426L503.184 50.375C502.928 51.5852 502.404 52.642 501.612 53.5455C500.827 54.4403 499.813 55.1392 498.569 55.642C497.333 56.1364 495.906 56.3835 494.286 56.3835ZM523.191 41.9631L518.205 42.2699C518.12 41.8437 517.937 41.4602 517.656 41.1193C517.374 40.7699 517.004 40.4929 516.543 40.2884C516.092 40.0753 515.55 39.9688 514.92 39.9688C514.076 39.9688 513.364 40.1477 512.785 40.5057C512.205 40.8551 511.915 41.3239 511.915 41.9119C511.915 42.3807 512.103 42.777 512.478 43.1009C512.853 43.4247 513.496 43.6847 514.408 43.8807L517.962 44.5966C519.871 44.9886 521.295 45.6193 522.232 46.4886C523.17 47.358 523.638 48.5 523.638 49.9148C523.638 51.2017 523.259 52.331 522.501 53.3026C521.751 54.2741 520.719 55.0327 519.407 55.5781C518.103 56.1151 516.599 56.3835 514.894 56.3835C512.295 56.3835 510.224 55.8423 508.681 54.7599C507.147 53.669 506.248 52.1861 505.984 50.3111L511.34 50.0298C511.502 50.8224 511.894 51.4276 512.516 51.8452C513.138 52.2543 513.935 52.4588 514.907 52.4588C515.862 52.4588 516.629 52.2756 517.208 51.9091C517.796 51.5341 518.094 51.0526 518.103 50.4645C518.094 49.9702 517.886 49.5653 517.477 49.25C517.067 48.9261 516.437 48.679 515.585 48.5085L512.184 47.831C510.266 47.4474 508.839 46.7827 507.901 45.8366C506.972 44.8906 506.508 43.6847 506.508 42.2188C506.508 40.9574 506.849 39.8707 507.531 38.9588C508.221 38.0469 509.188 37.3438 510.433 36.8494C511.685 36.3551 513.151 36.108 514.83 36.108C517.31 36.108 519.262 36.6321 520.685 37.6804C522.117 38.7287 522.952 40.1562 523.191 41.9631ZM535.502 56V29.8182H545.832C547.817 29.8182 549.509 30.1974 550.907 30.956C552.305 31.706 553.37 32.75 554.103 34.0881C554.844 35.4176 555.215 36.9517 555.215 38.6903C555.215 40.429 554.84 41.9631 554.09 43.2926C553.34 44.6222 552.254 45.6577 550.83 46.3991C549.415 47.1406 547.702 47.5114 545.691 47.5114H539.107V43.0753H544.796C545.862 43.0753 546.739 42.892 547.43 42.5256C548.129 42.1506 548.648 41.6349 548.989 40.9787C549.339 40.3139 549.513 39.5511 549.513 38.6903C549.513 37.821 549.339 37.0625 548.989 36.4148C548.648 35.7585 548.129 35.2514 547.43 34.8935C546.731 34.527 545.844 34.3438 544.771 34.3438H541.038V56H535.502ZM558.708 56V36.3636H563.988V39.7898H564.193C564.551 38.571 565.152 37.6506 565.995 37.0284C566.839 36.3977 567.811 36.0824 568.91 36.0824C569.183 36.0824 569.477 36.0994 569.792 36.1335C570.108 36.1676 570.385 36.2145 570.623 36.2741V41.1065C570.368 41.0298 570.014 40.9616 569.562 40.902C569.11 40.8423 568.697 40.8125 568.322 40.8125C567.521 40.8125 566.805 40.9872 566.174 41.3366C565.552 41.6776 565.058 42.1548 564.691 42.7685C564.333 43.3821 564.154 44.0895 564.154 44.8906V56H558.708ZM581.397 56.3835C579.411 56.3835 577.694 55.9616 576.245 55.1179C574.805 54.2656 573.692 53.081 572.908 51.5639C572.124 50.0384 571.732 48.2699 571.732 46.2585C571.732 44.2301 572.124 42.4574 572.908 40.9403C573.692 39.4148 574.805 38.2301 576.245 37.3864C577.694 36.5341 579.411 36.108 581.397 36.108C583.383 36.108 585.096 36.5341 586.536 37.3864C587.985 38.2301 589.102 39.4148 589.886 40.9403C590.67 42.4574 591.062 44.2301 591.062 46.2585C591.062 48.2699 590.67 50.0384 589.886 51.5639C589.102 53.081 587.985 54.2656 586.536 55.1179C585.096 55.9616 583.383 56.3835 581.397 56.3835ZM581.423 52.1648C582.326 52.1648 583.08 51.9091 583.685 51.3977C584.29 50.8778 584.746 50.1705 585.053 49.2756C585.369 48.3807 585.526 47.3622 585.526 46.2202C585.526 45.0781 585.369 44.0597 585.053 43.1648C584.746 42.2699 584.29 41.5625 583.685 41.0426C583.08 40.5227 582.326 40.2628 581.423 40.2628C580.511 40.2628 579.744 40.5227 579.121 41.0426C578.508 41.5625 578.043 42.2699 577.728 43.1648C577.421 44.0597 577.268 45.0781 577.268 46.2202C577.268 47.3622 577.421 48.3807 577.728 49.2756C578.043 50.1705 578.508 50.8778 579.121 51.3977C579.744 51.9091 580.511 52.1648 581.423 52.1648ZM605.163 36.3636V40.4545H593.043V36.3636H605.163ZM595.817 56V34.9446C595.817 33.5213 596.094 32.3409 596.648 31.4034C597.211 30.4659 597.978 29.7628 598.95 29.294C599.921 28.8253 601.025 28.5909 602.261 28.5909C603.096 28.5909 603.859 28.6548 604.549 28.7827C605.248 28.9105 605.768 29.0256 606.109 29.1278L605.137 33.2188C604.924 33.1506 604.66 33.0866 604.344 33.027C604.038 32.9673 603.722 32.9375 603.398 32.9375C602.597 32.9375 602.039 33.125 601.724 33.5C601.408 33.8665 601.251 34.3821 601.251 35.0469V56H595.817ZM608.49 56V36.3636H613.936V56H608.49ZM611.225 33.8324C610.416 33.8324 609.721 33.5639 609.142 33.027C608.571 32.4815 608.285 31.8295 608.285 31.071C608.285 30.321 608.571 29.6776 609.142 29.1406C609.721 28.5952 610.416 28.3224 611.225 28.3224C612.035 28.3224 612.725 28.5952 613.297 29.1406C613.876 29.6776 614.166 30.321 614.166 31.071C614.166 31.8295 613.876 32.4815 613.297 33.027C612.725 33.5639 612.035 33.8324 611.225 33.8324ZM628.743 36.3636V40.4545H616.918V36.3636H628.743ZM619.602 31.6591H625.048V49.9659C625.048 50.4687 625.125 50.8608 625.278 51.142C625.432 51.4148 625.645 51.6065 625.918 51.7173C626.199 51.8281 626.523 51.8835 626.889 51.8835C627.145 51.8835 627.401 51.8622 627.656 51.8196C627.912 51.7685 628.108 51.7301 628.244 51.7045L629.101 55.7571C628.828 55.8423 628.445 55.9403 627.95 56.0511C627.456 56.1705 626.855 56.2429 626.148 56.2685C624.835 56.3196 623.685 56.1449 622.696 55.7443C621.716 55.3437 620.953 54.7216 620.408 53.8778C619.862 53.0341 619.594 51.9687 619.602 50.6818V31.6591ZM637.89 56.3707C636.637 56.3707 635.521 56.1534 634.54 55.7188C633.56 55.2756 632.785 54.6236 632.214 53.7628C631.651 52.8935 631.37 51.8111 631.37 50.5156C631.37 49.4247 631.57 48.5085 631.971 47.767C632.371 47.0256 632.917 46.429 633.607 45.9773C634.298 45.5256 635.082 45.1847 635.96 44.9545C636.846 44.7244 637.775 44.5625 638.746 44.4688C639.888 44.3494 640.809 44.2386 641.508 44.1364C642.207 44.0256 642.714 43.8636 643.029 43.6506C643.344 43.4375 643.502 43.1222 643.502 42.7045V42.6278C643.502 41.8182 643.246 41.1918 642.735 40.7486C642.232 40.3054 641.516 40.0838 640.587 40.0838C639.607 40.0838 638.827 40.3011 638.248 40.7358C637.668 41.1619 637.285 41.6989 637.097 42.3466L632.06 41.9375C632.316 40.7443 632.819 39.7131 633.569 38.8438C634.319 37.9659 635.286 37.2926 636.471 36.8239C637.664 36.3466 639.045 36.108 640.613 36.108C641.704 36.108 642.748 36.2358 643.745 36.4915C644.751 36.7472 645.641 37.1435 646.417 37.6804C647.201 38.2173 647.819 38.9077 648.271 39.7514C648.722 40.5866 648.948 41.5881 648.948 42.7557V56H643.783V53.277H643.63C643.315 53.8906 642.893 54.4318 642.364 54.9006C641.836 55.3608 641.201 55.723 640.46 55.9872C639.718 56.2429 638.862 56.3707 637.89 56.3707ZM639.45 52.6122C640.251 52.6122 640.958 52.4545 641.572 52.1392C642.185 51.8153 642.667 51.3807 643.016 50.8352C643.366 50.2898 643.54 49.6719 643.54 48.9815V46.8977C643.37 47.0085 643.136 47.1108 642.837 47.2045C642.548 47.2898 642.219 47.3707 641.853 47.4474C641.487 47.5156 641.12 47.5795 640.754 47.6392C640.387 47.6903 640.055 47.7372 639.756 47.7798C639.117 47.8736 638.559 48.0227 638.082 48.2273C637.604 48.4318 637.234 48.7088 636.969 49.0582C636.705 49.3991 636.573 49.8253 636.573 50.3366C636.573 51.0781 636.842 51.6449 637.379 52.0369C637.924 52.4205 638.614 52.6122 639.45 52.6122ZM653.276 56V29.8182H658.722V39.6619H658.888C659.126 39.1335 659.472 38.5966 659.923 38.0511C660.384 37.4972 660.98 37.0369 661.713 36.6705C662.455 36.2955 663.375 36.108 664.474 36.108C665.906 36.108 667.227 36.483 668.438 37.233C669.648 37.9744 670.615 39.0952 671.339 40.5952C672.064 42.0866 672.426 43.9574 672.426 46.2074C672.426 48.3977 672.072 50.2472 671.365 51.7557C670.666 53.2557 669.712 54.3935 668.501 55.169C667.3 55.9361 665.953 56.3196 664.462 56.3196C663.405 56.3196 662.506 56.1449 661.764 55.7955C661.031 55.446 660.43 55.0071 659.962 54.4787C659.493 53.9418 659.135 53.4006 658.888 52.8551H658.645V56H653.276ZM658.607 46.1818C658.607 47.3494 658.768 48.3679 659.092 49.2372C659.416 50.1065 659.885 50.7841 660.499 51.2699C661.112 51.7472 661.858 51.9858 662.736 51.9858C663.622 51.9858 664.372 51.7429 664.986 51.2571C665.599 50.7628 666.064 50.081 666.379 49.2116C666.703 48.3338 666.865 47.3239 666.865 46.1818C666.865 45.0483 666.707 44.0511 666.392 43.1903C666.077 42.3295 665.612 41.6562 664.999 41.1705C664.385 40.6847 663.631 40.4418 662.736 40.4418C661.849 40.4418 661.099 40.6761 660.486 41.1449C659.881 41.6136 659.416 42.2784 659.092 43.1392C658.768 44 658.607 45.0142 658.607 46.1818ZM676.06 56V36.3636H681.506V56H676.06ZM678.796 33.8324C677.986 33.8324 677.292 33.5639 676.712 33.027C676.141 32.4815 675.855 31.8295 675.855 31.071C675.855 30.321 676.141 29.6776 676.712 29.1406C677.292 28.5952 677.986 28.3224 678.796 28.3224C679.605 28.3224 680.296 28.5952 680.867 29.1406C681.446 29.6776 681.736 30.321 681.736 31.071C681.736 31.8295 681.446 32.4815 680.867 33.027C680.296 33.5639 679.605 33.8324 678.796 33.8324ZM691.315 29.8182V56H685.869V29.8182H691.315ZM695.677 56V36.3636H701.123V56H695.677ZM698.413 33.8324C697.603 33.8324 696.909 33.5639 696.329 33.027C695.758 32.4815 695.473 31.8295 695.473 31.071C695.473 30.321 695.758 29.6776 696.329 29.1406C696.909 28.5952 697.603 28.3224 698.413 28.3224C699.223 28.3224 699.913 28.5952 700.484 29.1406C701.064 29.6776 701.353 30.321 701.353 31.071C701.353 31.8295 701.064 32.4815 700.484 33.027C699.913 33.5639 699.223 33.8324 698.413 33.8324ZM715.93 36.3636V40.4545H704.105V36.3636H715.93ZM706.79 31.6591H712.236V49.9659C712.236 50.4687 712.313 50.8608 712.466 51.142C712.619 51.4148 712.832 51.6065 713.105 51.7173C713.386 51.8281 713.71 51.8835 714.077 51.8835C714.332 51.8835 714.588 51.8622 714.844 51.8196C715.099 51.7685 715.295 51.7301 715.432 51.7045L716.288 55.7571C716.016 55.8423 715.632 55.9403 715.138 56.0511C714.643 56.1705 714.043 56.2429 713.335 56.2685C712.023 56.3196 710.872 56.1449 709.884 55.7443C708.903 55.3437 708.141 54.7216 707.595 53.8778C707.05 53.0341 706.781 51.9687 706.79 50.6818V31.6591ZM722.84 63.3636C722.15 63.3636 721.502 63.3082 720.897 63.1974C720.3 63.0952 719.806 62.9631 719.414 62.8011L720.641 58.7358C721.281 58.9318 721.856 59.0384 722.367 59.0554C722.887 59.0724 723.335 58.9531 723.71 58.6974C724.093 58.4418 724.404 58.0071 724.643 57.3935L724.962 56.5625L717.918 36.3636H723.646L727.711 50.7841H727.915L732.019 36.3636H737.785L730.153 58.1222C729.786 59.179 729.288 60.0994 728.657 60.8835C728.035 61.6761 727.246 62.2855 726.292 62.7116C725.337 63.1463 724.187 63.3636 722.84 63.3636Z" fill="#0F766E"/>
<g filter="url(#filter4_d_45_3)">
<rect width="271" height="1080" rx="12" fill="url(#paint1_linear_45_3)"/>
</g>
<defs>
<filter id="filter0_d_45_3" x="303" y="902" width="1585" height="165" filterUnits="userSpaceOnUse" color-interpolation-filters="sRGB">
<feFlood flood-opacity="0" result="BackgroundImageFix"/>
<feColorMatrix in="SourceAlpha" type="matrix" values="0 0 0 0 0 0 0 0 0 0 0 0 0 0 0 0 0 0 127 0" result="hardAlpha"/>
<feOffset dy="4"/>
<feGaussianBlur stdDeviation="2"/>
<feComposite in2="hardAlpha" operator="out"/>
<feColorMatrix type="matrix" values="0 0 0 0 0.86446 0 0 0 0 0.899038 0 0 0 0 0.896353 0 0 0 1 0"/>
<feBlend mode="normal" in2="BackgroundImageFix" result="effect1_dropShadow_45_3"/>
<feBlend mode="normal" in="SourceGraphic" in2="effect1_dropShadow_45_3" result="shape"/>
</filter>
<filter id="filter1_d_45_3" x="1126" y="492" width="760" height="400" filterUnits="userSpaceOnUse" color-interpolation-filters="sRGB">
<feFlood flood-opacity="0" result="BackgroundImageFix"/>
<feColorMatrix in="SourceAlpha" type="matrix" values="0 0 0 0 0 0 0 0 0 0 0 0 0 0 0 0 0 0 127 0" result="hardAlpha"/>
<feOffset dy="4"/>
<feGaussianBlur stdDeviation="2"/>
<feComposite in2="hardAlpha" operator="out"/>
<feColorMatrix type="matrix" values="0 0 0 0 0.86446 0 0 0 0 0.899038 0 0 0 0 0.896353 0 0 0 1 0"/>
<feBlend mode="normal" in2="BackgroundImageFix" result="effect1_dropShadow_45_3"/>
<feBlend mode="normal" in="SourceGraphic" in2="effect1_dropShadow_45_3" result="shape"/>
</filter>
<filter id="filter2_d_45_3" x="305" y="492" width="809" height="400" filterUnits="userSpaceOnUse" color-interpolation-filters="sRGB">
<feFlood flood-opacity="0" result="BackgroundImageFix"/>
<feColorMatrix in="SourceAlpha" type="matrix" values="0 0 0 0 0 0 0 0 0 0 0 0 0 0 0 0 0 0 127 0" result="hardAlpha"/>
<feOffset dy="4"/>
<feGaussianBlur stdDeviation="2"/>
<feComposite in2="hardAlpha" operator="out"/>
<feColorMatrix type="matrix" values="0 0 0 0 0.86446 0 0 0 0 0.899038 0 0 0 0 0.896353 0 0 0 1 0"/>
<feBlend mode="normal" in2="BackgroundImageFix" result="effect1_dropShadow_45_3"/>
<feBlend mode="normal" in="SourceGraphic" in2="effect1_dropShadow_45_3" result="shape"/>
</filter>
<filter id="filter3_d_45_3" x="305" y="122" width="1581" height="358" filterUnits="userSpaceOnUse" color-interpolation-filters="sRGB">
<feFlood flood-opacity="0" result="BackgroundImageFix"/>
<feColorMatrix in="SourceAlpha" type="matrix" values="0 0 0 0 0 0 0 0 0 0 0 0 0 0 0 0 0 0 127 0" result="hardAlpha"/>
<feOffset dy="4"/>
<feGaussianBlur stdDeviation="2"/>
<feComposite in2="hardAlpha" operator="out"/>
<feColorMatrix type="matrix" values="0 0 0 0 0.86446 0 0 0 0 0.899038 0 0 0 0 0.896353 0 0 0 1 0"/>
<feBlend mode="normal" in2="BackgroundImageFix" result="effect1_dropShadow_45_3"/>
<feBlend mode="normal" in="SourceGraphic" in2="effect1_dropShadow_45_3" result="shape"/>
</filter>
<filter id="filter4_d_45_3" x="0" y="0" width="275" height="1084" filterUnits="userSpaceOnUse" color-interpolation-filters="sRGB">
<feFlood flood-opacity="0" result="BackgroundImageFix"/>
<feColorMatrix in="SourceAlpha" type="matrix" values="0 0 0 0 0 0 0 0 0 0 0 0 0 0 0 0 0 0 127 0" result="hardAlpha"/>
<feOffset dx="4" dy="4"/>
<feComposite in2="hardAlpha" operator="out"/>
<feColorMatrix type="matrix" values="0 0 0 0 0 0 0 0 0 0 0 0 0 0 0 0 0 0 0.01 0"/>
<feBlend mode="normal" in2="BackgroundImageFix" result="effect1_dropShadow_45_3"/>
<feBlend mode="normal" in="SourceGraphic" in2="effect1_dropShadow_45_3" result="shape"/>
</filter>
<linearGradient id="paint0_linear_45_3" x1="988.974" y1="1057" x2="1134.01" y2="855.133" gradientUnits="userSpaceOnUse">
<stop stop-color="#F0FDFA"/>
<stop offset="1" stop-color="#CCFBF1"/>
</linearGradient>
<linearGradient id="paint1_linear_45_3" x1="135.5" y1="0" x2="135.5" y2="1080" gradientUnits="userSpaceOnUse">
<stop stop-color="#0F766E"/>
<stop offset="0.244909" stop-color="#11857C"/>
<stop offset="0.384615" stop-color="#128D83"/>
<stop offset="0.530532" stop-color="#16ACA0"/>
<stop offset="0.698319" stop-color="#18BDB0"/>
<stop offset="0.848175" stop-color="#1ACDBF"/>
<stop offset="1" stop-color="#1CDCCD"/>
</linearGradient>
</defs>
</svg>
